<svg width="159" height="159" viewBox="0 0 159 159" version="1.1" xmlns="http://www.w3.org/2000/svg" xmlns:xlink="http://www.w3.org/1999/xlink">
<title>After </title>
<desc>Created using Figma</desc>
<g id="Canvas" transform="translate(-16150 -509)">
<g id="After ">
<g id="Ellipse">
<use xlink:href="#path0_fill" transform="translate(16150 509.096)" fill="#D1E7F8"/>
</g>
<g id="alarm">
<g id="Group">
<g id="Vector">
<use xlink:href="#path1_fill" transform="matrix(0.990058 -0.14066 0.14066 0.990058 16194.6 612.129)" fill="#C6C5CA"/>
</g>
<g id="Vector">
<use xlink:href="#path2_fill" transform="matrix(0.990058 -0.14066 0.14066 0.990058 16241 605.546)" fill="#C6C5CA"/>
</g>
</g>
<g id="Group">
<g id="Vector">
<use xlink:href="#path3_fill" transform="matrix(0.990058 -0.14066 0.14066 0.990058 16197.4 611.733)" fill="#ACABB1"/>
</g>
<g id="Vector">
<use xlink:href="#path4_fill" transform="matrix(0.990058 -0.14066 0.14066 0.990058 16241 605.546)" fill="#ACABB1"/>
</g>
<g id="Vector">
<use xlink:href="#path5_fill" transform="matrix(0.990058 -0.14066 0.14066 0.990058 16175 549.434)" fill="#ACABB1"/>
</g>
<g id="Vector">
<use xlink:href="#path6_fill" transform="matrix(0.990058 -0.14066 0.14066 0.990058 16238.6 540.395)" fill="#ACABB1"/>
</g>
</g>
<g id="Vector">
<use xlink:href="#path7_fill" transform="matrix(0.990058 -0.14066 0.14066 0.990058 16173.9 553.544)" fill="#FF3F62"/>
</g>
<g id="Vector">
<use xlink:href="#path8_fill" transform="matrix(0.990058 -0.14066 0.14066 0.990058 16173.9 553.911)" fill="#FF0C38"/>
</g>
<g id="Vector">
<use xlink:href="#path9_fill" transform="matrix(0.990058 -0.14066 0.14066 0.990058 16237.4 544.519)" fill="#FF3F62"/>
</g>
<g id="Vector">
<use xlink:href="#path10_fill" transform="matrix(0.990058 -0.14066 0.14066 0.990058 16237.4 544.519)" fill="#FF0C38"/>
</g>
<g id="Vector">
<use xlink:href="#path11_fill" transform="matrix(0.990058 -0.14066 0.14066 0.990058 16183.7 569.786)" fill="#FF3F62"/>
</g>
<g id="Vector">
<use xlink:href="#path12_fill" transform="matrix(0.990058 -0.14066 0.14066 0.990058 16188.9 573.678)" fill="#FF0C38"/>
</g>
<g id="Vector">
<use xlink:href="#path13_fill" transform="matrix(0.990058 -0.14066 0.14066 0.990058 16193.8 577.335)" fill="#D1E7F8"/>
</g>
<g id="Vector">
<use xlink:href="#path14_fill" transform="matrix(0.990058 -0.14066 0.14066 0.990058 16193.8 577.335)" fill="#B9D8F4"/>
</g>
<g id="Vector">
<use xlink:href="#path15_fill" transform="matrix(0.990058 -0.14066 0.14066 0.990058 16223 599.284)" fill="#FF3F62"/>
</g>
<g id="Vector">
<use xlink:href="#path16_fill" transform="matrix(0.990058 -0.14066 0.14066 0.990058 16223 599.282)" fill="#FF0C38"/>
</g>
<g id="Vector">
<use xlink:href="#path17_fill" transform="matrix(0.990058 -0.14066 0.14066 0.990058 16225.6 576.528)"/>
</g>
<g id="Vector">
<use xlink:href="#path18_fill" transform="matrix(0.990058 -0.14066 0.14066 0.990058 16232.7 626.577)"/>
</g>
<g id="Vector">
<use xlink:href="#path19_fill" transform="matrix(0.990058 -0.14066 0.14066 0.990058 16242.6 582.379)"/>
</g>
<g id="Vector">
<use xlink:href="#path20_fill" transform="matrix(0.990058 -0.14066 0.14066 0.990058 16212.2 622.797)"/>
</g>
<g id="Vector">
<use xlink:href="#path21_fill" transform="matrix(0.990058 -0.14066 0.14066 0.990058 16251.9 601.003)"/>
</g>
<g id="Vector">
<use xlink:href="#path22_fill" transform="matrix(0.990058 -0.14066 0.14066 0.990058 16201.8 608.114)"/>
</g>
<g id="Vector">
<use xlink:href="#path23_fill" transform="matrix(0.990058 -0.14066 0.14066 0.990058 16247.6 617.768)"/>
</g>
<g id="Vector">
<use xlink:href="#path24_fill" transform="matrix(0.990058 -0.14066 0.14066 0.990058 16207.2 587.407)"/>
</g>
<g id="Vector">
<use xlink:href="#path25_fill" transform="matrix(0.990058 -0.14066 0.14066 0.990058 16168.9 532.278)"/>
</g>
<g id="Group 2">
<g id="Vector (Stroke)">
<use xlink:href="#path26_fill" transform="translate(16260.7 526.978)"/>
</g>
<g id="Vector (Stroke)">
<use xlink:href="#path27_fill" transform="translate(16259.8 518.579)"/>
</g>
<g id="Vector (Stroke)">
<use xlink:href="#path28_fill" transform="translate(16256.6 509.643)"/>
</g>
</g>
<g id="Group 2.1">
<g id="Vector (Stroke)">
<use xlink:href="#path26_fill" transform="matrix(-0.944242 -0.329253 0.329253 -0.944242 16182.7 594.339)"/>
</g>
<g id="Vector (Stroke)">
<use xlink:href="#path29_fill" transform="matrix(-0.944242 -0.329253 0.329253 -0.944242 16180.9 602.591)"/>
</g>
</g>
<g id="Vector">
<use xlink:href="#path30_fill" transform="matrix(0.990058 -0.14066 0.14066 0.990058 16191.6 575.721)"/>
</g>
<g id="Vector">
<use xlink:href="#path31_fill" transform="matrix(0.990058 -0.14066 0.14066 0.990058 16219.5 588.636)"/>
</g>
</g>
</g>
</g>
<defs>
<path id="path0_fill" d="M 158.442 79.221C 158.442 122.974 122.974 158.442 79.221 158.442C 35.4685 158.442 0 122.974 0 79.221C 0 35.4685 35.4685 0 79.221 0C 122.974 0 158.442 35.4685 158.442 79.221Z"/>
<path id="path1_fill" d="M 26.1831 0.494385C 28.1527 1.56777 28.8859 4.05729 27.8125 6.02697L 7.65639 43.0122C 6.58301 44.9818 4.09348 45.715 2.1238 44.6413C 0.15412 43.568 -0.579032 41.0784 0.494603 39.1088L 20.6505 2.12383C 21.7236 0.154403 24.2134 -0.578997 26.1831 0.494385Z"/>
<path id="path2_fill" d="M 2.1238 0.494385C 0.154118 1.56777 -0.579034 4.05729 0.494601 6.02697L 20.6507 43.0122C 21.7241 44.9818 24.2136 45.715 26.1833 44.6413C 28.153 43.568 28.8861 41.0784 27.8125 39.1088L 7.65639 2.12383C 6.58301 0.154403 4.09323 -0.578997 2.1238 0.494385Z"/>
<path id="path3_fill" d="M 23.3699 0.494392C 21.4002 -0.578989 18.9107 0.154417 17.8373 2.12359L -6.49419e-07 34.8537C 1.98893 36.7783 4.13671 38.5393 6.42154 40.1155L 24.9991 6.02672C 26.0728 4.0573 25.3394 1.56777 23.3699 0.494392Z"/>
<path id="path4_fill" d="M 2.12364 0.494392C 4.09332 -0.578989 6.58285 0.154417 7.65623 2.12359L 25.4936 34.8537C 23.5046 36.7783 21.3569 38.5393 19.072 40.1155L 0.494438 6.02672C -0.578944 4.0573 0.154208 1.56777 2.12364 0.494392Z"/>
<path id="path5_fill" d="M 30.4041 42.0358C 28.5611 43.3141 26.0072 42.852 24.7286 41.009L 0.7231 6.39857C -0.555229 4.55556 -0.0931456 2.00168 1.74987 0.723101C 3.59288 -0.555229 6.14676 -0.0931448 7.42534 1.74987L 31.4306 36.3603C 32.7092 38.2035 32.2471 40.7574 30.4041 42.0358Z"/>
<path id="path6_fill" d="M 1.74987 42.0358C 3.59288 43.3141 6.14675 42.852 7.42533 41.009L 31.4309 6.39857C 32.7092 4.55556 32.2471 2.00168 30.4041 0.723101C 28.5611 -0.555229 26.0072 -0.0931448 24.7286 1.74987L 0.723099 36.3603C -0.55523 38.2035 -0.0931446 40.7574 1.74987 42.0358Z"/>
<path id="path7_fill" d="M 34.8649 8.04412C 34.8649 8.04412 23.3506 -7.11192 8.03339 4.18328C -7.28377 15.4785 4.01119 30.7962 4.01119 30.7962C 5.16969 32.3673 7.38257 32.7017 8.9535 31.543L 34.1178 12.9864C 35.689 11.8277 36.0234 9.61505 34.8649 8.04412Z"/>
<path id="path8_fill" d="M 14.442 24.6305C 14.442 24.6305 4.41046 11.0221 16.0854 3.40172e-07C 13.5637 0.543405 10.8634 1.72521 8.03341 3.8127C -7.284 15.1079 4.01146 30.4256 4.01146 30.4256C 5.16996 31.9968 7.38285 32.3312 8.95378 31.1724L 16.1384 25.8744C 15.4822 25.6492 14.8849 25.2309 14.442 24.6305Z"/>
<path id="path9_fill" d="M 0.690143 8.04412C 0.690143 8.04412 12.2045 -7.11192 27.5216 4.18328C 42.8388 15.4785 31.5436 30.7962 31.5436 30.7962C 30.3851 32.3673 28.1722 32.7017 26.6013 31.543L 1.43697 12.9864C -0.133958 11.8277 -0.468613 9.61505 0.690143 8.04412Z"/>
<path id="path10_fill" d="M 9.97021 15.7921C 9.97021 15.7921 19.5019 3.24924 32.7567 9.49345C 31.5278 7.67627 29.8281 5.88418 27.5215 4.18328C 12.2041 -7.11192 0.690031 8.04411 0.690031 8.04411C -0.468471 9.6153 -0.134069 11.8279 1.43686 12.9864L 9.42452 18.8765C 9.12837 17.8553 9.29051 16.7138 9.97021 15.7921Z"/>
<path id="path11_fill" d="M 42.3974 84.7949C 65.8129 84.7949 84.7949 65.8129 84.7949 42.3974C 84.7949 18.982 65.8129 0 42.3974 0C 18.982 0 0 18.982 0 42.3974C 0 65.8129 18.982 84.7949 42.3974 84.7949Z"/>
<path id="path12_fill" d="M 37.8138 75.6277C 16.9633 75.6277 -5.10258e-07 58.6643 -5.10258e-07 37.8138C -5.10258e-07 16.9633 16.9633 -1.11329e-06 37.8138 -1.11329e-06C 58.6643 -1.11329e-06 75.6277 16.9633 75.6277 37.8138C 75.6277 58.6643 58.6643 75.6277 37.8138 75.6277Z"/>
<path id="path13_fill" d="M 33.5104 67.0209C 52.0177 67.0209 67.0209 52.0177 67.0209 33.5104C 67.0209 15.0031 52.0177 0 33.5104 0C 15.0031 0 0 15.0031 0 33.5104C 0 52.0177 15.0031 67.0209 33.5104 67.0209Z"/>
<path id="path14_fill" d="M 9.95937 33.5097C 9.95937 16.6948 22.3449 2.77352 38.4907 0.368857C 36.8656 0.126668 35.2025 -1.79363e-06 33.5097 -1.79363e-06C 15.003 -1.79363e-06 8.81354e-07 15.0028 8.81354e-07 33.5097C 8.81354e-07 52.0166 15.0028 67.0193 33.5097 67.0193C 35.2014 67.0193 36.8636 66.8927 38.488 66.6507C 22.3437 64.2443 9.95937 50.3238 9.95937 33.5097Z"/>
<path id="path15_fill" d="M 7.66921 15.3384C 11.9048 15.3384 15.3384 11.9048 15.3384 7.66922C 15.3384 3.43363 11.9048 -2.35028e-06 7.66921 -2.35028e-06C 3.43362 -2.35028e-06 0 3.43363 0 7.66922C 0 11.9048 3.43362 15.3384 7.66921 15.3384Z"/>
<path id="path16_fill" d="M 5.77098 7.67049C 5.77098 4.45516 7.75028 1.70368 10.5562 0.563671C 9.66499 0.201402 8.69143 -1.23699e-06 7.66998 -1.23699e-06C 3.43371 -1.23699e-06 -7.73118e-07 3.43396 -7.73118e-07 7.67023C -7.73118e-07 11.9065 3.43396 15.3405 7.66998 15.3405C 8.69092 15.3405 9.66423 15.1393 10.5552 14.7773C 7.74952 13.6368 5.77098 10.8856 5.77098 7.67049Z"/>
<path id="path17_fill" d="M 1.899 9.115C 2.94806 9.115 3.798 8.26481 3.798 7.216L 3.798 1.899C 3.798 0.850192 2.94806 -1.66993e-06 1.899 -1.66993e-06C 0.849938 -1.66993e-06 1.26791e-06 0.850192 1.26791e-06 1.899L 1.26791e-06 7.216C 1.26791e-06 8.26481 0.850191 9.115 1.899 9.115Z"/>
<path id="path18_fill" d="M 1.899 2.28843e-06C 0.849943 2.28843e-06 -1.08237e-06 0.850196 -1.08237e-06 1.899L -1.08237e-06 7.216C -1.08237e-06 8.26481 0.849943 9.115 1.899 9.115C 2.94807 9.115 3.798 8.26481 3.798 7.216L 3.798 1.899C 3.79775 0.850196 2.94781 2.28843e-06 1.899 2.28843e-06Z"/>
<path id="path19_fill" d="M 3.24174 7.00158L 7.00149 3.24184C 7.74301 2.50033 7.74301 1.298 7.00149 0.556231C 6.25998 -0.185535 5.0574 -0.185281 4.31588 0.556231L 0.556133 4.31598C -0.185379 5.05749 -0.185379 6.25982 0.556133 7.00158C 1.2979 7.74335 2.49998 7.74335 3.24174 7.00158Z"/>
<path id="path20_fill" d="M 4.31588 0.556041L 0.556134 4.31579C -0.185378 5.0573 -0.185378 6.25963 0.556134 7.00139C 1.29765 7.74291 2.50023 7.74291 3.24174 7.00139L 7.00149 3.24164C 7.743 2.50013 7.743 1.29781 7.00149 0.556041C 6.25947 -0.185472 5.05714 -0.185218 4.31588 0.556041Z"/>
<path id="path21_fill" d="M -5.56645e-07 1.899C -5.56645e-07 2.94806 0.850193 3.798 1.899 3.798L 7.216 3.798C 8.26481 3.798 9.11501 2.94806 9.11501 1.899C 9.11501 0.849937 8.26481 -3.33987e-06 7.216 -3.33987e-06L 1.899 -3.33987e-06C 0.850193 -3.33987e-06 -5.56645e-07 0.850444 -5.56645e-07 1.899Z"/>
<path id="path22_fill" d="M 9.115 1.899C 9.115 0.849943 8.26481 2.04103e-06 7.216 2.04103e-06L 1.899 2.04103e-06C 0.850195 2.04103e-06 1.14421e-06 0.849943 1.14421e-06 1.899C 1.14421e-06 2.94807 0.850195 3.79801 1.899 3.79801L 7.216 3.79801C 8.26481 3.79801 9.115 2.94807 9.115 1.899Z"/>
<path id="path23_fill" d="M 3.24174 0.556132C 2.50023 -0.18538 1.2979 -0.18538 0.556137 0.556132C -0.185376 1.29764 -0.185376 2.50023 0.556137 3.24174L 4.31589 7.00149C 5.0574 7.743 6.25972 7.743 7.00123 7.00149C 7.74275 6.25998 7.74275 5.05739 7.00123 4.31588L 3.24174 0.556132Z"/>
<path id="path24_fill" d="M 4.31588 7.00149C 5.05739 7.743 6.25972 7.743 7.00149 7.00149C 7.743 6.25998 7.743 5.05739 7.00149 4.31588L 3.24174 0.556136C 2.50023 -0.185377 1.2979 -0.185377 0.556133 0.556136C -0.185379 1.29765 -0.185379 2.50023 0.556133 3.24174L 4.31588 7.00149Z"/>
<path id="path25_fill" d="M 101.412 43.5405C 100.399 43.2659 99.3565 43.8642 99.0819 44.8766C 98.0475 48.6931 96.0933 51.3954 96.076 51.419C 95.541 52.1445 94.5147 52.2998 93.7892 51.7645L 68.6246 33.2079C 67.9029 32.6757 67.7455 31.658 68.2702 30.933C 68.8225 30.2183 78.9516 17.5029 92.4556 27.4615C 96.5566 30.4859 98.9461 34.0817 99.5571 38.1487C 99.7132 39.1859 100.682 39.9011 101.717 39.7445C 102.754 39.5884 103.469 38.6215 103.313 37.5846C 102.792 34.122 101.288 30.9672 98.8316 28.1575L 100.803 25.3148C 101.71 24.0066 102.053 22.4189 101.769 20.8449C 101.484 19.2707 100.607 17.904 99.2982 16.9968C 97.9897 16.0893 96.4021 15.7466 94.8286 16.0313C 93.2541 16.3161 91.8876 17.1934 90.9802 18.5016L 89.6601 20.4051C 87.778 17.6306 84.982 13.3761 82.3579 8.87129C 79.1702 3.399 73.2384 0 66.8771 0L 36.6352 0C 30.274 0 24.3421 3.399 21.1549 8.87079C 18.5309 13.3756 15.7348 17.6301 13.8528 20.4046L 12.5327 18.5011C 11.6252 17.1929 10.2587 16.3156 8.68423 16.0308C 7.11026 15.7461 5.52261 16.0888 4.21464 16.9963C 2.90642 17.9035 2.02912 19.2702 1.74411 20.8444C 1.45937 22.4187 1.80213 24.0061 2.70958 25.3143L 4.68103 28.1567C -0.105233 33.6363 -0.442676 39.4955 0.30441 43.8001C 1.27899 49.4186 4.25391 53.5021 4.38007 53.6734C 5.44433 55.1161 7.09177 55.8799 8.75998 55.8799C 9.87998 55.8799 11.0093 55.5356 11.9776 54.8212L 19.3864 49.3578L 20.2105 50.5462C 12.33 58.5473 7.45885 69.5203 7.45885 81.6114C 7.45885 81.9813 7.46367 82.3502 7.47253 82.7183C 7.49837 83.7668 8.36047 84.5955 9.41789 84.5699C 10.4664 84.5441 11.2954 83.6733 11.2695 82.6248C 11.2612 82.2879 11.2569 81.9499 11.2569 81.6114C 11.2569 59.2799 29.4248 41.112 51.7563 41.112C 74.0878 41.112 92.2557 59.2799 92.2557 81.6114C 92.2557 103.943 74.0876 122.111 51.756 122.111C 32.7949 122.111 16.5698 109.229 12.2993 90.7847C 12.0627 89.763 11.0413 89.1269 10.0211 89.363C 8.99913 89.5994 8.36275 90.6195 8.59937 91.6415C 10.2455 98.7521 13.68 105.372 18.4886 110.851L 13.0277 120.871C 11.4504 123.765 12.522 127.403 15.4161 128.98C 16.322 129.473 17.3007 129.707 18.2664 129.707C 20.3855 129.707 22.4416 128.579 23.5251 126.591L 27.7495 118.84C 34.8659 123.422 43.2349 125.908 51.756 125.908C 60.5944 125.908 68.8357 123.305 75.7558 118.827L 79.987 126.591C 81.0705 128.58 83.126 129.707 85.2457 129.707C 86.2112 129.707 87.1903 129.473 88.096 128.98C 90.9901 127.402 92.0612 123.765 90.4844 120.871L 88.1659 116.617C 87.664 115.696 86.5109 115.356 85.5897 115.858C 84.6689 116.36 84.3291 117.513 84.831 118.434L 87.1495 122.688C 87.7246 123.743 87.3342 125.07 86.2791 125.645C 85.2237 126.22 83.8972 125.829 83.3224 124.774L 78.8748 116.612C 89.3196 108.502 96.054 95.8289 96.054 81.6112C 96.054 69.5203 91.1829 58.547 83.3024 50.546L 84.1265 49.3576L 91.5352 54.821C 92.504 55.5351 93.6329 55.8797 94.7531 55.8797C 96.4213 55.8797 98.0693 55.1156 99.133 53.6731C 99.2301 53.5416 101.519 50.4041 102.748 45.8701C 103.022 44.8578 102.424 43.8146 101.412 43.5405ZM 20.19 124.774C 19.6151 125.83 18.2884 126.22 17.2333 125.645C 16.1781 125.07 15.7875 123.744 16.3628 122.688L 21.2474 113.725C 22.1298 114.565 24.4174 116.468 24.6276 116.631L 20.19 124.774ZM 95.504 19.768C 96.0796 19.6636 96.6585 19.7878 97.1332 20.1168C 97.608 20.4459 97.9266 20.9445 98.0308 21.5206C 98.1351 22.0964 98.0113 22.675 97.6819 23.1495L 96.0679 25.4767C 95.6319 25.1129 95.183 24.7541 94.7093 24.4045C 93.9713 23.8601 93.2417 23.3775 92.5205 22.9436L 94.1008 20.6653C 94.4296 20.1908 94.9282 19.8719 95.504 19.768ZM 24.4364 10.7819C 26.9459 6.47398 31.6202 3.79775 36.635 3.79775L 66.8769 3.79775C 71.8916 3.79775 76.5659 6.47398 79.0755 10.7819C 81.0591 14.187 83.1379 17.4518 84.8634 20.0669C 80.3563 19.37 76.4752 20.4895 73.5786 21.9262C 68.4455 24.4717 65.3667 28.4756 65.2385 28.6446C 65.233 28.652 65.2274 28.6591 65.2223 28.6664C 63.4444 31.0776 63.9595 34.486 66.3707 36.2639L 74.5007 42.2594L 73.8352 43.2187C 67.8464 39.7612 60.9772 37.6672 53.654 37.3568L 53.654 33.97L 56.7326 33.97C 57.7816 33.97 58.6316 33.1198 58.6316 32.071C 58.6316 31.0222 57.7816 30.172 56.7326 30.172L 46.779 30.172C 45.73 30.172 44.88 31.0222 44.88 32.071C 44.88 33.1198 45.73 33.97 46.779 33.97L 49.856 33.97L 49.856 37.3568C 42.5334 37.6674 35.6647 39.7615 29.6764 43.2187L 29.0108 42.2594L 37.1409 36.2639C 39.5521 34.486 40.0674 31.0776 38.2892 28.6664C 38.2839 28.6591 38.2786 28.6517 38.273 28.6446C 38.1446 28.4754 35.0661 24.4717 29.933 21.9262C 27.0366 20.4898 23.1568 19.3703 18.6504 20.0664C 20.3754 17.4515 22.4535 14.1865 24.4364 10.7819ZM 5.48132 21.5206C 5.58544 20.9445 5.90413 20.4459 6.37888 20.1168C 6.85338 19.7878 7.432 19.6634 8.00808 19.768C 8.58391 19.8724 9.08248 20.1908 9.41156 20.6656L 10.9919 22.9438C 10.2706 23.3778 9.54101 23.8606 8.80305 24.4048C 8.3245 24.7574 7.87432 25.1146 7.44314 25.4749L 5.83067 23.1498C 5.50082 22.6748 5.37669 22.0964 5.48132 21.5206ZM 9.72291 51.7645C 8.99736 52.2998 7.97135 52.1448 7.43858 51.4222C 7.02565 50.8573 -2.51673 37.4711 11.0567 27.4613C 14.8284 24.6802 18.3345 23.6678 21.4442 23.6678C 29.4704 23.6678 34.8449 30.419 35.2419 30.933C 35.7663 31.658 35.6087 32.6754 34.8875 33.2077L 9.72291 51.7645ZM 25.9531 44.5148L 26.4707 45.2609C 25.2757 46.0946 24.1232 46.9853 23.0179 47.93L 22.4441 47.1026L 25.9531 44.5148ZM 80.4944 47.93C 79.3888 46.9856 78.2367 46.0949 77.0417 45.2609L 77.5592 44.5151L 81.0682 47.1026L 80.4944 47.93Z"/>
<path id="path26_fill" fill-rule="evenodd" d="M 10.8535 3.6337C 8.02419 2.22259 4.61523 2.18858 1.44896 2.81546C 0.791729 2.94558 0.153454 2.51827 0.0233309 1.86105C -0.106792 1.20382 0.320513 0.56554 0.977742 0.435417C 4.4232 -0.246738 8.44101 -0.280772 11.9364 1.46251C 15.4967 3.23817 18.3013 6.74977 19.4612 12.702C 19.5893 13.3596 19.1601 13.9966 18.5025 14.1247C 17.8449 14.2529 17.2079 13.8237 17.0797 13.166C 16.036 7.80964 13.618 5.01244 10.8535 3.6337Z"/>
<path id="path27_fill" fill-rule="evenodd" d="M 16.5957 4.38665C 11.9829 2.08604 6.47966 2.05203 1.44896 3.04805C 0.791729 3.17817 0.153454 2.75086 0.0233309 2.09363C -0.106792 1.4364 0.320513 0.798129 0.977743 0.668007C 6.28763 -0.383281 12.3997 -0.41732 17.6786 2.21547C 23.0224 4.88063 27.2998 10.1712 29.081 19.3124C 29.2092 19.97 28.7799 20.607 28.1223 20.7351C 27.4647 20.8632 26.8277 20.434 26.6996 19.7764C 25.0344 11.2311 21.1437 6.65489 16.5957 4.38665Z"/>
<path id="path28_fill" fill-rule="evenodd" d="M 23.7757 5.32814C 16.9328 1.9153 8.81094 1.8813 1.44896 3.33888C 0.791729 3.469 0.153454 3.04169 0.0233309 2.38446C -0.106792 1.72723 0.320513 1.08896 0.977742 0.958836C 8.61891 -0.554014 17.3496 -0.58806 24.8586 3.15696C 32.4325 6.93435 38.5514 14.4494 41.1096 27.5779C 41.2377 28.2356 40.8085 28.8725 40.1509 29.0007C 39.4933 29.1288 38.8563 28.6996 38.7281 28.042C 36.286 15.5093 30.5538 8.70861 23.7757 5.32814Z"/>
<path id="path29_fill" fill-rule="evenodd" d="M 16.5957 4.38665C 11.9829 2.08604 6.47966 2.05203 1.44896 3.04805C 0.791729 3.17817 0.153454 2.75086 0.0233309 2.09363C -0.106792 1.4364 0.320513 0.798129 0.977743 0.668007C 6.28763 -0.383281 12.3997 -0.41732 17.6786 2.21547C 23.0224 4.88063 27.2998 10.1712 29.081 19.3124C 29.2092 19.97 28.7799 20.607 28.1223 20.7351C 27.4647 20.8632 26.8277 20.434 26.6996 19.7764C 25.0344 11.2311 21.1437 6.65489 16.5957 4.38665Z"/>
<path id="path30_fill" d="M 35.4084 70.8168C 54.9325 70.8168 70.8168 54.9327 70.8168 35.4084C 70.8168 15.8841 54.9327 1.51531e-06 35.4084 1.51531e-06C 15.8841 1.51531e-06 1.85548e-07 15.8841 1.85548e-07 35.4084C 1.85548e-07 54.9327 15.8841 70.8168 35.4084 70.8168ZM 35.4084 3.798C 52.8386 3.798 67.0191 17.9784 67.0191 35.4087C 67.0191 52.8389 52.8386 67.0193 35.4084 67.0193C 17.9782 67.0193 3.79775 52.8386 3.79775 35.4084C 3.79775 17.9782 17.9782 3.798 35.4084 3.798Z"/>
<path id="path31_fill" d="M 9.56924 28.2621C 11.5219 28.2621 13.3391 27.6728 14.8543 26.6648L 18.1857 29.9962C 19.275 30.9748 20.5006 30.3668 20.8713 29.9962C 21.6128 29.2547 21.6128 28.0521 20.8713 27.3108L 17.5402 23.9797C 18.549 22.4637 19.1385 20.6463 19.1385 18.6931C 19.1385 14.0667 15.838 10.1973 11.4682 9.31412L 11.4682 1.899C 11.4682 0.850192 10.6183 -1.63901e-06 9.56924 -1.63901e-06C 8.52018 -1.63901e-06 7.67023 0.850192 7.67023 1.899L 7.67023 9.31412C 3.30045 10.1975 7.42193e-07 14.0669 7.42193e-07 18.6931C 7.42193e-07 23.9696 4.29252 28.2621 9.56924 28.2621ZM 9.56924 12.9219C 12.7514 12.9219 15.3405 15.5107 15.3405 18.6928C 15.3405 21.875 12.7514 24.4638 9.56924 24.4638C 6.38709 24.4638 3.798 21.875 3.798 18.6928C 3.79775 15.5107 6.38709 12.9219 9.56924 12.9219Z"/>
</defs>
</svg>
