<svg width="287" height="149" viewBox="0 0 287 149" version="1.1" xmlns="http://www.w3.org/2000/svg" xmlns:xlink="http://www.w3.org/1999/xlink">
<title>Almoco</title>
<desc>Created using Figma</desc>
<g id="Canvas" transform="translate(-18825 -1505)">
<g id="Almoco">
<g id="Rectangle">
<use xlink:href="#path0_fill" transform="translate(18825 1505)" fill="#DCFF2B"/>
</g>
<g id="Group">
<g id="rice">
<g id="Group">
<g id="Vector">
<use xlink:href="#path1_fill" transform="translate(18970.8 1616.55)" fill="#EF8829"/>
</g>
<g id="Vector">
<use xlink:href="#path2_fill" transform="translate(18970.6 1613.06)" fill="#EF8829"/>
</g>
<g id="Group">
<g id="Vector">
<use xlink:href="#path3_fill" transform="translate(18993.9 1592.13)" fill="#FDD44B"/>
</g>
<g id="Vector">
<use xlink:href="#path4_fill" transform="translate(18975 1589.47)" fill="#FDD44B"/>
</g>
<g id="Vector">
<use xlink:href="#path5_fill" transform="translate(18994.2 1592.24)" fill="#FDD44B"/>
</g>
<g id="Vector">
<use xlink:href="#path6_fill" transform="translate(18995.3 1592.72)" fill="#FDD44B"/>
</g>
<g id="Vector">
<use xlink:href="#path7_fill" transform="translate(18995.4 1592.86)" fill="#FDD44B"/>
</g>
</g>
<g id="Group">
<g id="Vector">
<use xlink:href="#path8_fill" transform="translate(18980.3 1608.35)" fill="#84BD93"/>
</g>
<g id="Vector">
<use xlink:href="#path9_fill" transform="translate(18979.3 1608.35)" fill="#84BD93"/>
</g>
<g id="Vector">
<use xlink:href="#path10_fill" transform="translate(18980.1 1608.35)" fill="#84BD93"/>
</g>
</g>
<g id="Vector">
<use xlink:href="#path11_fill" transform="translate(18998 1597.71)" fill="#84BD93"/>
</g>
<g id="Vector">
<use xlink:href="#path12_fill" transform="translate(18972.8 1598.67)" fill="#84BD93"/>
</g>
<g id="Vector">
<use xlink:href="#path13_fill" transform="translate(18997.9 1598.3)" fill="#84BD93"/>
</g>
<g id="Vector">
<use xlink:href="#path14_fill" transform="translate(18970.2 1586.94)" fill="#3F2D20"/>
</g>
<g id="Vector">
<use xlink:href="#path15_fill" transform="translate(18967.5 1611.1)" fill="#3F2D20"/>
</g>
</g>
</g>
<g id="pizza">
<g id="Group">
<g id="Group">
<g id="Vector">
<use xlink:href="#path16_fill" transform="matrix(0.780612 -0.561217 0.555086 0.787077 18940.9 1605.41)" fill="#FDD44B"/>
</g>
<g id="Vector">
<use xlink:href="#path17_fill" transform="matrix(0.780657 -0.561093 0.555168 0.786976 18940.8 1604.92)" fill="#FDD44B"/>
</g>
<g id="Vector">
<use xlink:href="#path18_fill" transform="matrix(0.780614 -0.561211 0.555089 0.787073 18941 1605.89)" fill="#FDD44B"/>
</g>
<g id="Vector">
<use xlink:href="#path19_fill" transform="matrix(0.780694 -0.560993 0.555235 0.786894 18941.1 1606.37)" fill="#FDD44B"/>
</g>
<g id="Vector">
<use xlink:href="#path20_fill" transform="matrix(0.781062 -0.559982 0.55591 0.786062 18941.5 1607.05)" fill="#FDD44B"/>
</g>
<g id="Vector">
<use xlink:href="#path21_fill" transform="matrix(0.780903 -0.560419 0.555619 0.786421 18930 1604.28)" fill="#FDD44B"/>
</g>
<g id="Vector">
<use xlink:href="#path22_fill" transform="matrix(0.781003 -0.560145 0.555802 0.786195 18943.6 1618.79)" fill="#FDD44B"/>
</g>
<g id="Vector">
<use xlink:href="#path23_fill" transform="matrix(0.780854 -0.560555 0.555527 0.786534 18940.9 1603.9)" fill="#FDD44B"/>
</g>
<g id="Vector">
<use xlink:href="#path24_fill" transform="matrix(0.780742 -0.560862 0.555322 0.786786 18940.8 1604.41)" fill="#FDD44B"/>
</g>
<g id="Vector">
<use xlink:href="#path25_fill" transform="matrix(0.780998 -0.560159 0.555793 0.786206 18941 1603.39)" fill="#FDD44B"/>
</g>
<g id="Vector">
<use xlink:href="#path26_fill" transform="matrix(0.781288 -0.559362 0.556331 0.785542 18943.2 1615.56)" fill="#FDD44B"/>
</g>
<g id="Vector">
<use xlink:href="#path27_fill" transform="matrix(0.781643 -0.558382 0.556979 0.784741 18940 1596.55)" fill="#FDD44B"/>
</g>
<g id="Vector">
<use xlink:href="#path28_fill" transform="matrix(0.78188 -0.557728 0.557418 0.784198 18939.4 1596.73)" fill="#FDD44B"/>
</g>
<g id="Vector">
<use xlink:href="#path29_fill" transform="matrix(0.780855 -0.560552 0.555528 0.786533 18943.3 1618.42)" fill="#FDD44B"/>
</g>
<g id="Vector">
<use xlink:href="#path30_fill" transform="matrix(0.780832 -0.560615 0.555487 0.786583 18942.9 1616.32)" fill="#FDD44B"/>
</g>
<g id="Vector">
<use xlink:href="#path31_fill" transform="matrix(0.780612 -0.561218 0.555083 0.78708 18942.9 1617.21)" fill="#FDD44B"/>
</g>
<g id="Vector">
<use xlink:href="#path32_fill" transform="matrix(0.780746 -0.560849 0.555333 0.786773 18942.9 1616.74)" fill="#FDD44B"/>
</g>
<g id="Vector">
<use xlink:href="#path33_fill" transform="matrix(0.7806 -0.561252 0.555061 0.787108 18943 1617.61)" fill="#FDD44B"/>
</g>
</g>
<g id="Group">
<g id="Vector">
<use xlink:href="#path34_fill" transform="matrix(0.78119 -0.55963 0.556145 0.78577 18942.7 1591.53)" fill="#FDD44B"/>
</g>
<g id="Vector">
<use xlink:href="#path35_fill" transform="matrix(0.781308 -0.559305 0.556363 0.785502 18941.5 1591.66)" fill="#FDD44B"/>
</g>
<g id="Vector">
<use xlink:href="#path36_fill" transform="matrix(0.781469 -0.55886 0.556661 0.785134 18940.9 1591.75)" fill="#FDD44B"/>
</g>
<g id="Vector">
<use xlink:href="#path37_fill" transform="matrix(0.7809 -0.560426 0.555614 0.786426 18946.5 1591.68)" fill="#FDD44B"/>
</g>
<g id="Vector">
<use xlink:href="#path38_fill" transform="matrix(0.781609 -0.558474 0.556919 0.784814 18940.4 1591.85)" fill="#FDD44B"/>
</g>
<g id="Vector">
<use xlink:href="#path39_fill" transform="matrix(0.780998 -0.560158 0.555793 0.786205 18944.9 1591.54)" fill="#FDD44B"/>
</g>
<g id="Vector">
<use xlink:href="#path40_fill" transform="matrix(0.783003 -0.554605 0.559504 0.781605 18938.8 1592.52)" fill="#FDD44B"/>
</g>
<g id="Vector">
<use xlink:href="#path41_fill" transform="matrix(0.781097 -0.559884 0.555976 0.785979 18943.4 1591.52)" fill="#FDD44B"/>
</g>
<g id="Vector">
<use xlink:href="#path42_fill" transform="matrix(0.781866 -0.557764 0.557393 0.784227 18938.6 1595.24)" fill="#FDD44B"/>
</g>
<g id="Vector">
<use xlink:href="#path43_fill" transform="matrix(0.781679 -0.558281 0.557047 0.784655 18939.4 1594.99)" fill="#FDD44B"/>
</g>
<g id="Vector">
<use xlink:href="#path44_fill" transform="matrix(0.780746 -0.560849 0.555331 0.786774 18940 1594.05)" fill="#FDD44B"/>
</g>
<g id="Vector">
<use xlink:href="#path45_fill" transform="matrix(0.781792 -0.55797 0.557256 0.784398 18939.9 1591.99)" fill="#FDD44B"/>
</g>
<g id="Vector">
<use xlink:href="#path46_fill" transform="matrix(0.78153 -0.558692 0.556773 0.784995 18940.1 1594.83)" fill="#FDD44B"/>
</g>
<g id="Vector">
<use xlink:href="#path47_fill" transform="matrix(0.782044 -0.557271 0.557723 0.783819 18939.5 1592.14)" fill="#FDD44B"/>
</g>
<g id="Vector">
<use xlink:href="#path48_fill" transform="matrix(0.782416 -0.55624 0.558412 0.782963 18939.2 1592.31)" fill="#FDD44B"/>
</g>
</g>
<g id="Group">
<g id="Vector">
<use xlink:href="#path49_fill" transform="matrix(0.782926 -0.554837 0.559355 0.7818 18945.3 1615.52)" fill="#CE593F"/>
</g>
<g id="Vector">
<use xlink:href="#path50_fill" transform="matrix(0.782207 -0.556838 0.558017 0.783464 18945.5 1615.4)" fill="#CE593F"/>
</g>
<g id="Vector">
<use xlink:href="#path51_fill" transform="matrix(0.782204 -0.556845 0.558012 0.78347 18947.2 1617.91)" fill="#CE593F"/>
</g>
<g id="Vector">
<use xlink:href="#path52_fill" transform="matrix(0.780733 -0.560903 0.555299 0.786822 18944.7 1616.02)" fill="#CE593F"/>
</g>
</g>
<g id="Group">
<g id="Vector">
<use xlink:href="#path53_fill" transform="matrix(0.781216 -0.559552 0.556201 0.785698 18943.4 1606.43)" fill="#EF8829"/>
</g>
<g id="Vector">
<use xlink:href="#path54_fill" transform="matrix(0.780764 -0.560792 0.555367 0.786727 18942.3 1604.07)" fill="#EF8829"/>
</g>
<g id="Vector">
<use xlink:href="#path55_fill" transform="matrix(0.781483 -0.558816 0.556691 0.785093 18943.4 1606.42)" fill="#EF8829"/>
</g>
<g id="Vector">
<use xlink:href="#path56_fill" transform="matrix(0.782326 -0.556481 0.558248 0.783164 18943.9 1606.29)" fill="#EF8829"/>
</g>
<g id="Vector">
<use xlink:href="#path57_fill" transform="matrix(0.782153 -0.556961 0.557929 0.78356 18943.8 1606.34)" fill="#EF8829"/>
</g>
<g id="Vector">
<use xlink:href="#path58_fill" transform="matrix(0.781719 -0.558164 0.557124 0.784558 18943.5 1606.4)" fill="#EF8829"/>
</g>
<g id="Vector">
<use xlink:href="#path59_fill" transform="matrix(0.781955 -0.55751 0.557562 0.784015 18943.6 1606.38)" fill="#EF8829"/>
</g>
</g>
<g id="Vector">
<use xlink:href="#path60_fill" transform="matrix(0.780745 -0.561027 0.555256 0.786958 18954.1 1604.15)" fill="#84BD93"/>
</g>
<g id="Vector">
<use xlink:href="#path61_fill" transform="matrix(0.780991 -0.560355 0.555706 0.786404 18923.2 1602.2)" fill="#3F2D20"/>
</g>
<g id="Vector">
<use xlink:href="#path62_fill" transform="matrix(0.780931 -0.560518 0.555597 0.786538 18941.6 1616.16)" fill="#3F2D20"/>
</g>
<g id="Vector">
<use xlink:href="#path63_fill" transform="matrix(0.780854 -0.560729 0.555456 0.786712 18938.9 1603.53)" fill="#3F2D20"/>
</g>
<g id="Vector">
<use xlink:href="#path64_fill" transform="matrix(0.780822 -0.560818 0.555396 0.786785 18951.3 1603.92)" fill="#3F2D20"/>
</g>
</g>
</g>
<g id="sandwich">
<g id="Group">
<g id="Group">
<g id="Vector">
<use xlink:href="#path65_fill" transform="matrix(0.992276 -0.110512 0.084451 0.994926 18919 1575.52)" fill="#FDD44B"/>
</g>
<g id="Vector">
<use xlink:href="#path66_fill" transform="matrix(0.992246 -0.111575 0.0836558 0.99506 18955.4 1574.49)" fill="#FDD44B"/>
</g>
<g id="Vector">
<use xlink:href="#path67_fill" transform="matrix(0.991944 -0.120621 0.0774375 0.996088 18955.3 1574.97)" fill="#FDD44B"/>
</g>
<g id="Vector">
<use xlink:href="#path68_fill" transform="matrix(0.992026 -0.118388 0.0788854 0.995853 18955.4 1574.76)" fill="#FDD44B"/>
</g>
</g>
<g id="Vector">
<use xlink:href="#path69_fill" transform="matrix(0.992164 -0.118277 0.078388 0.996034 18943.8 1571.72)" fill="#FDD44B"/>
</g>
<g id="Vector">
<use xlink:href="#path70_fill" transform="matrix(0.992169 -0.118167 0.0784601 0.996023 18926.2 1573.17)" fill="#FDD44B"/>
</g>
<g id="Vector">
<use xlink:href="#path71_fill" transform="matrix(0.992166 -0.118246 0.0784083 0.996031 18934.9 1571.96)" fill="#FDD44B"/>
</g>
<g id="Vector">
<use xlink:href="#path72_fill" transform="matrix(0.992239 -0.116424 0.0796257 0.995839 18916.9 1573.07)" fill="#3F2D20"/>
</g>
<g id="Vector">
<use xlink:href="#path73_fill" transform="matrix(0.99267 -0.103178 0.0897376 0.99418 18921.5 1586.42)" fill="#FDD44B"/>
</g>
<g id="Vector">
<use xlink:href="#path74_fill" transform="matrix(0.992777 -0.098655 0.0937961 0.993485 18922.6 1583.83)" fill="#84BD93"/>
</g>
<g id="Vector">
<use xlink:href="#path75_fill" transform="matrix(0.992458 -0.110342 0.0839743 0.995138 18923.9 1580.83)" fill="#CE593F"/>
</g>
<g id="Group">
<g id="Vector">
<use xlink:href="#path76_fill" transform="matrix(0.991908 -0.121596 0.0768169 0.99619 18933.1 1580.77)" fill="#EF8829"/>
</g>
<g id="Vector">
<use xlink:href="#path77_fill" transform="matrix(0.991908 -0.121596 0.0768167 0.99619 18933.1 1579.9)" fill="#EF8829"/>
</g>
<g id="Vector">
<use xlink:href="#path78_fill" transform="matrix(0.992231 -0.112141 0.0832323 0.995133 18934.6 1579.85)" fill="#EF8829"/>
</g>
</g>
<g id="Vector">
<use xlink:href="#path79_fill" transform="matrix(0.992458 -0.110342 0.0839743 0.995138 18945.2 1578.85)" fill="#CE593F"/>
</g>
</g>
</g>
<g id="hamburger">
<g id="Group">
<g id="Vector">
<use xlink:href="#path80_fill" transform="translate(18985.3 1572.37)" fill="#EF8829"/>
</g>
<g id="Vector">
<use xlink:href="#path81_fill" transform="translate(18993.8 1572.37)" fill="#EF8829"/>
</g>
<g id="Vector">
<use xlink:href="#path82_fill" transform="translate(19002.3 1572.37)" fill="#EF8829"/>
</g>
<g id="Vector">
<use xlink:href="#path83_fill" transform="translate(18985.4 1570.46)" fill="#84BD93"/>
</g>
<g id="Group">
<g id="Vector">
<use xlink:href="#path84_fill" transform="translate(19008.5 1575.11)" fill="#CE593F"/>
</g>
<g id="Vector">
<use xlink:href="#path85_fill" transform="translate(19008.7 1575.22)" fill="#CE593F"/>
</g>
<g id="Vector">
<use xlink:href="#path86_fill" transform="translate(19009 1575.52)" fill="#CE593F"/>
</g>
<g id="Vector">
<use xlink:href="#path87_fill" transform="translate(19009.2 1575.76)" fill="#CE593F"/>
</g>
<g id="Vector">
<use xlink:href="#path88_fill" transform="translate(19008.2 1575.04)" fill="#CE593F"/>
</g>
<g id="Vector">
<use xlink:href="#path89_fill" transform="translate(19008.9 1575.35)" fill="#CE593F"/>
</g>
<g id="Vector">
<use xlink:href="#path90_fill" transform="translate(18983.6 1576.56)" fill="#CE593F"/>
</g>
<g id="Vector">
<use xlink:href="#path91_fill" transform="translate(18984.3 1577.48)" fill="#CE593F"/>
</g>
<g id="Vector">
<use xlink:href="#path92_fill" transform="translate(18984.1 1577.33)" fill="#CE593F"/>
</g>
<g id="Vector">
<use xlink:href="#path93_fill" transform="translate(18984.5 1575.83)" fill="#CE593F"/>
</g>
<g id="Vector">
<use xlink:href="#path94_fill" transform="translate(18983.9 1577.18)" fill="#CE593F"/>
</g>
<g id="Vector">
<use xlink:href="#path95_fill" transform="translate(18983.7 1576.79)" fill="#CE593F"/>
</g>
<g id="Vector">
<use xlink:href="#path96_fill" transform="translate(18983.8 1576.99)" fill="#CE593F"/>
</g>
</g>
<g id="Vector">
<use xlink:href="#path97_fill" transform="translate(18983.7 1579.03)" fill="#FDD44B"/>
</g>
<g id="Group">
<g id="Vector">
<use xlink:href="#path98_fill" transform="translate(18982.9 1568.38)" fill="#FDD44B"/>
</g>
<g id="Vector">
<use xlink:href="#path99_fill" transform="translate(19007 1561.39)" fill="#FDD44B"/>
</g>
<g id="Vector">
<use xlink:href="#path100_fill" transform="translate(18982.3 1567.24)" fill="#FDD44B"/>
</g>
<g id="Vector">
<use xlink:href="#path101_fill" transform="translate(18982.3 1567.03)" fill="#FDD44B"/>
</g>
<g id="Vector">
<use xlink:href="#path102_fill" transform="translate(19008.7 1562.68)" fill="#FDD44B"/>
</g>
<g id="Vector">
<use xlink:href="#path103_fill" transform="translate(19009 1563)" fill="#FDD44B"/>
</g>
<g id="Vector">
<use xlink:href="#path104_fill" transform="translate(19007.8 1561.96)" fill="#FDD44B"/>
</g>
<g id="Vector">
<use xlink:href="#path105_fill" transform="translate(18982.4 1567.44)" fill="#FDD44B"/>
</g>
<g id="Vector">
<use xlink:href="#path106_fill" transform="translate(19008.2 1562.27)" fill="#FDD44B"/>
</g>
<g id="Vector">
<use xlink:href="#path107_fill" transform="translate(19007.4 1561.67)" fill="#FDD44B"/>
</g>
<g id="Vector">
<use xlink:href="#path108_fill" transform="translate(18983.2 1568.67)" fill="#FDD44B"/>
</g>
<g id="Vector">
<use xlink:href="#path109_fill" transform="translate(18982.4 1567.67)" fill="#FDD44B"/>
</g>
<g id="Vector">
<use xlink:href="#path110_fill" transform="translate(18983.6 1568.88)" fill="#FDD44B"/>
</g>
<g id="Vector">
<use xlink:href="#path111_fill" transform="translate(18983.7 1559.94)" fill="#FDD44B"/>
</g>
<g id="Vector">
<use xlink:href="#path112_fill" transform="translate(18983.4 1568.78)" fill="#FDD44B"/>
</g>
<g id="Vector">
<use xlink:href="#path113_fill" transform="translate(18982.5 1567.88)" fill="#FDD44B"/>
</g>
<g id="Vector">
<use xlink:href="#path114_fill" transform="translate(18982.6 1568.05)" fill="#FDD44B"/>
</g>
<g id="Vector">
<use xlink:href="#path115_fill" transform="translate(18983.1 1568.55)" fill="#FDD44B"/>
</g>
<g id="Vector">
<use xlink:href="#path116_fill" transform="translate(18982.8 1568.22)" fill="#FDD44B"/>
</g>
</g>
<g id="Vector">
<use xlink:href="#path117_fill" transform="translate(18987.7 1564.92)" fill="#3F2D20"/>
</g>
<g id="Vector">
<use xlink:href="#path118_fill" transform="translate(18995.7 1564.92)" fill="#3F2D20"/>
</g>
<g id="Vector">
<use xlink:href="#path119_fill" transform="translate(19003.8 1564.92)" fill="#3F2D20"/>
</g>
<g id="Vector">
<use xlink:href="#path120_fill" transform="translate(18991.9 1561.35)" fill="#3F2D20"/>
</g>
<g id="Vector">
<use xlink:href="#path121_fill" transform="translate(18999.5 1561.35)" fill="#3F2D20"/>
</g>
<g id="Vector">
<use xlink:href="#path122_fill" transform="translate(18980.9 1557.19)" fill="#3F2D20"/>
</g>
</g>
</g>
<g id="spaghetti">
<g id="Group">
<g id="Vector">
<use xlink:href="#path123_fill" transform="translate(18928.4 1539.06)" fill="#3F2D20"/>
</g>
<g id="Vector">
<use xlink:href="#path124_fill" transform="translate(18968.4 1554.08)" fill="#FDD44B"/>
</g>
<g id="Vector">
<use xlink:href="#path125_fill" transform="translate(18954.9 1547.31)" fill="#FDD44B"/>
</g>
<g id="Vector">
<use xlink:href="#path126_fill" transform="translate(18939 1550.01)" fill="#FDD44B"/>
</g>
<g id="Vector">
<use xlink:href="#path127_fill" transform="translate(18943.1 1554.08)" fill="#FDD44B"/>
</g>
<g id="Group">
<g id="Vector">
<use xlink:href="#path128_fill" transform="translate(18973.5 1551.2)" fill="#FDD44B"/>
</g>
<g id="Vector">
<use xlink:href="#path129_fill" transform="translate(18974.3 1551.91)" fill="#FDD44B"/>
</g>
<g id="Vector">
<use xlink:href="#path130_fill" transform="translate(18973.9 1551.56)" fill="#FDD44B"/>
</g>
<g id="Vector">
<use xlink:href="#path131_fill" transform="translate(18972.6 1550.64)" fill="#FDD44B"/>
</g>
<g id="Vector">
<use xlink:href="#path132_fill" transform="translate(18973.1 1550.9)" fill="#FDD44B"/>
</g>
<g id="Vector">
<use xlink:href="#path133_fill" transform="translate(18972.1 1550.41)" fill="#FDD44B"/>
</g>
<g id="Vector">
<use xlink:href="#path134_fill" transform="translate(18966 1551.04)" fill="#FDD44B"/>
</g>
<g id="Vector">
<use xlink:href="#path135_fill" transform="translate(18970.5 1550.03)" fill="#FDD44B"/>
</g>
<g id="Vector">
<use xlink:href="#path136_fill" transform="translate(18971.6 1550.24)" fill="#FDD44B"/>
</g>
<g id="Vector">
<use xlink:href="#path137_fill" transform="translate(18971.1 1550.11)" fill="#FDD44B"/>
</g>
</g>
<g id="Group">
<g id="Vector">
<use xlink:href="#path138_fill" transform="translate(18949.7 1547.27)" fill="#FDD44B"/>
</g>
<g id="Vector">
<use xlink:href="#path139_fill" transform="translate(18949 1546.91)" fill="#FDD44B"/>
</g>
<g id="Vector">
<use xlink:href="#path140_fill" transform="translate(18948.4 1546.62)" fill="#FDD44B"/>
</g>
<g id="Vector">
<use xlink:href="#path141_fill" transform="translate(18951.4 1548.55)" fill="#FDD44B"/>
</g>
<g id="Vector">
<use xlink:href="#path142_fill" transform="translate(18950.9 1548.11)" fill="#FDD44B"/>
</g>
<g id="Vector">
<use xlink:href="#path143_fill" transform="translate(18950.3 1547.63)" fill="#FDD44B"/>
</g>
<g id="Vector">
<use xlink:href="#path144_fill" transform="translate(18945.4 1545.96)" fill="#FDD44B"/>
</g>
<g id="Vector">
<use xlink:href="#path145_fill" transform="translate(18936 1546.91)" fill="#FDD44B"/>
</g>
<g id="Vector">
<use xlink:href="#path146_fill" transform="translate(18947.6 1546.38)" fill="#FDD44B"/>
</g>
<g id="Vector">
<use xlink:href="#path147_fill" transform="translate(18946.2 1546.05)" fill="#FDD44B"/>
</g>
<g id="Vector">
<use xlink:href="#path148_fill" transform="translate(18946.9 1546.18)" fill="#FDD44B"/>
</g>
</g>
<g id="Group">
<g id="Vector">
<use xlink:href="#path149_fill" transform="translate(18964.3 1544.52)" fill="#FDD44B"/>
</g>
<g id="Vector">
<use xlink:href="#path150_fill" transform="translate(18963.7 1544.21)" fill="#FDD44B"/>
</g>
<g id="Vector">
<use xlink:href="#path151_fill" transform="translate(18964.9 1544.88)" fill="#FDD44B"/>
</g>
<g id="Vector">
<use xlink:href="#path152_fill" transform="translate(18965.4 1545.21)" fill="#FDD44B"/>
</g>
<g id="Vector">
<use xlink:href="#path153_fill" transform="translate(18965.8 1545.58)" fill="#FDD44B"/>
</g>
<g id="Vector">
<use xlink:href="#path154_fill" transform="translate(18966.3 1546.01)" fill="#FDD44B"/>
</g>
<g id="Vector">
<use xlink:href="#path155_fill" transform="translate(18963.2 1543.96)" fill="#FDD44B"/>
</g>
<g id="Vector">
<use xlink:href="#path156_fill" transform="translate(18960.1 1543.26)" fill="#FDD44B"/>
</g>
<g id="Vector">
<use xlink:href="#path157_fill" transform="translate(18962.6 1543.76)" fill="#FDD44B"/>
</g>
<g id="Vector">
<use xlink:href="#path158_fill" transform="translate(18953 1544.29)" fill="#FDD44B"/>
</g>
<g id="Vector">
<use xlink:href="#path159_fill" transform="translate(18952.1 1546.47)" fill="#FDD44B"/>
</g>
<g id="Vector">
<use xlink:href="#path160_fill" transform="translate(18962 1543.57)" fill="#FDD44B"/>
</g>
<g id="Vector">
<use xlink:href="#path161_fill" transform="translate(18961.3 1543.41)" fill="#FDD44B"/>
</g>
<g id="Vector">
<use xlink:href="#path162_fill" transform="translate(18960.7 1543.32)" fill="#FDD44B"/>
</g>
</g>
<g id="Group">
<g id="Vector">
<use xlink:href="#path163_fill" transform="translate(18947.3 1544.14)" fill="#CE593F"/>
</g>
<g id="Vector">
<use xlink:href="#path164_fill" transform="translate(18948 1542.17)" fill="#CE593F"/>
</g>
</g>
<g id="Group">
<g id="Vector">
<use xlink:href="#path165_fill" transform="translate(18959.3 1551.37)" fill="#CE593F"/>
</g>
<g id="Vector">
<use xlink:href="#path166_fill" transform="translate(18961.7 1552.12)" fill="#CE593F"/>
</g>
<g id="Vector">
<use xlink:href="#path167_fill" transform="translate(18962.4 1552.76)" fill="#CE593F"/>
</g>
<g id="Vector">
<use xlink:href="#path168_fill" transform="translate(18962 1552.43)" fill="#CE593F"/>
</g>
<g id="Vector">
<use xlink:href="#path169_fill" transform="translate(18961.2 1551.84)" fill="#CE593F"/>
</g>
<g id="Vector">
<use xlink:href="#path170_fill" transform="translate(18959.9 1551.42)" fill="#CE593F"/>
</g>
<g id="Vector">
<use xlink:href="#path171_fill" transform="translate(18960.8 1551.66)" fill="#CE593F"/>
</g>
<g id="Vector">
<use xlink:href="#path172_fill" transform="translate(18956.5 1552.42)" fill="#CE593F"/>
</g>
<g id="Vector">
<use xlink:href="#path173_fill" transform="translate(18960.4 1551.52)" fill="#CE593F"/>
</g>
</g>
<g id="Group">
<g id="Vector">
<use xlink:href="#path174_fill" transform="translate(18936.3 1563.57)" fill="#84BD93"/>
</g>
<g id="Vector">
<use xlink:href="#path175_fill" transform="translate(18935.9 1563.25)" fill="#84BD93"/>
</g>
<g id="Vector">
<use xlink:href="#path176_fill" transform="translate(18936.7 1563.88)" fill="#84BD93"/>
</g>
<g id="Vector">
<use xlink:href="#path177_fill" transform="translate(18935 1562.37)" fill="#84BD93"/>
</g>
<g id="Vector">
<use xlink:href="#path178_fill" transform="translate(18934.6 1561.96)" fill="#84BD93"/>
</g>
<g id="Vector">
<use xlink:href="#path179_fill" transform="translate(18935.4 1562.78)" fill="#84BD93"/>
</g>
<g id="Vector">
<use xlink:href="#path180_fill" transform="translate(18937 1564.15)" fill="#84BD93"/>
</g>
<g id="Vector">
<use xlink:href="#path181_fill" transform="translate(18978.8 1558.31)" fill="#84BD93"/>
</g>
<g id="Vector">
<use xlink:href="#path182_fill" transform="translate(18978.4 1558.76)" fill="#84BD93"/>
</g>
<g id="Vector">
<use xlink:href="#path183_fill" transform="translate(18937.8 1564.73)" fill="#84BD93"/>
</g>
<g id="Vector">
<use xlink:href="#path184_fill" transform="translate(18979.1 1557.9)" fill="#84BD93"/>
</g>
<g id="Vector">
<use xlink:href="#path185_fill" transform="translate(18938.2 1564.92)" fill="#84BD93"/>
</g>
<g id="Vector">
<use xlink:href="#path186_fill" transform="translate(18933.8 1559.04)" fill="#84BD93"/>
</g>
</g>
</g>
</g>
</g>
</g>
</g>
<defs>
<path id="path0_fill" d="M 0 6C 0 2.68629 2.68629 0 6 0L 281 0C 284.314 0 287 2.68629 287 6L 287 148.384L 0 148.384L 0 6Z"/>
<path id="path1_fill" d="M -2.46498e-08 0.895374L 0.0264531 1.45728L 27.8311 -9.60702e-07L -2.46498e-08 0.895374Z"/>
<path id="path2_fill" d="M 0.026453 -9.85334e-08L 9.08962e-08 0.561801L 27.8664 1.45919L 0.026453 -9.85334e-08Z"/>
<path id="path3_fill" d="M 6.40467e-07 -1.01613e-07C 0.0649791 0.0265361 0.129453 0.0518617 0.194028 0.0754719C 0.129554 0.0519626 0.0647773 0.0263343 6.40467e-07 -1.01613e-07Z"/>
<path id="path4_fill" d="M 21.3338 6.69006C 21.0929 6.37506 20.8197 5.97984 20.667 5.56586C 20.5118 5.14592 20.4946 4.69016 20.4777 4.268C 20.4675 4.0098 20.4563 3.73748 20.4101 3.53296C 20.4332 3.63588 20.4477 3.74838 20.4575 3.87289C 20.0392 3.73516 19.5671 3.57584 19.1745 3.26729C 18.896 3.04855 18.6867 2.7626 18.5071 2.47968C 18.5939 2.52731 18.6825 2.56888 18.7715 2.60823C 18.5601 2.515 18.3518 2.4027 18.1625 2.25387C 17.7819 1.95481 17.5299 1.53245 17.3075 1.15993C 17.3404 1.21512 17.3745 1.27153 17.4089 1.32823C 17.2252 1.31976 16.9999 1.33842 16.7787 1.35709C 16.3169 1.39593 15.7935 1.44013 15.2868 1.28515C 14.8028 1.13693 14.4079 0.813146 14.0595 0.527604C 13.7658 0.286962 13.4622 0.038046 13.2276 0.00414419C 13.023 -0.0265289 12.6759 0.118563 12.3402 0.257903C 11.9068 0.437805 11.4158 0.641619 10.8784 0.641619C 10.3412 0.641619 9.85011 0.437805 9.41686 0.257903C 9.08115 0.118462 8.73433 -0.0261253 8.52917 0.00414419C 8.29473 0.0381469 7.99113 0.286962 7.69742 0.527705C 7.34899 0.813348 6.95391 1.13703 6.47018 1.28515C 5.96313 1.44023 5.43962 1.39614 4.97801 1.35709C 4.61413 1.32642 4.23803 1.29473 4.0572 1.38584C 3.84093 1.49502 3.63577 1.83878 3.43737 2.17124C 3.21505 2.54365 2.96304 2.96581 2.5827 3.26477C 2.1858 3.57645 1.70834 3.73344 1.28691 3.87208C 0.94938 3.98317 0.566518 4.10899 0.445158 4.26518C 0.299262 4.45315 0.283108 4.8634 0.267256 5.26014C 0.250496 5.68229 0.23313 6.19526 0.0782483 6.615C 0.0550262 6.67796 0.0282702 6.57343 -2.09523e-07 6.87612L 21.4173 6.87612C 21.3896 6.57353 21.3617 6.72649 21.3338 6.69006Z"/>
<path id="path5_fill" d="M -7.39001e-07 1.1085e-07C 0.0902023 0.0314804 0.1796 0.0614469 0.266372 0.090102C 0.179801 0.0615478 0.0900005 0.0311777 -7.39001e-07 1.1085e-07Z"/>
<path id="path6_fill" d="M 0.057614 0.103017C 0.0408649 0.0644737 0.0223991 0.028857 -3.44867e-07 1.478e-07C 0.0223991 0.028857 0.0409658 0.0643728 0.057614 0.103017Z"/>
<path id="path7_fill" d="M 0.0328928 0.106346C 0.0234084 0.0684088 0.0124116 0.0329934 1.1085e-06 -3.3255e-07C 0.0124116 0.0330943 0.0235093 0.0683079 0.0328928 0.106346Z"/>
<path id="path8_fill" d="M -2.95798e-07 -2.46335e-07C 0.0414966 -2.46335e-07 -0.0445255 -2.46335e-07 0.258371 -2.46335e-07L 0.258371 0.504493L 10.6578 0.504493L 10.6578 0.030068C 10.6578 0.0353147 2.80987 -2.46335e-07 -2.95798e-07 -2.46335e-07Z"/>
<path id="path9_fill" d="M 0.00218819 -2.44141e-06C 0.00156316 -2.44141e-06 0.000624437 -2.44141e-06 -5.91305e-07 -2.44141e-06C 0.000624437 -2.44141e-06 0.00125065 -2.44141e-06 0.00218819 -2.44141e-06Z"/>
<path id="path10_fill" d="M 0.0812228 -2.44141e-06C 0.0535767 -2.44141e-06 0.0266369 -2.44141e-06 -2.77125e-07 -2.44141e-06C 0.026536 -2.44141e-06 0.0534758 -2.44141e-06 0.0812228 -2.44141e-06Z"/>
<path id="path11_fill" d="M -1.28093e-06 0.499749C 0.0167478 0.334377 0.0307726 0.167895 0.0408624 2.956e-07C 0.0306717 0.167895 0.0168487 0.334377 -1.28093e-06 0.499749Z"/>
<path id="path12_fill" d="M -1.54061e-07 -2.46334e-07C 0.153972 2.62335 1.07448 4.81971 2.47123 6.46808C 3.73674 7.5372 5.2597 8.17276 6.89827 8.17276L 17.3278 8.17276C 21.2193 8.17276 24.4644 4.74222 25.1336 -2.46334e-07L -1.54061e-07 -2.46334e-07L -1.54061e-07 -2.46334e-07Z"/>
<path id="path13_fill" d="M -2.46334e-07 0.403694C 0.0190695 0.270105 0.0352127 0.135304 0.0499439 -3.51025e-07C 0.0351118 0.135304 0.0190695 0.270206 -2.46334e-07 0.403694Z"/>
<path id="path14_fill" d="M 7.54173 21.2168L 7.54173 22.583C 7.54173 23.002 7.88148 23.3415 8.30069 23.3415L 21.0312 23.3415C 21.4504 23.3415 21.7902 23.002 21.7902 22.583L 21.7902 21.2168C 26.0893 20.1447 29.3318 15.527 29.3318 10.0096C 29.3318 9.59066 28.9921 9.25113 28.5729 9.25113L 27.9856 9.25113C 27.8242 8.85511 27.5646 8.51478 27.3392 8.22015C 27.1462 7.96801 26.9641 7.72979 26.8905 7.53041C 26.8185 7.33568 26.8067 7.0349 26.7941 6.71667C 26.7711 6.14084 26.7427 5.42416 26.2987 4.85237C 25.8931 4.32992 25.2762 4.12712 24.7321 3.94802C 24.4149 3.84359 24.0869 3.73583 23.9003 3.58913C 23.7409 3.46391 23.5729 3.18261 23.4106 2.91069C 23.1155 2.41639 22.781 1.8561 22.1714 1.54856C 21.6067 1.26372 20.9862 1.31619 20.4385 1.3623C 20.0977 1.39106 19.7453 1.42062 19.5187 1.3515C 19.3213 1.29107 19.0611 1.07777 18.8094 0.871532C 18.3762 0.516471 17.8853 0.114088 17.2324 0.0196474C 16.6142 -0.0690421 16.0464 0.16595 15.5455 0.3738C 15.2283 0.505473 14.9006 0.641483 14.666 0.641483C 14.4315 0.641483 14.1037 0.505372 13.7867 0.3738C 13.2857 0.165748 12.7178 -0.0700512 12.0993 0.0195465C 11.4465 0.114088 10.9556 0.51637 10.5224 0.871431C 10.2708 1.07767 10.0105 1.29097 9.81325 1.3514C 9.58648 1.42072 9.23391 1.39126 8.89315 1.3622C 8.34562 1.31599 7.72488 1.26352 7.16058 1.54846C 6.55075 1.8561 6.21625 2.41649 5.92113 2.91079C 5.75888 3.18271 5.59107 3.46391 5.43185 3.58892C 5.24516 3.73563 4.91713 3.84339 4.59999 3.94782C 4.05579 4.12681 3.43889 4.32962 3.03341 4.85207C 2.58936 5.42386 2.56089 6.14064 2.53807 6.71667C 2.52535 7.035 2.51344 7.33558 2.44155 7.53031C 2.36795 7.72979 2.1857 7.96801 1.99266 8.22026C 1.7672 8.51488 1.50802 8.85531 1.34658 9.25113L 0.758959 9.25113C 0.33985 9.25113 5.39215e-08 9.59066 5.39215e-08 10.0096C 5.39215e-08 15.527 3.24251 20.1447 7.54173 21.2168ZM 3.19859 9.14146C 3.4397 8.82635 3.71301 8.46917 3.86577 8.05508C 4.02065 7.63535 4.03802 7.19886 4.05478 6.7767C 4.07063 6.37987 4.08679 5.96962 4.23268 5.78175C 4.35404 5.62556 4.7369 5.49974 5.07443 5.38865C 5.49586 5.25011 5.97333 5.09301 6.37022 4.78134C 6.75056 4.48228 7.00247 4.06022 7.2249 3.6878C 7.4233 3.35524 7.62846 3.01148 7.84473 2.90241C 8.02556 2.8112 8.40175 2.84308 8.76553 2.87366C 9.22715 2.9126 9.75055 2.9568 10.2577 2.80161C 10.7414 2.6536 11.1365 2.32981 11.485 2.04427C 11.7788 1.80363 12.0824 1.55471 12.3168 1.52071C 12.522 1.49054 12.8687 1.63503 13.2044 1.77457C 13.6376 1.95437 14.1288 2.15829 14.666 2.15829C 15.2033 2.15829 15.6943 1.95447 16.1277 1.77447C 16.4634 1.63523 16.8104 1.49004 17.0151 1.52071C 17.2497 1.55461 17.5533 1.80343 17.8469 2.04417C 18.1953 2.32981 18.5902 2.6535 19.0743 2.80172C 19.5811 2.9567 20.1044 2.9124 20.5662 2.87366C 20.9301 2.84278 21.3064 2.8111 21.4872 2.90251C 21.7035 3.01158 21.9086 3.35524 22.107 3.6876C 22.3294 4.06012 22.5814 4.48228 22.962 4.78134C 23.3585 5.09291 23.8362 5.25001 24.2574 5.38875C 24.5952 5.49984 24.978 5.62576 25.0994 5.78205C 25.2453 5.96982 25.2615 6.37997 25.2773 6.7767C 25.2942 7.19886 25.3114 7.63545 25.4665 8.05539C 25.6192 8.46927 25.8924 8.82625 26.1333 9.14136C 26.1612 9.17778 26.1891 9.21451 26.2168 9.25103L 3.11509 9.25103C 3.14276 9.21451 3.17072 9.17788 3.19859 9.14146ZM 27.791 10.768C 27.4803 15.8877 24.0511 19.9345 19.8807 19.9345L 9.45119 19.9345C 5.2808 19.9345 1.85171 15.8876 1.54094 10.768L 27.791 10.768ZM 20.2723 21.8245L 9.05964 21.8245L 9.05964 21.4409C 9.18949 21.4473 20.1424 21.4473 20.2723 21.4409L 20.2723 21.8245Z"/>
<path id="path15_fill" d="M 34.0275 1.73506L 0.945263 0.00122704C 0.744341 -0.0103763 0.545944 0.0607568 0.396212 0.196263C 0.24648 0.331769 0.156923 0.521256 0.147533 0.722952L 0.0319276 3.17558C 0.0224369 3.37839 0.0945263 3.57666 0.232546 3.72588C 0.370465 3.87511 0.562401 3.96279 0.765645 3.96935L 10.3271 4.27729L 0.734446 4.58594C 0.531405 4.5925 0.339368 4.68018 0.201449 4.82941C 0.0635299 4.97854 -0.00866054 5.1769 0.000830224 5.37971L 0.116436 7.83234C 0.125927 8.03404 0.215483 8.22352 0.365215 8.35903C 0.505053 8.48556 0.68669 8.55518 0.874486 8.55518C 0.887712 8.55518 0.90104 8.55477 0.914266 8.55407L 33.9964 6.82023C 34.4085 6.79874 34.7278 6.45195 34.7152 6.03978L 34.7458 2.52903C 34.7657 2.11171 34.4446 1.75696 34.0275 1.73506ZM 33.1664 5.06006L 33.1751 5.34409L 1.59669 6.99923L 1.55318 6.07722L 33.1664 5.06006ZM 33.1798 3.49543L 1.58438 2.47798L 1.62789 1.55597L 33.1933 3.21039L 33.1798 3.49543Z"/>
<path id="path16_fill" d="M 3.22207e-07 0.24257C 0.0379134 0.161333 0.0728265 0.0790701 0.115899 7.38178e-07C 0.0727066 0.0790701 0.0379134 0.161447 3.22207e-07 0.24257Z"/>
<path id="path17_fill" d="M -3.00028e-07 0.203352C 0.0429219 0.135302 0.0828467 0.0661126 0.129845 4.87003e-07C 0.0828467 0.0661126 0.0429219 0.135416 -3.00028e-07 0.203352Z"/>
<path id="path18_fill" d="M -2.93992e-08 0.304383C 0.0317906 0.202235 0.0614133 0.0995152 0.101031 6.98951e-07C 0.0612929 0.0995152 0.0317906 0.202349 -2.93992e-08 0.304383Z"/>
<path id="path19_fill" d="M -3.17431e-07 0.512676C 0.0226171 0.338794 0.0564831 0.167901 0.100146 -5.05377e-07C 0.0564831 0.167901 0.0226171 0.338794 -3.17431e-07 0.512676Z"/>
<path id="path20_fill" d="M 3.41797e-06 -7.81452e-07C 3.41797e-06 0.00455633 3.41797e-06 0.00878805 3.41797e-06 0.0133452C 3.41797e-06 0.00867955 3.41797e-06 0.00444783 3.41797e-06 -7.81452e-07Z"/>
<path id="path21_fill" d="M 10.393 5.84042C 10.3468 5.86866 10.306 5.90063 10.2611 5.92977C 10.357 5.86764 10.4496 5.80315 10.5511 5.74509C 11.8983 4.97543 13.5846 4.66267 15.2995 4.86372C 17.0142 5.06489 18.5698 5.75819 19.6796 6.8161C 20.8472 7.92914 21.3906 9.30964 21.2095 10.7032C 21.1078 11.4869 20.7894 12.0668 20.263 12.4267C 19.8198 12.7297 19.2961 12.8386 18.7088 12.8387C 18.0781 12.8387 17.3727 12.7129 16.6146 12.5672C 16.6089 12.9547 16.6989 13.5217 17.0337 14.324C 17.2673 14.7329 18.2933 16.6978 17.3154 18.0869C 16.7878 18.8365 15.8361 19.1453 14.4851 19.214C 14.1175 19.2326 13.4119 19.1444 13.4063 19.1436C 11.5147 18.9144 10.3545 18.2693 9.96067 17.224C 9.36752 15.6506 10.8655 13.9818 11.1966 13.6392C 11.7266 12.9385 11.959 12.4092 12.0528 12.0321C 10.5604 11.9663 9.27137 11.8743 8.54096 11.0525C 8.33357 10.8194 8.21984 10.5454 8.101 10.2334L 8.101 10.2335L 4.45665 17.2896C 4.93701 17.0575 5.47003 16.9344 6.02063 16.9344C 7.09522 16.9344 8.09256 17.3959 8.75286 18.2002C 9.32141 18.8928 9.57335 19.7546 9.45998 20.6264C 9.34672 21.4984 8.88358 22.2761 8.15471 22.8166C 7.54077 23.2719 6.80572 23.5126 6.02812 23.5126C 4.95353 23.5126 3.95857 23.0512 3.29816 22.2467C 2.94365 21.8149 2.72295 21.3243 2.62609 20.8194C 2.62728 20.8256 2.62716 20.8318 2.62835 20.838L 1.66834e-07 25.9144L 28.6589 20.0621C 28.7424 16.7323 26.6081 11.9519 23.0763 7.64958C 20.1014 4.02585 16.5188 1.22576 13.4168 -2.96445e-07L 10.393 5.84042ZM 24.9388 12.6778C 25.363 12.7114 25.7033 13.0246 25.7523 13.4263C 26.1214 16.4603 24.7184 19.2431 21.999 20.8704C 21.8522 20.9582 21.6872 21.001 21.5234 21.001C 21.2849 21.001 21.049 20.9105 20.8753 20.7368L 18.7151 18.576C 18.5305 18.3915 18.4429 18.1382 18.4762 17.8857C 18.5095 17.6332 18.6602 17.4082 18.8867 17.2727C 20.3319 16.408 21.0481 14.9873 20.8518 13.3749C 20.821 13.1221 20.9112 12.8696 21.0974 12.6867C 21.2836 12.5038 21.5457 12.411 21.8131 12.4311L 24.9388 12.6778Z"/>
<path id="path22_fill" d="M 1.56553e-07 8.3646e-07C 0.000733005 0.0170735 0.00012216 0.0340285 0.00109929 0.0511011C 0.00012216 0.0341446 0.000733005 0.0170735 1.56553e-07 8.3646e-07Z"/>
<path id="path23_fill" d="M 0.155952 -5.54446e-08C 0.101459 0.0492809 0.0517449 0.101288 -1.75054e-07 0.152158C 0.0517449 0.101288 0.101339 0.0492809 0.155952 -5.54446e-08Z"/>
<path id="path24_fill" d="M 2.0476e-07 0.174565C 0.0473268 0.116263 0.0922572 0.0567076 0.142819 -2.50205e-07C 0.0920176 0.0567076 0.0473268 0.116263 2.0476e-07 0.174565Z"/>
<path id="path25_fill" d="M 0.171905 1.31323e-07C 0.112299 0.0437114 0.0569843 0.0899139 3.34705e-07 0.135324C 0.0569843 0.0900271 0.112299 0.0437114 0.171905 1.31323e-07Z"/>
<path id="path26_fill" d="M 0.0149362 1.13834e-07C 0.01003 0.00290132 0.00490575 0.00549175 -3.65989e-07 0.00849657C 0.00490575 0.00549175 0.01003 0.00300493 0.0149362 1.13834e-07Z"/>
<path id="path27_fill" d="M -5.333e-07 2.73519e-07C 0.0606903 0.0221829 0.1215 0.0452617 0.182545 0.0685647C 0.1215 0.0452617 0.0606903 0.0220709 -5.333e-07 2.73519e-07Z"/>
<path id="path28_fill" d="M 3.87437e-07 1.19097e-07C 0.0409082 0.0121539 0.0813449 0.0234157 0.122488 0.0362384C 0.0813449 0.0235272 0.0409082 0.0120424 3.87437e-07 1.19097e-07Z"/>
<path id="path29_fill" d="M 6.3207e-08 0.0888058C 0.00219306 0.0591651 0.00414223 0.0295246 0.00706623 -2.68542e-07C 0.00414223 0.0296404 0.00219306 0.0591651 6.3207e-08 0.0888058Z"/>
<path id="path30_fill" d="M 0.083427 -8.3076e-07C 0.0547825 0.0275618 0.0275705 0.0558064 1.89402e-07 0.0840496C 0.0274512 0.0558064 0.0547825 0.0274484 0.083427 -8.3076e-07Z"/>
<path id="path31_fill" d="M -4.77795e-08 0.0747622C 0.0131272 0.0499179 0.0248091 0.0245011 0.0387794 2.23613e-07C 0.0249296 0.0246156 0.0132477 0.0499179 -4.77795e-08 0.0747622Z"/>
<path id="path32_fill" d="M -1.51351e-07 0.06763C 0.01724 0.0446 0.0368423 0.0226927 0.0546729 -3.29127e-07C 0.0367243 0.0228051 0.017358 0.0444876 -1.51351e-07 0.06763Z"/>
<path id="path33_fill" d="M -1.80204e-07 0.0924695C 0.0114482 0.0614172 0.0243427 0.0307078 0.0367551 -7.55316e-07C 0.0243427 0.0308224 0.0115687 0.0613026 -1.80204e-07 0.0924695Z"/>
<path id="path34_fill" d="M 7.51211e-07 -5.48888e-08C 0.193849 0.114773 0.390774 0.235953 0.591013 0.364328C 0.390774 0.236066 0.193849 0.114773 7.51211e-07 -5.48888e-08Z"/>
<path id="path35_fill" d="M -8.65583e-07 -6.84996e-09C 0.350287 0.170477 0.715467 0.366767 1.094 0.589543C 0.715585 0.366879 0.350287 0.170365 -8.65583e-07 -6.84996e-09Z"/>
<path id="path36_fill" d="M -1.00815e-07 9.91253e-08C 0.16317 0.069219 0.331059 0.145942 0.501898 0.227818C 0.331059 0.146054 0.16317 0.069107 -1.00815e-07 9.91253e-08Z"/>
<path id="path37_fill" d="M 2.10257 1.90888C 1.38995 1.2091 0.686476 0.572698 7.54417e-07 -2.75777e-08C 0.686357 0.572585 1.39018 1.20922 2.10257 1.90888Z"/>
<path id="path38_fill" d="M -5.03403e-07 1.67216e-07C 0.14893 0.0544581 0.300925 0.113277 0.457632 0.179476C 0.301043 0.113277 0.14893 0.0543462 -5.03403e-07 1.67216e-07Z"/>
<path id="path39_fill" d="M 3.91085e-07 -9.63471e-08C 0.43417 0.32101 0.878543 0.669869 1.33063 1.0468C 0.878543 0.669982 0.434289 0.32101 3.91085e-07 -9.63471e-08Z"/>
<path id="path40_fill" d="M 1.14228e-07 -8.10609e-08C 0.107261 -8.10609e-08 0.221189 0.0080793 0.338042 0.0198109C 0.221189 0.0080793 0.107261 -8.10609e-08 1.14228e-07 -8.10609e-08Z"/>
<path id="path41_fill" d="M -3.32669e-07 -1.4772e-07C 0.409968 0.263187 0.832616 0.554517 1.26545 0.873876C 0.832616 0.55463 0.40985 0.262962 -3.32669e-07 -1.4772e-07Z"/>
<path id="path42_fill" d="M 8.03667e-07 -7.48718e-08C 0.208561 0.055759 0.419708 0.120551 0.632148 0.189915C 0.41959 0.120551 0.208444 0.055759 8.03667e-07 -7.48718e-08Z"/>
<path id="path43_fill" d="M 0.444859 0.162129C 0.29567 0.104809 0.14754 0.0509517 -2.2998e-07 -5.79686e-08C 0.147423 0.0509517 0.295788 0.105032 0.444859 0.162129Z"/>
<path id="path44_fill" d="M 17.7418 16.8506C 16.7328 13.9695 14.7238 10.6118 12.0849 7.39621C 11.068 6.1571 10.0434 5.04304 9.03554 4.053C 5.9147 1.37934 3.12119 1.45307e-07 1.47242 1.45307e-07C 1.11433 1.45307e-07 0.813357 0.0647326 0.575348 0.192725L 0.0138316 1.27765C 0.0091811 1.2755 0.00465018 1.27368 -3.05677e-07 1.27164C 3.20693 2.74032 6.67023 5.53596 9.62805 9.13991C 13.3296 13.6502 15.5381 18.5545 15.6063 22.2807L 17.8815 21.816C 18.6266 21.0739 18.58 19.244 17.7418 16.8506Z"/>
<path id="path45_fill" d="M 4.73874e-07 4.08699e-08C 0.138693 0.0404 0.281619 0.0868264 0.428311 0.138833C 0.281619 0.0868264 0.138693 0.0404 4.73874e-07 4.08699e-08Z"/>
<path id="path46_fill" d="M 1.43934e-08 -1.29793e-07C 0.160123 0.0646912 0.321307 0.133748 0.483081 0.205379C 0.321307 0.133748 0.160241 0.0646912 1.43934e-08 -1.29793e-07Z"/>
<path id="path47_fill" d="M 3.16074e-07 6.29955e-08C 0.118754 0.0253288 0.241274 0.0559017 0.367207 0.0911611C 0.241274 0.0560133 0.118636 0.0253288 3.16074e-07 6.29955e-08Z"/>
<path id="path48_fill" d="M 8.59784e-07 -5.2603e-08C 0.117273 0.0142343 0.2383 0.0331394 0.364494 0.0587168C 0.2383 0.0331394 0.117273 0.0142343 8.59784e-07 -5.2603e-08Z"/>
<path id="path49_fill" d="M 6.41243e-08 5.12543e-07C 0.077045 5.12543e-07 0.153039 0.00596661 0.227632 0.016353C 0.152806 0.00662957 0.077045 5.12543e-07 6.41243e-08 5.12543e-07Z"/>
<path id="path50_fill" d="M -6.44162e-08 -1.76402e-07C 0.0723532 0.0108935 0.143651 0.0254566 0.213424 0.044465C 0.143651 0.0253454 0.0725877 0.0103377 -6.44162e-08 -1.76402e-07Z"/>
<path id="path51_fill" d="M 0.117736 8.68455e-07C 0.078569 0.00867152 0.039871 0.0186736 4.29446e-08 0.0245652C 0.0399882 0.018896 0.078569 0.00856036 0.117736 8.68455e-07Z"/>
<path id="path52_fill" d="M 2.05999 0.54924C 1.83904 0.279951 1.53971 0.0922214 1.2047 8.58497e-07C 1.00426 0.0560364 0.815286 0.146895 0.645753 0.272691C -0.0845131 0.814558 -0.215033 1.82025 0.354887 2.51491C 0.574766 2.78272 0.872074 2.96954 1.20505 3.06233C 1.40692 3.00641 1.59817 2.91827 1.76877 2.79168C 2.12275 2.5292 2.34788 2.15136 2.40288 1.72791C 2.45788 1.30436 2.33595 0.885794 2.05999 0.54924Z"/>
<path id="path53_fill" d="M 0.0301396 0.0185427C 0.0202099 0.0123246 0.00887809 0.00644057 -1.71122e-07 4.47291e-07C 0.00899491 0.00644057 0.0203268 0.0123246 0.0301396 0.0185427Z"/>
<path id="path54_fill" d="M 8.06145 0.977257C 7.31418 0.487559 6.39707 0.163851 5.40262 0.0470354C 4.07804 -0.108191 2.79302 0.123628 1.78355 0.700457C 0.844521 1.23695 0.265417 2.00991 0.153029 2.87679C 0.150407 2.89673 0.147904 2.91872 0.14552 2.94194C 0.0955829 2.93526 0.047196 2.92801 8.72912e-08 2.92042C 0.48638 2.99916 1.13389 3.02726 1.73564 3.05309C 1.94826 3.06227 2.39484 3.08357 2.39662 3.08369C 2.78956 3.10578 3.13436 3.37306 3.22005 3.7566C 3.45341 4.80363 3.03985 6.02947 1.99081 7.40044C 1.96733 7.43092 1.94195 7.46004 1.91442 7.48735C 1.44496 7.95994 0.834868 8.89005 1.02079 9.37986C 1.16429 9.7575 1.9218 10.0612 3.04807 10.1935C 4.17267 10.325 4.9837 10.2055 5.21932 9.87261C 5.5249 9.44047 5.17105 8.39729 4.83532 7.82828C 4.81661 7.79667 4.79909 7.76188 4.78467 7.72823C 4.11784 6.15614 4.03037 4.87128 4.52449 3.90978C 4.70481 3.55911 5.10503 3.37929 5.4901 3.44626C 5.49368 3.44682 5.93584 3.5301 6.14465 3.57033C 7.14911 3.76464 8.2873 3.98445 8.61862 3.75796C 8.75759 3.66301 8.81443 3.36967 8.83601 3.20322C 8.93576 2.43672 8.66105 1.65742 8.06145 0.977257Z"/>
<path id="path55_fill" d="M 0.0493036 0.0223515C 0.0325144 0.0149385 0.0151341 0.0078619 1.44328e-07 -3.56478e-07C 0.0150158 0.0078619 0.0325144 0.0149385 0.0493036 0.0223515Z"/>
<path id="path56_fill" d="M 0.124426 0.0222057C 0.0815451 0.0152108 0.0401864 0.0077721 -1.57322e-07 -2.7107e-08C 0.0400693 0.00788313 0.0815451 0.0152108 0.124426 0.0222057Z"/>
<path id="path57_fill" d="M 0.104638 0.0230197C 0.0685075 0.01568 0.0334328 0.00811786 2.00476e-07 -2.71502e-07C 0.0334328 0.00811786 0.0686248 0.01568 0.104638 0.0230197Z"/>
<path id="path58_fill" d="M 0.0680672 0.0236399C 0.0446991 0.0159114 0.0213309 0.00829742 7.31423e-08 6.38197e-07C 0.0214508 0.00818376 0.0448189 0.0159114 0.0680672 0.0236399Z"/>
<path id="path59_fill" d="M 0.085387 0.0233401C 0.0559432 0.0158578 0.0272063 0.00815219 2.58783e-07 -1.36323e-07C 0.0270885 0.00815219 0.056061 0.0158578 0.085387 0.0233401Z"/>
<path id="path60_fill" d="M 3.31452 0.645431L 2.49166 0.580455C 2.40912 2.06147 1.74547 3.40856 0.608341 4.41555L -6.99882e-07 3.8067L 0.946734 4.75429C 2.52212 3.58224 3.36875 1.90199 3.34247 -7.62643e-07C 3.34558 0.218437 3.33459 0.43324 3.31452 0.645431Z"/>
<path id="path61_fill" d="M 32.8294 9.65962C 28.0868 3.88191 22.5556 -1.98099e-08 19.0655 -1.98099e-08C 18.2225 -1.98099e-08 17.5025 0.216866 16.9255 0.644728C 16.8192 0.723526 16.7332 0.824226 16.6737 0.939038L 0.0917411 32.9701C -0.0593336 33.262 -0.0216837 33.6103 0.188895 33.8668C 0.36016 34.0754 0.621097 34.1935 0.892722 34.1935C 0.955076 34.1935 1.01791 34.1873 1.08038 34.1745L 37.7997 26.6755C 37.9315 26.6486 38.0551 26.5937 38.1614 26.5149C 41.5945 23.9687 37.9767 15.9302 32.8294 9.65962ZM 16.3806 5.34951C 19.7786 6.13027 24.089 9.24779 27.5664 13.4841C 31.096 17.7841 33.229 22.562 33.1455 25.89L 2.50787 32.147L 16.3806 5.34951ZM 37.1948 25.063L 34.9288 25.5257C 34.8608 21.8152 32.6612 16.9315 28.9743 12.44C 25.3357 8.00756 20.9287 4.80131 17.1837 3.79826L 18.1721 1.88914C 18.4093 1.76157 18.709 1.69722 19.0656 1.69722C 21.532 1.69722 26.5682 4.79081 31.4217 10.7035C 34.0501 13.9056 36.051 17.2493 37.0561 20.1183C 37.8908 22.5018 37.9373 24.324 37.1948 25.063Z"/>
<path id="path62_fill" d="M 3.45926 -8.14032e-07C 2.68132 -8.14032e-07 1.94548 0.240858 1.3309 0.696467C -0.174085 1.81283 -0.443146 3.88505 0.731191 5.31574C 1.39178 6.12082 2.38729 6.58242 3.46247 6.58242C 4.24029 6.58242 4.97602 6.34156 5.59024 5.88607C 6.31943 5.34535 6.78336 4.56705 6.89667 3.69449C 7.00998 2.82204 6.7591 1.95987 6.19031 1.26668C 5.52984 0.461711 4.53444 -8.14032e-07 3.45926 -8.14032e-07ZM 5.12274 3.48618C 5.06804 3.90811 4.84357 4.2846 4.4908 4.54614C 4.19356 4.76665 3.83795 4.88307 3.46247 4.88307C 2.94195 4.88307 2.46006 4.65973 2.14058 4.27036C 1.5725 3.5783 1.70269 2.57609 2.43045 2.03617C 2.72781 1.81565 3.08343 1.69912 3.45926 1.69912C 3.97967 1.69912 4.46144 1.92246 4.78103 2.31184C 5.05616 2.64719 5.17767 3.06425 5.12274 3.48618Z"/>
<path id="path63_fill" d="M 8.58906 7.78142C 9.3487 7.92748 10.0555 8.05361 10.6875 8.05361C 11.2761 8.0535 11.8008 7.94435 12.2449 7.64057C 12.7722 7.27984 13.0913 6.69855 13.1932 5.91312C 13.3747 4.51617 12.8303 3.13235 11.6603 2.01665C 10.5482 0.95631 8.98954 0.261344 7.27138 0.0595802C 5.5531 -0.141958 3.8634 0.171558 2.51345 0.943063C 1.09325 1.75476 0.211181 2.97112 0.0296954 4.36807C -0.0722415 5.15362 0.0885242 5.79118 0.507942 6.2631C 1.23996 7.08691 2.5225 7.17907 4.01798 7.24508C 3.92402 7.62314 3.69121 8.15359 3.16009 8.85614C 2.82832 9.19955 1.32725 10.8723 1.92148 12.4495C 2.31625 13.4974 3.47876 14.144 5.37424 14.3737C 5.37983 14.3745 6.08684 14.463 6.45517 14.4442C 7.80893 14.3753 8.76257 14.0658 9.2913 13.3144C 10.2711 11.9219 9.24307 9.95226 9.00895 9.5425C 8.67349 8.73816 8.58334 8.16989 8.58906 7.78142ZM 7.80262 12.369C 7.56719 12.7015 6.75681 12.821 5.63313 12.6897C 4.50777 12.5574 3.75087 12.254 3.60749 11.8767C 3.42172 11.3873 4.03131 10.4578 4.50051 9.98554C 4.5279 9.95814 4.55326 9.92916 4.57672 9.8987C 5.62491 8.5287 6.03814 7.30373 5.80497 6.25743C 5.71947 5.87406 5.37483 5.60696 4.98233 5.58489C 4.98054 5.58477 4.53433 5.56349 4.32188 5.55432C 3.2987 5.5105 2.13893 5.46091 1.87551 5.1646C 1.76524 5.04051 1.78513 4.74307 1.8068 4.57674C 1.91922 3.71059 2.49774 2.93806 3.43601 2.40195C 4.44466 1.82553 5.72875 1.59387 7.05215 1.74899C 8.3753 1.90433 9.56163 2.42618 10.3925 3.21852C 11.1655 3.95549 11.5292 4.8384 11.4165 5.70456C 11.3949 5.87089 11.338 6.16402 11.1993 6.25891C 10.8682 6.48524 9.73085 6.26559 8.72732 6.07141C 8.51868 6.03121 8.07687 5.94799 8.0733 5.94743C 7.68854 5.88051 7.28877 6.06009 7.10859 6.41051C 6.61487 7.37133 6.70227 8.65517 7.36855 10.2263C 7.38284 10.2599 7.40047 10.2946 7.41917 10.3262C 7.75427 10.8947 8.10795 11.9371 7.80262 12.369Z"/>
<path id="path64_fill" d="M 6.48758 0.250197L 3.35334 0.00270977C 3.08519 -0.017461 2.8224 0.0756871 2.63553 0.25915C 2.44878 0.442613 2.35832 0.695881 2.38931 0.949601C 2.58607 2.56734 1.86791 3.99255 0.418593 4.86C 0.191322 4.99598 0.0403245 5.22172 0.00695481 5.4751C -0.0264149 5.72848 0.0614182 5.98254 0.246501 6.1677L 2.41279 8.33549C 2.58703 8.50988 2.82348 8.60054 3.06266 8.60054C 3.22689 8.60054 3.39243 8.55759 3.53949 8.46954C 6.26651 6.83696 7.67352 4.04513 7.30335 1.00127C 7.25413 0.598199 6.91281 0.283966 6.48758 0.250197ZM 3.18017 6.63027L 2.23557 5.68496C 3.42544 4.67246 4.11905 3.29586 4.20367 1.77955L 5.57052 1.88743C 5.59673 3.78483 4.75188 5.46093 3.18017 6.63027Z"/>
<path id="path65_fill" d="M 36.2914 3.33708C 35.7773 2.70238 34.3338 1.92563 31.4718 1.24645C 30.9997 1.13436 30.5062 1.02921 29.9941 0.93081L 27.0249 3.27832C 26.6263 3.59029 26.1037 3.74602 25.5817 3.74602C 25.0606 3.74602 24.54 3.59079 24.1435 3.28058C 23.5386 2.80712 23.3962 2.10766 23.7135 1.52662C 23.4715 1.08321 23.4722 0.571439 23.792 0.143131L 23.792 0.143215C 23.2589 0.105491 22.764 0.0726086 22.2393 0.0453177L 18.1326 3.27916C 17.7346 3.59046 17.2125 3.74611 16.6909 3.74611C 16.1698 3.74611 15.6489 3.59088 15.2524 3.28058C 14.6473 2.80712 14.505 2.10765 14.8222 1.52654C 14.5526 1.03246 14.616 0.453512 15.0129 -5.09389e-08C 15.0121 0.000834532 15.0112 0.00166897 15.0104 0.00258701C 14.4353 0.0252877 13.8666 0.0538308 13.3066 0.0887164L 9.24027 3.27999C 8.84308 3.59087 8.32146 3.74636 7.80005 3.74636C 7.27885 3.74636 6.75787 3.59113 6.361 3.28066C 5.75611 2.8072 5.69288 2.09288 6.00999 1.51185C 5.92394 1.35411 5.8155 1.17284 5.8155 1.0045C 5.8155 1.0055 5.74203 1.03647 5.74203 1.03747C 5.46544 1.1044 5.11922 1.17392 4.81331 1.24653C 1.95132 1.9258 0.51579 2.70255 0.00173861 3.33716C -0.0319557 3.28567 0.418332 4.29543 1.85876 4.29543L 34.4657 4.16014C 35.3406 4.16014 36.0871 3.75545 36.3815 3.15072C 36.3548 3.20513 36.3252 3.28558 36.2914 3.33708Z"/>
<path id="path66_fill" d="M -1.56228e-06 0.210171C 0.00971557 0.141044 0.015878 0.0711463 0.015878 -3.75563e-07C 0.0157595 0.0711463 0.00983407 0.14114 -1.56228e-06 0.210171Z"/>
<path id="path67_fill" d="M -5.42116e-08 0.162606C 0.0225381 0.109419 0.0420792 0.0552806 0.0589551 3.71667e-07C 0.0420792 0.0550903 0.0226491 0.109514 -5.42116e-08 0.162606Z"/>
<path id="path68_fill" d="M 8.53726e-07 0.157487C 0.0142139 0.105756 0.0252661 0.0532613 0.0341774 6.30311e-07C 0.0251533 0.0531657 0.0143267 0.105851 8.53726e-07 0.157487Z"/>
<path id="path69_fill" d="M 0.127897 2.13607C 0.298228 2.28298 0.575719 2.28288 0.746051 2.13597L 3.0189 0.157037C 2.68104 0.101841 2.33703 0.0494338 1.98753 -1.70143e-07L 0.127681 1.60289C -0.0426507 1.74989 -0.042543 1.98907 0.127897 2.13607Z"/>
<path id="path70_fill" d="M 0.127835 2.33569C 0.298102 2.4824 0.575272 2.48212 0.745862 2.33559L 3.45074 -9.62854e-08C 2.96332 0.0538219 2.48464 0.112933 2.01597 0.177427L 0.127727 1.80331C -0.0426476 1.95003 -0.0425399 2.18888 0.127835 2.33569Z"/>
<path id="path71_fill" d="M 0.127832 2.72563C 0.298383 2.8725 0.575662 2.87222 0.746213 2.72554L 3.8655 0.0214584C 3.47007 0.0110542 3.07183 0.00408751 2.67165 1.24737e-07L 0.127832 2.1927C -0.0426106 2.33956 -0.0426106 2.57867 0.127832 2.72563Z"/>
<path id="path72_fill" d="M 38.5471 12.4664C 38.6611 12.2452 38.7251 12.0013 38.7251 11.7448C 38.7251 10.8559 37.966 10.1159 36.9695 9.9634C 37.0372 9.76955 37.0746 9.56251 37.0746 9.34682C 37.0746 9.13169 37.0366 8.92538 36.9694 8.7318C 38.7637 8.52731 40.1521 7.22057 40.1521 5.64293C 40.1521 3.96724 38.0026 2.52842 33.9361 1.48194C 30.2227 0.526333 25.3004 -9.43868e-08 20.076 -9.43868e-08C 14.8517 -9.43868e-08 9.92956 0.526242 6.21608 1.48194C 2.14949 2.52842 0 3.96724 0 5.64293C 0 7.22057 1.38851 8.52731 3.18265 8.7318C 3.11554 8.92538 3.07749 9.13178 3.07749 9.34682C 3.07749 9.56251 3.11479 9.76955 3.18243 9.9634C 2.18594 10.116 1.4271 10.8558 1.4271 11.7448C 1.4271 12.0014 1.49217 12.2447 1.60644 12.4658C 0.74201 12.86 0.152754 13.6347 0.152754 14.5243C 0.152754 15.812 1.38733 16.8598 2.9048 16.8598L 37.2474 16.8598C 38.7648 16.8598 39.9995 15.812 39.9995 14.5243C 39.9994 13.6354 39.4108 12.861 38.5471 12.4664ZM 37.2474 15.4922L 2.9048 15.4922C 2.27598 15.4922 1.76445 15.058 1.76445 14.5243C 1.76445 13.9906 2.27609 13.5565 2.9048 13.5565L 37.2474 13.5565C 37.8763 13.5565 38.3878 13.9907 38.3878 14.5243C 38.3878 15.0581 37.8763 15.4922 37.2474 15.4922ZM 12.6687 1.7512L 9.97812 4.04074C 9.80843 4.18438 9.53272 4.18465 9.36335 4.04083C 9.19377 3.89692 9.19366 3.66277 9.36314 3.51895L 11.2414 1.92513C 11.7077 1.86191 12.1839 1.80396 12.6687 1.7512ZM 8.4048 2.39815L 8.22364 2.55189C 7.42589 3.22895 7.42589 4.33065 8.22375 5.00781C 8.62263 5.34611 9.14639 5.5154 9.67036 5.5154C 10.1945 5.5154 10.719 5.34593 11.1183 5.00708L 15.2063 1.5286C 16.2894 1.45538 17.4035 1.40662 18.5385 1.38351L 17.1622 2.55189C 16.3644 3.22895 16.3644 4.33065 17.1624 5.00781C 17.5612 5.34602 18.0847 5.51522 18.6086 5.51522C 19.1331 5.51522 19.6579 5.34566 20.058 5.00626L 24.1865 1.48148C 25.1816 1.53761 26.1528 1.61411 27.0929 1.71008L 26.1008 2.55198C 25.3031 3.22904 25.3031 4.33074 26.1009 5.0079C 26.4996 5.34611 27.0229 5.51522 27.5468 5.51522C 28.0716 5.51522 28.597 5.34538 28.9977 5.00535L 31.9828 2.44664C 32.4975 2.55398 32.9937 2.66851 33.4683 2.79067C 37.208 3.75301 38.5404 4.8951 38.5404 5.64293C 38.5404 6.60782 37.6153 7.39286 36.4781 7.39286L 3.67393 7.39286C 2.53679 7.39286 1.61158 6.60782 1.61158 5.64293C 1.61158 4.8951 2.94414 3.75301 6.68388 2.79067C 7.23047 2.65004 7.80526 2.51914 8.4048 2.39815ZM 22.0184 1.3927L 18.9168 4.04065C 18.7472 4.18428 18.4715 4.18456 18.3019 4.04074C 18.1323 3.89683 18.1323 3.66268 18.3019 3.51877L 20.8313 1.3716C 21.2293 1.37569 21.6252 1.38251 22.0184 1.3927ZM 30.1153 2.10342L 27.8553 4.04074C 27.6859 4.18456 27.41 4.18465 27.2406 4.04083C 27.071 3.89692 27.0709 3.66277 27.2404 3.51895L 29.0898 1.94978C 29.4373 1.99808 29.7794 2.04939 30.1153 2.10342ZM 5.10982 8.76045L 13.4521 8.76045C 13.6508 8.76045 13.8728 9.01125 13.8728 9.34682C 13.8728 9.68231 13.6508 9.9331 13.4521 9.9331L 5.10982 9.9331C 4.91118 9.9331 4.68918 9.6824 4.68918 9.34682C 4.68918 9.01125 4.91118 8.76045 5.10982 8.76045ZM 24.6677 9.34682C 24.6677 9.68231 24.4457 9.9331 24.2472 9.9331L 15.9048 9.9331C 15.7062 9.9331 15.4842 9.6824 15.4842 9.34682C 15.4842 9.01125 15.7062 8.76045 15.9048 8.76045L 24.2472 8.76045C 24.4457 8.76045 24.6677 9.01125 24.6677 9.34682ZM 35.0422 9.9331L 26.6999 9.9331C 26.5013 9.9331 26.2793 9.6824 26.2793 9.34682C 26.2793 9.01125 26.5013 8.76045 26.6999 8.76045L 35.0422 8.76045C 35.2408 8.76045 35.4629 9.01125 35.4629 9.34682C 35.4629 9.68231 35.2408 9.9331 35.0422 9.9331ZM 3.56212 11.3007L 36.5901 11.3007C 36.8787 11.3007 37.1135 11.5 37.1135 11.7448C 37.1135 11.9896 36.8786 12.1889 36.5901 12.1889L 3.56212 12.1889C 3.27355 12.1889 3.03879 11.9897 3.03879 11.7448C 3.03879 11.4999 3.27355 11.3007 3.56212 11.3007Z"/>
<path id="path73_fill" d="M 33.6729 -5.48016e-07L 1.1322 -5.48016e-07C 0.507943 -5.48016e-07 3.24768e-08 0.45158 3.24768e-08 0.921919C 3.24768e-08 1.39226 0.507943 1.84384 1.1322 1.84384L 33.6729 1.84384C 34.2973 1.84384 34.8051 1.39226 34.8051 0.921919C 34.8051 0.45158 34.2973 -5.48016e-07 33.6729 -5.48016e-07Z"/>
<path id="path74_fill" d="M 31.7307 -5.23978e-07L 0.519164 -5.23978e-07C 0.232997 -5.23978e-07 1.94719e-07 0.176909 1.94719e-07 0.383252C 1.94719e-07 0.589595 0.232997 0.766504 0.519164 0.766504L 31.7307 0.766504C 32.0171 0.766504 32.2501 0.589595 32.2501 0.383252C 32.2501 0.176909 32.0171 -5.23978e-07 31.7307 -5.23978e-07Z"/>
<path id="path75_fill" d="M 7.1424 -5.86719e-07L 0.41846 -5.86719e-07C 0.220854 -5.86719e-07 -6.50886e-08 0.24135 -6.50886e-08 0.557971C -6.50886e-08 0.874507 0.220854 1.11577 0.41846 1.11577L 7.1424 1.11577C 7.34 1.11577 7.56086 0.874507 7.56086 0.557971C 7.56086 0.24135 7.3399 -5.86719e-07 7.1424 -5.86719e-07Z"/>
<path id="path76_fill" d="M 2.11392e-07 -4.7774e-07C 0.0724079 0.217207 0.236055 0.36164 0.38639 0.36164L 0.386499 0.36164C 0.236056 0.36164 0.0724079 0.217207 2.11392e-07 -4.7774e-07Z"/>
<path id="path77_fill" d="M 0.386502 6.93871e-07C 0.236058 6.93871e-07 0.0724085 0.144528 2.11394e-07 0.361831C 0.0724085 0.144528 0.236058 6.93871e-07 0.386502 6.93871e-07Z"/>
<path id="path78_fill" d="M 7.14593 -5.79314e-07L 0.418667 -5.79314e-07C 0.220963 -5.79314e-07 1.30242e-07 0.238304 1.30242e-07 0.550929C 1.30242e-07 0.86347 0.220963 1.10169 0.418667 1.10169L 7.14593 1.10169C 7.34342 1.10169 7.56449 0.86347 7.56449 0.550929C 7.56439 0.238304 7.34342 -5.79314e-07 7.14593 -5.79314e-07Z"/>
<path id="path79_fill" d="M 7.1424 -5.86719e-07L 0.418458 -5.86719e-07C 0.220852 -5.86719e-07 4.42602e-07 0.24135 4.42602e-07 0.557971C 4.42602e-07 0.874507 0.220852 1.11577 0.418458 1.11577L 7.1424 1.11577C 7.33989 1.11577 7.56086 0.874507 7.56086 0.557971C 7.56086 0.24135 7.33989 -5.86719e-07 7.1424 -5.86719e-07Z"/>
<path id="path80_fill" d="M 4.29325 0.652719C 3.80365 0.288067 3.41688 2.87478e-07 2.58707 2.87478e-07C 1.75727 2.87478e-07 1.3705 0.288067 0.880897 0.652719C 0.629589 0.839896 0.349531 1.04685 1.23698e-07 1.21858C 0.0668333 1.22744 0.134515 1.23347 0.203799 1.23347L 5.20356 1.23347C 4.84027 1.05891 4.55163 0.845171 4.29325 0.652719Z"/>
<path id="path81_fill" d="M 4.322 0.652719C 3.8324 0.288067 3.44563 2.87478e-07 2.61601 2.87478e-07C 1.7864 2.87478e-07 1.39973 0.288067 0.910118 0.652719C 0.651741 0.845171 0.363199 1.05891 -3.10684e-07 1.23347L 5.23212 1.23347C 4.86892 1.05891 4.58029 0.845171 4.322 0.652719Z"/>
<path id="path82_fill" d="M 2.61601 2.87478e-07C 1.7864 2.87478e-07 1.39963 0.288067 0.910119 0.652719C 0.651742 0.845171 0.3632 1.05891 5.17807e-07 1.23347L 4.99863 1.23347C 5.06754 1.23347 5.13512 1.22734 5.20167 1.21858C 4.85252 1.04695 4.57303 0.839707 4.32182 0.652624C 3.8323 0.288066 3.44563 2.87478e-07 2.61601 2.87478e-07Z"/>
<path id="path83_fill" d="M 21.9714 -6.78449e-07L 1.58703 -6.78449e-07C 0.797756 -6.78449e-07 0.145544 0.610422 0.0474148 1.37279C 0.0315785 1.38447 0.0155534 1.40586 -1.78356e-07 1.41744C 0.558325 1.00164 1.25324 0.488809 2.55305 0.488809C 3.85285 0.488809 4.54777 1.0087 5.10619 1.4246C 5.59579 1.78925 5.98256 2.07854 6.81236 2.07854C 7.64198 2.07854 8.02865 1.79104 8.51826 1.42639C 9.07658 1.01049 9.7714 0.493236 11.0711 0.493236C 12.371 0.493236 13.0657 1.01096 13.6242 1.42686C 14.1137 1.79151 14.5003 2.07967 15.3301 2.07967C 16.1597 2.07967 16.5463 1.7917 17.0359 1.42705C 17.5943 1.01115 18.289 0.493613 19.5888 0.493613C 20.8885 0.493613 21.5833 1.01125 22.1417 1.42705C 22.5465 1.72859 22.8816 1.97709 23.4542 2.05443C 23.5002 1.90795 23.5252 1.7332 23.5252 1.57165C 23.5252 0.715456 22.8281 -6.78449e-07 21.9714 -6.78449e-07Z"/>
<path id="path84_fill" d="M -1.01193e-06 9.19932e-08C 0.0292955 0.0114926 0.057462 0.0252462 0.0857223 0.0388112C 0.0572736 0.0252462 0.0293897 0.0115868 -1.01193e-06 9.19932e-08Z"/>
<path id="path85_fill" d="M -1.4029e-06 6.09455e-07C 0.0284473 0.0177104 0.0564259 0.0360784 0.0833675 0.0558606C 0.0563317 0.0359842 0.0286357 0.0177104 -1.4029e-06 6.09455e-07Z"/>
<path id="path86_fill" d="M 1.21891e-06 4.48467e-07C 0.0216675 0.027884 0.0453095 0.0542602 0.0646207 0.0838393C 0.0452153 0.054166 0.0217617 0.027884 1.21891e-06 4.48467e-07Z"/>
<path id="path87_fill" d="M 1.03492e-06 -6.89949e-07C 0.0224209 0.0470998 0.0404121 0.0961788 0.0570857 0.1462C 0.0403179 0.0960846 0.0225151 0.0470998 1.03492e-06 -6.89949e-07Z"/>
<path id="path88_fill" d="M 1.05792e-06 2.29983e-07C 0.0263774 0.00508709 0.0512458 0.013659 0.0770569 0.0202531C 0.0512458 0.0135648 0.0263774 0.00499289 1.05792e-06 2.29983e-07Z"/>
<path id="path89_fill" d="M 0.0763017 0.0714047C 0.0521862 0.0460646 0.0260928 0.0233611 -9.19932e-07 -7.12947e-07C 0.0259044 0.0233611 0.0522804 0.0461588 0.0763017 0.0714047Z"/>
<path id="path90_fill" d="M 0.0204416 0.0772453C 0.0137533 0.0514342 0.00518112 0.026376 6.18079e-08 -2.6448e-07C 0.00518112 0.0264702 0.0137533 0.05134 0.0204416 0.0772453Z"/>
<path id="path91_fill" d="M 0.149591 0.0588763C 0.09844 0.0417317 0.0481369 0.0231741 1.55239e-07 6.43953e-07C 0.0483253 0.0231741 0.0983458 0.0417317 0.149591 0.0588763Z"/>
<path id="path92_fill" d="M 0.0844982 0.0650933C 0.0546365 0.0455937 0.0281661 0.0218541 -5.17462e-08 -5.63459e-07C 0.0281661 0.0219483 0.0546365 0.0454995 0.0844982 0.0650933Z"/>
<path id="path93_fill" d="M 24.7185 0.106165C 24.619 0.0816729 24.5156 -6.78449e-07 24.4087 -6.78449e-07L 1.29707 -6.78449e-07C 0.581891 -6.78449e-07 -2.0137e-08 0.648479 -2.0137e-08 1.36309C -2.0137e-08 1.46991 0.0146109 1.61055 0.0392138 1.70994C 0.139982 1.73518 0.243861 1.78982 0.352359 1.78982L 23.4641 1.78982C 24.1793 1.78982 24.7612 1.17101 24.7612 0.45631C 24.7611 0.347884 24.7436 0.206866 24.7185 0.106165Z"/>
<path id="path94_fill" d="M 1.72487e-08 6.89949e-08C 0.0234561 0.026188 0.0461584 0.0523762 0.0715927 0.0765859C 0.0462526 0.0525646 0.0233619 0.0259996 1.72487e-08 6.89949e-08Z"/>
<path id="path95_fill" d="M 0.0389992 0.0860991C 0.0253401 0.0577446 0.0115868 0.0294856 5.17462e-08 6.43953e-07C 0.0115868 0.0295798 0.0253401 0.0575562 0.0389992 0.0860991Z"/>
<path id="path96_fill" d="M 0.0561438 0.083745C 0.0362674 0.0566151 0.017804 0.0285425 -4.59966e-08 -4.13969e-07C 0.0178982 0.0287309 0.0361732 0.0566151 0.0561438 0.083745Z"/>
<path id="path97_fill" d="M 25.3211 7.58945e-07L 1.6056 7.58945e-07C 0.111797 7.58945e-07 7.47944e-08 0.361827 7.47944e-08 0.995141C 7.47944e-08 2.08608 0.720177 2.92024 1.6056 2.92024L 25.321 2.92024C 26.2062 2.92024 26.9266 2.08608 26.9266 0.995141C 26.9266 0.361827 26.8148 7.58945e-07 25.3211 7.58945e-07Z"/>
<path id="path98_fill" d="M -4.65592e-08 -5.00511e-07C 0.0135401 0.0141118 0.0262221 0.0290827 0.0400483 0.0428136C 0.0261267 0.0290827 0.0135401 0.0141118 -4.65592e-08 -5.00511e-07Z"/>
<path id="path99_fill" d="M -4.59966e-07 -1.3799e-07C 0.0470059 0.0308036 0.0921292 0.0621724 0.138193 0.0932587C 0.0921292 0.0621724 0.0470059 0.0307094 -4.59966e-07 -1.3799e-07Z"/>
<path id="path100_fill" d="M 0.0148838 0.0720645C 0.00951431 0.0481374 0.00452165 0.0241148 7.18697e-10 -6.89949e-07C 0.00452165 0.0241148 0.00951431 0.0481374 0.0148838 0.0720645Z"/>
<path id="path101_fill" d="M 0.00810504 0.0664614C 0.0053398 0.0443395 0.00200243 0.0223123 1.60047e-08 -3.49194e-07C 0.00200243 0.0224077 0.00543515 0.0443395 0.00810504 0.0664614Z"/>
<path id="path102_fill" d="M 0.104469 0.107483C 0.0693325 0.0717812 0.0360787 0.0355139 -3.21976e-07 6.32453e-08C 0.0360787 0.0354197 0.0693325 0.071687 0.104469 0.107483Z"/>
<path id="path103_fill" d="M 8.73936e-07 -7.47445e-08C 0.0439928 0.0478541 0.0856291 0.0963679 0.127831 0.144599C 0.0855349 0.0962737 0.0438986 0.0478541 8.73936e-07 -7.47445e-08Z"/>
<path id="path104_fill" d="M 5.05963e-07 -2.35733e-07C 0.0509633 0.039941 0.101926 0.0798824 0.151476 0.1202C 0.101926 0.0798824 0.0509633 0.039941 5.05963e-07 -2.35733e-07Z"/>
<path id="path105_fill" d="M 0.0192614 0.0658894C 0.0122053 0.0442443 0.00638865 0.0220261 -1.09123e-08 -5.23791e-07C 0.00638865 0.0220261 0.0123006 0.0441489 0.0192614 0.0658894Z"/>
<path id="path106_fill" d="M 1.3799e-06 -9.77428e-08C 0.0440875 0.0381513 0.0894907 0.0758322 0.132541 0.11436C 0.0894907 0.0758322 0.0440875 0.0381513 1.3799e-06 -9.77428e-08Z"/>
<path id="path107_fill" d="M 1.08092e-06 -1.3799e-07C 0.0523769 0.0374919 0.10381 0.075361 0.154961 0.113324C 0.103715 0.075361 0.0523769 0.0374919 1.08092e-06 -1.3799e-07Z"/>
<path id="path108_fill" d="M 0.0727232 0.048513C 0.0481367 0.0326872 0.0238329 0.0167673 2.01235e-08 -5.28961e-07C 0.0238329 0.0167673 0.0482309 0.0326872 0.0727232 0.048513Z"/>
<path id="path109_fill" d="M 0.00958042 0.0251725C 0.00610519 0.0169071 0.00338126 0.00826546 -3.72627e-08 6.87927e-08C 0.00338126 0.00826546 0.00610519 0.0169071 0.00958042 0.0251725Z"/>
<path id="path110_fill" d="M 0.0692378 0.0319344C 0.0456876 0.0221375 0.0231735 0.0105504 -2.87479e-09 -1.3799e-07C 0.0231735 0.0105504 0.0457818 0.0221375 0.0692378 0.0319344Z"/>
<path id="path111_fill" d="M 25.4986 3.30636C 25.14 3.03035 24.7506 2.7649 24.3293 2.51234C 21.6273 0.892178 18.02 -5.17462e-08 14.1719 -5.17462e-08C 10.3237 -5.17462e-08 6.71631 0.892272 4.01433 2.51234C 1.42565 4.06449 7.47944e-08 6.08944 7.47944e-08 8.21415C 7.47944e-08 8.50099 0.0541076 8.71087 0.151859 8.96361C 0.372154 9.03511 0.606495 9.01033 0.850261 9.01033L 24.6591 9.01033C 25.9093 9.01033 26.9265 8.05815 26.9265 6.80857C 26.9266 5.55975 26.4305 4.41059 25.4986 3.30636ZM 5.21977 6.18449C 5.08846 6.31571 4.90512 6.39117 4.71904 6.39117C 4.53297 6.39117 4.35057 6.31571 4.21831 6.18449C 4.08606 6.05223 4.01046 5.87005 4.01046 5.68306C 4.01046 5.4971 4.08606 5.31492 4.21831 5.18266C 4.35057 5.0504 4.53297 4.97495 4.71904 4.97495C 4.90521 4.97495 5.08846 5.0504 5.21977 5.18266C 5.35203 5.31482 5.42763 5.4971 5.42763 5.68306C 5.42763 5.87005 5.35203 6.05223 5.21977 6.18449ZM 9.4477 2.61549C 9.31639 2.74681 9.13399 2.82236 8.94697 2.82236C 8.7608 2.82236 8.57849 2.7469 8.44624 2.61549C 8.31399 2.48342 8.23848 2.30114 8.23848 2.11425C 8.23848 1.9283 8.31399 1.74508 8.44624 1.61385C 8.57765 1.48159 8.76089 1.40614 8.94697 1.40614C 9.13399 1.40614 9.31639 1.48169 9.4477 1.61385C 9.57995 1.74508 9.65555 1.9283 9.65555 2.11425C 9.65555 2.30114 9.57995 2.48333 9.4477 2.61549ZM 13.2562 6.18449C 13.1238 6.31571 12.9406 6.39117 12.7544 6.39117C 12.5683 6.39117 12.386 6.31571 12.2537 6.18449C 12.1214 6.05223 12.0458 5.87005 12.0458 5.68306C 12.0458 5.4971 12.1214 5.31492 12.2537 5.18266C 12.3859 5.0504 12.5683 4.97495 12.7544 4.97495C 12.9406 4.97495 13.1238 5.0504 13.2562 5.18266C 13.3876 5.31482 13.463 5.4971 13.463 5.68306C 13.463 5.87005 13.3876 6.05223 13.2562 6.18449ZM 17.0627 2.61549C 16.9314 2.74681 16.7491 2.82236 16.562 2.82236C 16.3758 2.82236 16.1935 2.7469 16.0612 2.61549C 15.9289 2.48342 15.8534 2.30114 15.8534 2.11425C 15.8534 1.9283 15.9289 1.74508 16.0612 1.61385C 16.1934 1.48159 16.3758 1.40614 16.562 1.40614C 16.7491 1.40614 16.9314 1.48169 17.0627 1.61385C 17.195 1.74508 17.2706 1.9283 17.2706 2.11425C 17.2706 2.30114 17.195 2.48333 17.0627 2.61549ZM 21.2907 6.18449C 21.1593 6.31571 20.977 6.39117 20.7899 6.39117C 20.6038 6.39117 20.4214 6.31571 20.2891 6.18449C 20.1569 6.05223 20.0813 5.87005 20.0813 5.68306C 20.0813 5.4971 20.1569 5.31492 20.2891 5.18266C 20.4214 5.0504 20.6038 4.97495 20.7899 4.97495C 20.977 4.97495 21.1593 5.0504 21.2907 5.18266C 21.4228 5.31482 21.4985 5.4971 21.4985 5.68306C 21.4985 5.87005 21.4228 6.05223 21.2907 6.18449Z"/>
<path id="path112_fill" d="M 0.0767739 0.0429551C 0.0507744 0.0292959 0.0254343 0.0146011 -2.73105e-08 -2.29983e-08C 0.0254343 0.0146011 0.0507744 0.0292959 0.0767739 0.0429551Z"/>
<path id="path113_fill" d="M 0.0342318 0.0595951C 0.0227894 0.0396663 0.010775 0.0202142 5.8199e-08 -6.75108e-07C 0.010775 0.0203096 0.0227894 0.0397616 0.0342318 0.0595951Z"/>
<path id="path114_fill" d="M 0.0446252 0.0655076C 0.0293687 0.0439578 0.0143984 0.0221222 7.27487e-08 2.79355e-07C 0.0144938 0.0221222 0.0294641 0.0438624 0.0446252 0.0655076Z"/>
<path id="path115_fill" d="M 0.062075 0.0487251C 0.0413834 0.0325151 0.0201195 0.016877 -3.63744e-08 -5.23791e-07C 0.0202148 0.0169723 0.041288 0.0325151 0.062075 0.0487251Z"/>
<path id="path116_fill" d="M 0.0491068 0.0613123C 0.0322293 0.0412882 0.01621 0.020596 -1.01848e-08 -2.90995e-07C 0.01621 0.020596 0.0322293 0.0412882 0.0491068 0.0613123Z"/>
<path id="path117_fill" d="M 0.708109 3.33475e-07C 0.522062 3.33475e-07 0.339878 0.075549 0.207713 0.207713C 0.0755493 0.339971 -9.77428e-08 0.522157 -9.77428e-08 0.70811C -9.77428e-08 0.895099 0.0754551 1.07728 0.207713 1.20954C 0.339878 1.34076 0.522156 1.41622 0.708109 1.41622C 0.894062 1.41622 1.07728 1.34076 1.20851 1.20954C 1.34067 1.07728 1.41622 0.895099 1.41622 0.70811C 1.41622 0.522157 1.34067 0.339971 1.20851 0.207713C 1.07719 0.075549 0.894062 3.33475e-07 0.708109 3.33475e-07Z"/>
<path id="path118_fill" d="M 0.708015 3.33475e-07C 0.522062 3.33475e-07 0.339877 0.075549 0.207713 0.207713C 0.0754547 0.339971 -5.05963e-07 0.522157 -5.05963e-07 0.70811C -5.05963e-07 0.895099 0.0755489 1.07728 0.207713 1.20954C 0.339877 1.34076 0.522157 1.41622 0.708015 1.41622C 0.894062 1.41622 1.07719 1.34076 1.20945 1.20954C 1.34076 1.07728 1.41622 0.895099 1.41622 0.70811C 1.41622 0.522157 1.34076 0.339971 1.20945 0.207713C 1.07719 0.075549 0.894062 3.33475e-07 0.708015 3.33475e-07Z"/>
<path id="path119_fill" d="M 0.708109 3.33475e-07C 0.522062 3.33475e-07 0.339877 0.075549 0.207618 0.207713C 0.0755486 0.339971 -1.95486e-07 0.522157 -1.95486e-07 0.70811C -1.95486e-07 0.895099 0.0755486 1.07728 0.207618 1.20954C 0.339877 1.34076 0.522062 1.41622 0.708109 1.41622C 0.895098 1.41622 1.07728 1.34076 1.2085 1.20954C 1.34067 1.07728 1.41622 0.895099 1.41622 0.70811C 1.41622 0.522157 1.34067 0.339971 1.2085 0.207713C 1.07728 0.075549 0.895098 3.33475e-07 0.708109 3.33475e-07Z"/>
<path id="path120_fill" d="M 0.70811 1.83986e-07C 0.522062 1.83986e-07 0.338935 0.0754554 0.207713 0.207714C 0.0755491 0.338936 -3.44975e-07 0.522156 -3.44975e-07 0.708109C -3.44975e-07 0.895098 0.0755491 1.07728 0.207713 1.20945C 0.339877 1.34076 0.522157 1.41622 0.70811 1.41622C 0.895004 1.41622 1.07728 1.34076 1.20851 1.20945C 1.34067 1.07728 1.41622 0.895098 1.41622 0.708109C 1.41622 0.522156 1.34067 0.338936 1.20851 0.207714C 1.07719 0.0755496 0.895004 1.83986e-07 0.70811 1.83986e-07Z"/>
<path id="path121_fill" d="M 0.70811 1.83986e-07C 0.522063 1.83986e-07 0.339878 0.0754554 0.207619 0.207714C 0.0755495 0.338936 -6.66951e-07 0.522156 -6.66951e-07 0.708109C -6.66951e-07 0.895098 0.0755495 1.07728 0.207619 1.20945C 0.339878 1.34076 0.522063 1.41622 0.70811 1.41622C 0.895099 1.41622 1.07728 1.34076 1.20851 1.20945C 1.34067 1.07728 1.41622 0.895098 1.41622 0.708109C 1.41622 0.522156 1.34058 0.338936 1.20851 0.207714C 1.07728 0.0755496 0.895099 1.83986e-07 0.70811 1.83986e-07Z"/>
<path id="path122_fill" d="M 29.4497 20.5592C 29.7085 20.1439 29.8591 19.6547 29.8591 19.1304C 29.8591 18.1973 29.3849 17.3727 28.6649 16.8845C 29.1582 16.3543 29.4609 15.6448 29.4609 14.8655C 29.4609 14.1847 29.2299 13.5572 28.8428 13.056C 30.2089 12.5166 31.1782 11.185 31.1782 9.63046C 31.1782 6.98868 29.5081 4.53248 26.4757 2.71422C 23.5567 0.963959 19.6903 8.48063e-08 15.5892 8.48063e-08C 11.4879 8.48063e-08 7.62152 0.963865 4.70245 2.71422C 1.66998 4.5323 0 6.98849 0 9.63036C 0 11.1849 0.969316 12.5166 2.3353 13.0559C 1.94806 13.5571 1.7173 14.1846 1.7173 14.8654C 1.7173 15.6448 2.02036 16.3541 2.51364 16.8841C 1.79328 17.3724 1.31894 18.197 1.31894 19.1304C 1.31894 19.6547 1.46958 20.1439 1.72842 20.5591C 0.882216 20.7776 0 21.3566 0 22.8913C 0 24.7633 1.35599 26.2861 3.02276 26.2861L 28.1553 26.2861C 29.8221 26.2861 31.1781 24.7632 31.1781 22.8913C 31.1782 21.3564 30.2959 20.7776 29.4497 20.5592ZM 28.1553 24.8698L 3.02276 24.8698C 2.13744 24.8698 1.41716 23.9823 1.41716 22.8913C 1.41716 22.258 1.52896 21.8428 3.02276 21.8428L 28.1553 21.8428C 29.6491 21.8428 29.7609 22.2579 29.7609 22.8913C 29.7609 23.9823 29.0407 24.8698 28.1553 24.8698ZM 26.4899 16.4181L 21.4912 16.4181C 21.8543 16.2435 22.143 16.0297 22.4014 15.8374C 22.8909 15.4727 23.2776 15.1846 24.1073 15.1846C 24.9369 15.1846 25.3235 15.4727 25.8131 15.8374C 26.0643 16.0244 26.3439 16.2316 26.693 16.4033C 26.6264 16.4121 26.5588 16.4181 26.4899 16.4181ZM 12.9736 16.4181C 13.3368 16.2435 13.6254 16.0297 13.8838 15.8374C 14.3733 15.4727 14.76 15.1846 15.5897 15.1846C 16.4193 15.1846 16.806 15.4727 17.2956 15.8374C 17.5539 16.0298 17.8426 16.2436 18.2058 16.4181L 12.9736 16.4181ZM 4.68831 16.4181C 4.61903 16.4181 4.55135 16.412 4.48451 16.4032C 4.83404 16.2315 5.1141 16.0245 5.36541 15.8374C 5.85502 15.4727 6.24178 15.1846 7.07159 15.1846C 7.90139 15.1846 8.28816 15.4727 8.77777 15.8374C 9.03614 16.0298 9.32478 16.2436 9.68798 16.4181L 4.68831 16.4181ZM 27.9726 15.3292C 27.4001 15.252 27.065 15.0034 26.6601 14.7019C 26.1018 14.2861 25.407 13.7684 24.1073 13.7684C 22.8075 13.7684 22.1127 14.286 21.5544 14.7019C 21.0648 15.0665 20.6781 15.3546 19.8485 15.3546C 19.0189 15.3546 18.6322 15.0665 18.1426 14.7019C 17.5842 14.286 16.8895 13.7684 15.5897 13.7684C 14.2899 13.7684 13.5951 14.286 13.0368 14.7019C 12.5472 15.0665 12.1605 15.3546 11.3309 15.3546C 10.5011 15.3546 10.1143 15.0665 9.62473 14.7019C 9.06631 14.286 8.37149 13.7684 7.07159 13.7684C 5.77178 13.7684 5.07687 14.286 4.51845 14.7018C 4.11358 15.0034 3.77829 15.2521 3.20535 15.3292C 3.15935 15.1828 3.13437 15.027 3.13437 14.8654C 3.13437 14.0093 3.83145 13.3128 4.68822 13.3128L 26.4898 13.3128C 27.3464 13.3128 28.0435 14.0093 28.0435 14.8654C 28.0436 15.0269 28.0186 15.1828 27.9726 15.3292ZM 27.4935 11.8965L 3.68468 11.8965C 2.43437 11.8965 1.41716 10.8798 1.41716 9.63027C 1.41716 7.50556 2.84281 5.48062 5.43149 3.92847C 8.13347 2.3084 11.7409 1.41612 15.5891 1.41612C 19.4371 1.41612 23.0444 2.3084 25.7465 3.92847C 28.3353 5.48062 29.7609 7.50556 29.7609 9.63027C 29.7609 10.8798 28.7437 11.8965 27.4935 11.8965ZM 4.03318 17.8344L 27.1448 17.8344C 27.8601 17.8344 28.4419 18.4157 28.4419 19.1304C 28.4419 19.8452 27.8601 20.4267 27.1448 20.4267L 4.03318 20.4267C 3.318 20.4267 2.73611 19.8452 2.73611 19.1304C 2.7362 18.4157 3.318 17.8344 4.03318 17.8344Z"/>
<path id="path123_fill" d="M 52.7135 16.3863L 49.3791 16.3863C 49.2133 12.2811 45.8684 8.98236 41.7433 8.88578C 39.7722 4.74795 35.6282 2.11033 30.9958 2.11033C 29.7888 2.11033 28.6013 2.29539 27.4687 2.64613C 26.3719 1.12832 24.6713 0.163344 22.7687 0.0185429C 22.3411 -0.0137421 21.9115 -0.00385104 21.4929 0.0480797C 18.8339 0.375463 16.7194 2.28014 16.0788 4.81073C 15.382 4.82158 14.6864 4.89 14.0082 5.02038C 8.52205 6.07328 4.51494 10.8252 4.36661 16.3862L 1.0334 16.3862C 0.462602 16.3862 0 16.8485 0 17.4189C 0 18.6683 2.71237 22.1193 4.02594 23.595C 6.07404 25.8957 9.07978 28.6383 11.7682 28.6383L 41.9788 28.6383C 44.6671 28.6383 47.6729 25.8957 49.721 23.595C 51.0346 22.1195 53.7471 18.6683 53.7471 17.4189C 53.7469 16.8486 53.2842 16.3863 52.7135 16.3863ZM 47.9594 22.4639C 45.5846 25.0751 43.4049 26.5729 41.9788 26.5729L 11.7681 26.5729C 10.3421 26.5729 8.16228 25.0751 5.78754 22.4639C 4.40276 20.941 3.32469 19.4542 2.68832 18.4518L 51.0585 18.4518C 50.4221 19.4542 49.3442 20.941 47.9594 22.4639ZM 22.6121 2.07819C 23.7285 2.16309 24.7432 2.66509 25.4778 3.46685C 24.6298 3.91032 23.8312 4.45518 23.1034 5.09923C 22.6993 5.45725 22.3174 5.8466 21.9649 6.25627C 20.7866 5.6114 19.5151 5.17535 18.1893 4.96062C 18.7218 3.4299 20.0753 2.30377 21.7466 2.09783C 22.0302 2.06266 22.3215 2.05593 22.6121 2.07819ZM 47.3111 16.3863L 45.2951 16.3863C 45.1326 14.4678 43.5191 12.956 41.558 12.956C 39.5968 12.956 37.9833 14.4676 37.8208 16.3863L 36.9738 16.3863C 36.9738 16.3762 36.9746 16.3661 36.9746 16.356C 36.9746 15.5074 36.8004 14.6989 36.4864 13.9635C 37.2497 12.5586 39.5113 10.9467 41.558 10.9467C 44.6282 10.9467 47.1449 13.3588 47.3111 16.3863ZM 30.0495 12.3846C 30.3111 12.3318 30.5818 12.305 30.8541 12.305C 33.0893 12.305 34.9078 14.1221 34.9078 16.356C 34.9078 16.3661 34.9071 16.3762 34.907 16.3863L 26.8012 16.3863C 26.8011 16.3762 26.8004 16.3661 26.8004 16.356C 26.8004 14.4336 28.1663 12.7635 30.0495 12.3846ZM 30.8541 10.2394C 30.4444 10.2394 30.0356 10.2801 29.6403 10.36C 28.6538 10.5586 27.7613 10.9921 27.0161 11.5946C 26.8378 11.2221 26.639 10.8594 26.423 10.507C 27.51 9.08457 29.1765 8.25025 30.9957 8.25025C 33.0926 8.25025 34.9936 9.3706 36.0163 11.1864C 35.7354 11.4671 35.4728 11.7675 35.2356 12.0912C 34.1231 10.9501 32.5703 10.2394 30.8541 10.2394ZM 39.9042 16.3863C 40.0539 15.61 40.7381 15.0214 41.5579 15.0214C 42.3778 15.0214 43.0619 15.61 43.2116 16.3863L 39.9042 16.3863ZM 37.6718 9.92028C 36.2523 7.6018 33.747 6.18484 30.9957 6.18484C 28.7235 6.18484 26.6257 7.14102 25.155 8.79579C 24.7102 8.2949 24.2216 7.83302 23.6981 7.41317C 23.9424 7.14335 24.2023 6.88576 24.4741 6.64534C 26.273 5.05266 28.5892 4.17561 30.9958 4.17561C 34.5839 4.17561 37.8169 6.09059 39.5502 9.14612C 38.8914 9.32252 38.26 9.58355 37.6718 9.92028ZM 25.522 13.3606C 25.0186 14.2531 24.7335 15.2782 24.7335 16.356C 24.7335 16.3661 24.7342 16.3762 24.7342 16.3863L 24.0873 16.3863C 23.9192 12.2195 20.4763 8.88125 16.2663 8.88125C 12.0562 8.88125 8.61333 12.2197 8.4452 16.3863L 6.4334 16.3863C 6.58105 11.8142 9.88374 7.91504 14.3984 7.04884C 15.0091 6.93151 15.6377 6.87189 16.2664 6.87189C 20.4539 6.87189 24.1174 9.461 25.522 13.3606ZM 16.2663 12.956C 14.3051 12.956 12.6915 14.4676 12.529 16.3863L 10.5132 16.3863C 10.6794 13.359 13.196 10.9467 16.2663 10.9467C 19.3365 10.9467 21.8531 13.359 22.0193 16.3863L 20.0034 16.3863C 19.8409 14.4676 18.2273 12.956 16.2663 12.956ZM 17.92 16.3863L 14.6126 16.3863C 14.7623 15.61 15.4465 15.0214 16.2664 15.0214C 17.0862 15.0214 17.7702 15.61 17.92 16.3863Z"/>
<path id="path124_fill" d="M 1.65368 4.6957e-07C 0.833782 4.6957e-07 0.149572 0.588548 -2.34942e-07 1.3649L 3.30737 1.3649C 3.15766 0.588548 2.47358 4.6957e-07 1.65368 4.6957e-07Z"/>
<path id="path125_fill" d="M 4.57268 1.17393e-07C 2.75348 1.17393e-07 1.08687 0.834326 -7.21607e-07 2.25679C 0.215972 2.60918 0.414899 2.97187 0.593066 3.34431C 1.33832 2.74189 2.23066 2.30817 3.21732 2.10979C 3.61256 2.02983 4.02127 1.98917 4.43108 1.98917C 6.14731 1.98917 7.70009 2.69985 8.81267 3.84095C 9.04995 3.51727 9.31253 3.21668 9.59339 2.93615C 8.57044 1.12036 6.66958 1.17393e-07 4.57268 1.17393e-07Z"/>
<path id="path126_fill" d="M 9.49015 5.43967L 11.5061 5.43967C 11.3399 2.41231 8.82326 -3.35407e-08 5.75304 -3.35407e-08C 2.68282 -3.35407e-08 0.166207 2.41231 -1.34253e-07 5.43967L 2.01579 5.43967C 2.17828 3.52112 3.79182 2.00936 5.75304 2.00936C 7.71411 2.00936 9.32765 3.52099 9.49015 5.43967Z"/>
<path id="path127_fill" d="M -1.00689e-07 1.3649L 3.30736 1.3649C 3.15779 0.588548 2.47358 4.6957e-07 1.65382 4.6957e-07C 0.833783 4.6957e-07 0.149572 0.588548 -1.00689e-07 1.3649Z"/>
<path id="path128_fill" d="M 9.056e-07 -2.01244e-07C 0.038056 0.0292623 0.0761095 0.0585243 0.113478 0.0887486C 0.0761095 0.0585243 0.0381933 0.0292623 9.056e-07 -2.01244e-07Z"/>
<path id="path129_fill" d="M 1.57641e-06 -4.6957e-07C 0.0281651 0.0311854 0.0577017 0.0614098 0.0851783 0.0932826C 0.0575643 0.0612724 0.0283024 0.0311854 1.57641e-06 -4.6957e-07Z"/>
<path id="path130_fill" d="M 0.100014 0.0978159C 0.066767 0.0651187 0.0342077 0.031736 -6.03733e-07 6.03733e-07C 0.0342077 0.031736 0.066767 0.0651187 0.100014 0.0978159Z"/>
<path id="path131_fill" d="M 1.6435e-06 5.70193e-07C 0.0346221 0.0178603 0.0684164 0.0369554 0.102762 0.0555021C 0.0684164 0.0370928 0.0346221 0.0178603 1.6435e-06 5.70193e-07Z"/>
<path id="path132_fill" d="M 9.056e-07 -1.67704e-08C 0.0250046 0.015799 0.0509683 0.0303622 0.0755598 0.0465734C 0.0508309 0.0303622 0.0250046 0.015799 9.056e-07 -1.67704e-08Z"/>
<path id="path133_fill" d="M 2.01244e-06 -1.03976e-06C 0.0355842 0.0141494 0.071438 0.0280257 0.106745 0.0427257C 0.071438 0.0278883 0.0357216 0.014012 2.01244e-06 -1.03976e-06Z"/>
<path id="path134_fill" d="M 8.59794 1.21295C 7.62256 0.45611 6.3993 1.67704e-08 5.07144 1.67704e-08C 3.02485 1.67704e-08 0.763123 1.60971 9.06205e-07 3.01473C 0.148886 3.36327 0.265187 3.72775 0.347535 4.10582C 0.331038 4.20433 0.317565 4.30338 0.309042 4.40422C 0.471537 2.48567 2.08508 0.982012 4.04629 0.982012C 6.00736 0.982012 7.62091 2.63445 7.7834 4.42043L 9.79933 4.42043C 9.73334 3.32137 9.29246 2.10855 8.59794 1.21295Z"/>
<path id="path135_fill" d="M 1.03976e-06 9.056e-07C 0.0324234 0.00288595 0.0648458 0.00521984 0.0971308 0.00865442C 0.0648458 0.00521984 0.0324234 0.00288595 1.03976e-06 9.056e-07Z"/>
<path id="path136_fill" d="M -1.22223e-06 5.94142e-07C 0.0120973 0.00361624 0.0247541 0.00639624 0.0368525 0.0100119C 0.024615 0.00625718 0.0120973 0.00361624 -1.22223e-06 5.94142e-07Z"/>
<path id="path137_fill" d="M -1.91182e-06 -6.37274e-07C 0.0317335 0.00604421 0.0631945 0.0133261 0.0947926 0.0199205C 0.0630572 0.0133261 0.0317335 0.00604421 -1.91182e-06 -6.37274e-07Z"/>
<path id="path138_fill" d="M 4.528e-07 5.19881e-07C 0.064433 0.0376434 0.127765 0.0769341 0.191373 0.115951C 0.127765 0.0769341 0.0645704 0.0376434 4.528e-07 5.19881e-07Z"/>
<path id="path139_fill" d="M 8.21748e-07 -2.18015e-07C 0.0493213 0.023767 0.0997409 0.0457495 0.148649 0.070341C 0.0996035 0.0458868 0.0494587 0.023767 8.21748e-07 -2.18015e-07Z"/>
<path id="path140_fill" d="M -9.2237e-07 7.21126e-07C 0.0629204 0.024867 0.125294 0.0511055 0.187666 0.0773456C 0.125294 0.0511055 0.0631952 0.024867 -9.2237e-07 7.21126e-07Z"/>
<path id="path141_fill" d="M 0.170493 0.158952C 0.114715 0.104685 0.0570149 0.0528924 1.03976e-06 -3.35407e-08C 0.0568775 0.0528924 0.114715 0.104685 0.170493 0.158952Z"/>
<path id="path142_fill" d="M -4.3603e-07 6.03733e-07C 0.0620966 0.0501453 0.122408 0.102351 0.183268 0.154007C 0.122408 0.102351 0.062234 0.0501453 -4.3603e-07 6.03733e-07Z"/>
<path id="path143_fill" d="M 1.02299e-06 -1.67704e-08C 0.0572897 0.0388793 0.115403 0.0763847 0.17173 0.116638C 0.115403 0.0763847 0.0572897 0.0388793 1.02299e-06 -1.67704e-08Z"/>
<path id="path144_fill" d="M 3.10252e-07 -5.03111e-07C 0.0594871 0.00412098 0.118836 0.00893007 0.178048 0.0140132C 0.118836 0.00879269 0.0596245 0.00412098 3.10252e-07 -5.03111e-07Z"/>
<path id="path145_fill" d="M 17.9682 5.51304C 17.5121 4.24664 16.8145 3.12148 15.9413 2.17532C 14.2366 0.798882 12.0749 1.50933e-07 9.7508 1.50933e-07C 9.12213 1.50933e-07 8.49359 0.0678672 7.88279 0.18533C 3.69326 0.989157 0.549211 4.29665 -1.92988e-07 8.55552L 0.891248 8.55552C 1.05952 4.29665 4.50229 1.05043 8.71232 1.05043C 12.9225 1.05043 16.3653 4.29665 16.5335 8.55552L 17.1803 8.55552C 17.1803 8.55552 17.1797 8.52694 17.1797 8.51678C 17.1797 7.43901 17.4649 6.40548 17.9682 5.51304Z"/>
<path id="path146_fill" d="M 7.37896e-07 -2.18015e-07C 0.0358577 0.0109904 0.0724009 0.0204691 0.107983 0.0318719C 0.0724009 0.0204691 0.0358577 0.0111278 7.37896e-07 -2.18015e-07Z"/>
<path id="path147_fill" d="M 3.22534e-07 1.00155e-06C 0.0184957 0.00278226 0.0372684 0.00445016 0.0556247 0.00737048C 0.0372684 0.00445016 0.0184957 0.00278226 3.22534e-07 1.00155e-06Z"/>
<path id="path148_fill" d="M 1.50933e-07 2.51555e-07C 0.0603112 0.0137385 0.120211 0.0283005 0.18011 0.0431378C 0.120211 0.0283005 0.0603112 0.0137385 1.50933e-07 2.51555e-07Z"/>
<path id="path149_fill" d="M 1.91182e-06 -1.17393e-07C 0.0725401 0.0412147 0.144663 0.0829802 0.216239 0.125981C 0.144663 0.0829802 0.0726774 0.0412147 1.91182e-06 -1.17393e-07Z"/>
<path id="path150_fill" d="M -1.03976e-06 -9.39141e-07C 0.0695147 0.0333831 0.139445 0.0658057 0.208136 0.100701C 0.139307 0.0658057 0.0693773 0.0332457 -1.03976e-06 -9.39141e-07Z"/>
<path id="path151_fill" d="M -1.94536e-06 6.20504e-07C 0.0704755 0.0468482 0.13917 0.0964433 0.208273 0.145077C 0.139032 0.096306 0.0704755 0.0468482 -1.94536e-06 6.20504e-07Z"/>
<path id="path152_fill" d="M 1.60996e-06 3.52178e-07C 0.0719902 0.054404 0.143289 0.109768 0.213903 0.166232C 0.143289 0.109905 0.0719902 0.0545413 1.60996e-06 3.52178e-07Z"/>
<path id="path153_fill" d="M 1.40871e-06 -1.34163e-07C 0.0675938 0.0577007 0.135735 0.114853 0.201816 0.174477C 0.135735 0.114853 0.0677312 0.0577007 1.40871e-06 -1.34163e-07Z"/>
<path id="path154_fill" d="M 0.255255 0.257456C 0.171727 0.169943 0.0865532 0.0842149 1.9789e-06 -8.04978e-07C 0.0865532 0.0842149 0.171589 0.169943 0.255255 0.257456Z"/>
<path id="path155_fill" d="M 5.19881e-07 3.43793e-07C 0.0732256 0.0298124 0.146176 0.0604486 0.218577 0.0919093C 0.146039 0.060586 0.0732256 0.0298124 5.19881e-07 3.43793e-07Z"/>
<path id="path156_fill" d="M 5.03111e-07 -1.76089e-07C 0.0641583 0.00384654 0.127628 0.0101661 0.191373 0.0153866C 0.127628 0.0101661 0.0641583 0.00384654 5.03111e-07 -1.76089e-07Z"/>
<path id="path157_fill" d="M 6.03733e-07 4.94726e-07C 0.0670434 0.0226687 0.133125 0.047809 0.199618 0.071851C 0.133125 0.047809 0.0671808 0.0226687 6.03733e-07 4.94726e-07Z"/>
<path id="path158_fill" d="M 13.7535 2.22423C 12.034 0.813306 9.84813 -7.21126e-07 7.51106 -7.21126e-07C 5.10443 -7.21126e-07 2.78826 0.877051 0.989268 2.46959C 0.728066 2.70081 0.478687 2.94837 0.242643 3.20693C 0.164282 3.12587 0.0805604 3.05017 2.68505e-07 2.97132C 0.196864 3.16379 0.391665 3.35874 0.574368 3.56453C 0.540412 3.5262 0.504395 3.48966 0.469888 3.45188C 0.508931 3.48499 0.549073 3.51686 0.587703 3.55038C 2.05772 1.90454 4.14967 0.953575 6.41525 0.953575C 9.16639 0.953575 11.6717 2.3704 13.0912 4.68902C 13.6794 4.35229 14.3108 4.09126 14.9695 3.915C 14.6221 3.30268 14.2121 2.73859 13.7535 2.22423Z"/>
<path id="path159_fill" d="M 5.19881e-07 -2.01244e-07C 0.234788 0.188352 0.459958 0.388107 0.679771 0.593082C 0.459958 0.387969 0.234788 0.188352 5.19881e-07 -2.01244e-07Z"/>
<path id="path160_fill" d="M -1.03976e-06 9.2237e-08C 0.0244531 0.00659447 0.0490451 0.0127764 0.0734993 0.0196455C 0.0490451 0.0129138 0.0245905 0.00659447 -1.03976e-06 9.2237e-08Z"/>
<path id="path161_fill" d="M -3.52178e-07 2.01244e-07C 0.0644322 0.0120899 0.129277 0.0232177 0.193297 0.0365439C 0.129277 0.0230804 0.0644322 0.0120899 -3.52178e-07 2.01244e-07Z"/>
<path id="path162_fill" d="M 1.67704e-07 -2.01244e-07C 0.0710271 0.0087923 0.14178 0.0182718 0.212395 0.0284381C 0.14178 0.0182718 0.0710271 0.00865492 1.67704e-07 -2.01244e-07Z"/>
<path id="path163_fill" d="M 1.50933e-07 -3.68948e-07C 0.0310487 0.00673139 0.0619591 0.014151 0.0928703 0.0211575C 0.0619591 0.014151 0.0310487 0.00686877 1.50933e-07 -3.68948e-07Z"/>
<path id="path164_fill" d="M 5.74094 0.482826C 5.23297 0.220974 4.67056 0.0577627 4.07873 0.0128386C 3.78811 -0.00941743 3.4968 -0.00268501 3.21333 0.0326224C 1.82745 0.203389 0.661941 1.0079 9.39768e-07 2.14997C 0.850831 2.39025 1.67252 2.72354 2.45282 3.15066C 2.80544 2.74099 3.18721 2.35151 3.59153 1.99362C 4.31918 1.34957 5.11777 0.804713 5.96585 0.361242C 5.89024 0.400533 5.81573 0.441748 5.74094 0.482826Z"/>
<path id="path165_fill" d="M -3.35407e-07 -9.39141e-07C 0.157715 -9.39141e-07 0.312683 0.0112654 0.465727 0.0288504C 0.312546 0.0112654 0.157715 -9.39141e-07 -3.35407e-07 -9.39141e-07Z"/>
<path id="path166_fill" d="M 5.86963e-07 -7.88207e-07C 0.101939 0.0729495 0.200717 0.150023 0.295237 0.231766C 0.20058 0.150023 0.101939 0.0729495 5.86963e-07 -7.88207e-07Z"/>
<path id="path167_fill" d="M -1.50933e-07 -4.19259e-07C 0.0795445 0.0910844 0.154555 0.18588 0.225857 0.283834C 0.154418 0.18588 0.0795445 0.0910844 -1.50933e-07 -4.19259e-07Z"/>
<path id="path168_fill" d="M 0.23726 0.235748C 0.161425 0.153868 0.0822918 0.0754239 -4.86341e-07 7.71437e-07C 0.0821545 0.0754239 0.161425 0.153868 0.23726 0.235748Z"/>
<path id="path169_fill" d="M 2.68326e-07 7.21126e-07C 0.133399 0.0714398 0.262265 0.150296 0.386184 0.235748C 0.262127 0.150296 0.133399 0.0714398 2.68326e-07 7.21126e-07Z"/>
<path id="path170_fill" d="M 3.85718e-07 6.37274e-07C 0.10551 0.015937 0.210059 0.0347576 0.312684 0.0587996C 0.210059 0.0347576 0.105648 0.015937 3.85718e-07 6.37274e-07Z"/>
<path id="path171_fill" d="M -8.21748e-07 3.35407e-08C 0.115126 0.0462981 0.227507 0.0979542 0.337138 0.154281C 0.227507 0.0980915 0.115263 0.0462981 -8.21748e-07 3.35407e-08Z"/>
<path id="path172_fill" d="M 6.15281 0.670979C 5.51246 0.247428 4.7459 6.20504e-07 3.92215 6.20504e-07C 3.64981 6.20504e-07 3.37913 0.0353078 3.11751 0.0882002C 1.5778 0.397999 0.384379 1.67401 6.71263e-08 3.04784L 6.89476 3.04784C 6.8949 3.04784 6.89559 3.01927 6.89559 3.0091C 6.89559 2.14166 6.61899 1.33069 6.15281 0.670979Z"/>
<path id="path173_fill" d="M 1.50933e-07 1.34163e-07C 0.0998775 0.0276141 0.197968 0.0590746 0.294549 0.0938324C 0.197831 0.0590746 0.0998775 0.0276141 1.50933e-07 1.34163e-07Z"/>
<path id="path174_fill" d="M 0.182994 0.155241C 0.122271 0.104272 0.0614103 0.0528904 1.59318e-07 -2.04598e-06C 0.0614103 0.0530277 0.122134 0.104135 0.182994 0.155241Z"/>
<path id="path175_fill" d="M 0.143428 0.12763C 0.0956185 0.0850414 0.0480842 0.0438244 1.97052e-07 -7.71437e-07C 0.0480842 0.0439617 0.0954811 0.0850414 0.143428 0.12763Z"/>
<path id="path176_fill" d="M 0.194397 0.156892C 0.130101 0.106061 0.0651193 0.0531684 -2.18015e-07 1.27455e-06C 0.0651193 0.0531684 0.130101 0.105923 0.194397 0.156892Z"/>
<path id="path177_fill" d="M -1.17393e-07 -1.30809e-06C 0.0478091 0.0484948 0.0956182 0.0965804 0.14329 0.144115C 0.0956182 0.0967178 0.0479465 0.0484948 -1.17393e-07 -1.30809e-06Z"/>
<path id="path178_fill" d="M 0.127354 0.132988C 0.0849026 0.088751 0.0425884 0.0450608 -2.38978e-07 -7.71437e-07C 0.0425884 0.0450608 0.0849026 0.088751 0.127354 0.132988Z"/>
<path id="path179_fill" d="M 0.132025 0.127766C 0.0881996 0.0861387 0.0439626 0.0425894 4.61185e-08 6.70815e-07C 0.0439626 0.0425894 0.0881996 0.0860013 0.132025 0.127766Z"/>
<path id="path180_fill" d="M 0.74283 0.531673C 0.501997 0.373408 0.254021 0.195494 2.38978e-07 -1.77766e-06C 0.254159 0.195769 0.50186 0.373134 0.74283 0.531673Z"/>
<path id="path181_fill" d="M 7.04355e-07 0.282872C 0.0680052 0.187391 0.136969 0.0913592 0.20044 -3.68948e-07C 0.136832 0.0914966 0.0680052 0.187528 7.04355e-07 0.282872Z"/>
<path id="path182_fill" d="M 1.37517e-06 0.307188C 0.0769358 0.203464 0.154008 0.100015 0.226271 7.54666e-07C 0.154008 0.0998781 0.0767984 0.203601 1.37517e-06 0.307188Z"/>
<path id="path183_fill" d="M 0.235612 0.146861C 0.157853 0.100013 0.0794072 0.0511048 -7.54666e-08 -1.6435e-06C 0.0794072 0.0512422 0.157853 0.100013 0.235612 0.146861Z"/>
<path id="path184_fill" d="M 2.04598e-06 0.203051C 0.0460253 0.135322 0.0947959 0.0649821 0.137934 1.67704e-08C 0.0947959 0.0649821 0.0461627 0.135184 2.04598e-06 0.203051Z"/>
<path id="path185_fill" d="M 1.0224 0.497189C 0.702026 0.379177 0.36008 0.212396 -5.86963e-08 1.87828e-06C 0.360218 0.212808 0.702026 0.379177 1.0224 0.497189Z"/>
<path id="path186_fill" d="M -4.61493e-08 -6.87585e-07C 0.63637 1.09906 1.71445 2.57126 3.09923 4.09401C 3.88668 4.95993 4.652 5.67171 5.37608 6.27867C 5.74658 6.41317 6.08971 6.45699 6.39614 6.45699L 36.6069 6.45699C 38.0329 6.45699 40.2127 4.94784 42.5874 2.33647C 43.3225 1.52811 43.9677 0.686913 44.5097 -6.87585e-07L -4.61493e-08 -6.87585e-07L -4.61493e-08 -6.87585e-07Z"/>
</defs>
</svg>
