<svg width="196" height="186" viewBox="0 0 196 186" version="1.1" xmlns="http://www.w3.org/2000/svg" xmlns:xlink="http://www.w3.org/1999/xlink">
<title>Group</title>
<desc>Created using Figma</desc>
<g id="Canvas" transform="translate(-17164 -493)">
<g id="Group">
<g id="Ellipse">
<use xlink:href="#path0_fill" transform="translate(17184.6 509.683)" fill="#DCFF2B"/>
</g>
<g id="rice">
<g id="Group">
<g id="Vector">
<use xlink:href="#path1_fill" transform="translate(17274.8 652.339)" fill="#EF8829"/>
</g>
<g id="Vector">
<use xlink:href="#path2_fill" transform="translate(17274.5 645.176)" fill="#EF8829"/>
</g>
<g id="Group">
<g id="Vector">
<use xlink:href="#path3_fill" transform="translate(17322.3 602.206)" fill="#FDD44B"/>
</g>
<g id="Vector">
<use xlink:href="#path4_fill" transform="translate(17283.6 596.755)" fill="#FDD44B"/>
</g>
<g id="Vector">
<use xlink:href="#path5_fill" transform="translate(17322.9 602.442)" fill="#FDD44B"/>
</g>
<g id="Vector">
<use xlink:href="#path6_fill" transform="translate(17325.2 603.434)" fill="#FDD44B"/>
</g>
<g id="Vector">
<use xlink:href="#path7_fill" transform="translate(17325.4 603.712)" fill="#FDD44B"/>
</g>
</g>
<g id="Group">
<g id="Vector">
<use xlink:href="#path8_fill" transform="translate(17294.4 635.513)" fill="#84BD93"/>
</g>
<g id="Vector">
<use xlink:href="#path9_fill" transform="translate(17292.4 635.512)" fill="#84BD93"/>
</g>
<g id="Vector">
<use xlink:href="#path10_fill" transform="translate(17294 635.513)" fill="#84BD93"/>
</g>
</g>
<g id="Vector">
<use xlink:href="#path11_fill" transform="translate(17330.7 613.668)" fill="#84BD93"/>
</g>
<g id="Vector">
<use xlink:href="#path12_fill" transform="translate(17279 615.631)" fill="#84BD93"/>
</g>
<g id="Vector">
<use xlink:href="#path13_fill" transform="translate(17330.5 614.878)" fill="#84BD93"/>
</g>
<g id="Vector">
<use xlink:href="#path14_fill" transform="translate(17273.7 591.567)" fill="#3F2D20"/>
</g>
<g id="Vector">
<use xlink:href="#path15_fill" transform="translate(17268.2 641.143)" fill="#3F2D20"/>
</g>
</g>
</g>
<g id="pizza">
<g id="Group">
<g id="Group">
<g id="Vector">
<use xlink:href="#path16_fill" transform="matrix(0.816627 -0.577165 0.577165 0.816627 17213.5 629.467)" fill="#FDD44B"/>
</g>
<g id="Vector">
<use xlink:href="#path17_fill" transform="matrix(0.816627 -0.577165 0.577165 0.816627 17213.4 628.453)" fill="#FDD44B"/>
</g>
<g id="Vector">
<use xlink:href="#path18_fill" transform="matrix(0.816627 -0.577165 0.577165 0.816627 17213.8 630.456)" fill="#FDD44B"/>
</g>
<g id="Vector">
<use xlink:href="#path19_fill" transform="matrix(0.816627 -0.577165 0.577165 0.816627 17214.1 631.433)" fill="#FDD44B"/>
</g>
<g id="Vector">
<use xlink:href="#path20_fill" transform="matrix(0.816627 -0.577165 0.577165 0.816627 17214.9 632.846)" fill="#FDD44B"/>
</g>
<g id="Vector">
<use xlink:href="#path21_fill" transform="matrix(0.816627 -0.577165 0.577165 0.816627 17191.2 626.074)" fill="#FDD44B"/>
</g>
<g id="Vector">
<use xlink:href="#path22_fill" transform="matrix(0.816627 -0.577165 0.577165 0.816627 17219.1 656.926)" fill="#FDD44B"/>
</g>
<g id="Vector">
<use xlink:href="#path23_fill" transform="matrix(0.816627 -0.577165 0.577165 0.816627 17213.6 626.376)" fill="#FDD44B"/>
</g>
<g id="Vector">
<use xlink:href="#path24_fill" transform="matrix(0.816627 -0.577165 0.577165 0.816627 17213.4 627.421)" fill="#FDD44B"/>
</g>
<g id="Vector">
<use xlink:href="#path25_fill" transform="matrix(0.816627 -0.577165 0.577165 0.816627 17213.8 625.325)" fill="#FDD44B"/>
</g>
<g id="Vector">
<use xlink:href="#path26_fill" transform="matrix(0.816627 -0.577165 0.577165 0.816627 17218.2 650.314)" fill="#FDD44B"/>
</g>
<g id="Vector">
<use xlink:href="#path27_fill" transform="matrix(0.816627 -0.577165 0.577165 0.816627 17211.7 611.29)" fill="#FDD44B"/>
</g>
<g id="Vector">
<use xlink:href="#path28_fill" transform="matrix(0.816627 -0.577165 0.577165 0.816627 17210.4 611.661)" fill="#FDD44B"/>
</g>
<g id="Vector">
<use xlink:href="#path29_fill" transform="matrix(0.816627 -0.577165 0.577165 0.816627 17218.6 656.183)" fill="#FDD44B"/>
</g>
<g id="Vector">
<use xlink:href="#path30_fill" transform="matrix(0.816627 -0.577165 0.577165 0.816627 17217.7 651.858)" fill="#FDD44B"/>
</g>
<g id="Vector">
<use xlink:href="#path31_fill" transform="matrix(0.816627 -0.577165 0.577165 0.816627 17217.7 653.697)" fill="#FDD44B"/>
</g>
<g id="Vector">
<use xlink:href="#path32_fill" transform="matrix(0.816627 -0.577165 0.577165 0.816627 17217.6 652.728)" fill="#FDD44B"/>
</g>
<g id="Vector">
<use xlink:href="#path33_fill" transform="matrix(0.816627 -0.577165 0.577165 0.816627 17217.9 654.52)" fill="#FDD44B"/>
</g>
</g>
<g id="Group">
<g id="Vector">
<use xlink:href="#path34_fill" transform="matrix(0.816627 -0.577165 0.577165 0.816627 17217.3 600.971)" fill="#FDD44B"/>
</g>
<g id="Vector">
<use xlink:href="#path35_fill" transform="matrix(0.816627 -0.577165 0.577165 0.816627 17214.8 601.218)" fill="#FDD44B"/>
</g>
<g id="Vector">
<use xlink:href="#path36_fill" transform="matrix(0.816627 -0.577165 0.577165 0.816627 17213.5 601.422)" fill="#FDD44B"/>
</g>
<g id="Vector">
<use xlink:href="#path37_fill" transform="matrix(0.816627 -0.577165 0.577165 0.816627 17225.1 601.216)" fill="#FDD44B"/>
</g>
<g id="Vector">
<use xlink:href="#path38_fill" transform="matrix(0.816627 -0.577165 0.577165 0.816627 17212.6 601.639)" fill="#FDD44B"/>
</g>
<g id="Vector">
<use xlink:href="#path39_fill" transform="matrix(0.816627 -0.577165 0.577165 0.816627 17221.7 600.959)" fill="#FDD44B"/>
</g>
<g id="Vector">
<use xlink:href="#path40_fill" transform="matrix(0.816627 -0.577165 0.577165 0.816627 17209.3 603.004)" fill="#FDD44B"/>
</g>
<g id="Vector">
<use xlink:href="#path41_fill" transform="matrix(0.816627 -0.577165 0.577165 0.816627 17218.7 600.916)" fill="#FDD44B"/>
</g>
<g id="Vector">
<use xlink:href="#path42_fill" transform="matrix(0.816627 -0.577165 0.577165 0.816627 17208.8 608.58)" fill="#FDD44B"/>
</g>
<g id="Vector">
<use xlink:href="#path43_fill" transform="matrix(0.816627 -0.577165 0.577165 0.816627 17210.5 608.074)" fill="#FDD44B"/>
</g>
<g id="Vector">
<use xlink:href="#path44_fill" transform="matrix(0.816627 -0.577165 0.577165 0.816627 17211.7 605.368)" fill="#FDD44B"/>
</g>
<g id="Vector">
<use xlink:href="#path45_fill" transform="matrix(0.816627 -0.577165 0.577165 0.816627 17211.6 601.927)" fill="#FDD44B"/>
</g>
<g id="Vector">
<use xlink:href="#path46_fill" transform="matrix(0.816627 -0.577165 0.577165 0.816627 17211.8 607.736)" fill="#FDD44B"/>
</g>
<g id="Vector">
<use xlink:href="#path47_fill" transform="matrix(0.816627 -0.577165 0.577165 0.816627 17210.8 602.231)" fill="#FDD44B"/>
</g>
<g id="Vector">
<use xlink:href="#path48_fill" transform="matrix(0.816627 -0.577165 0.577165 0.816627 17210 602.584)" fill="#FDD44B"/>
</g>
</g>
<g id="Group">
<g id="Vector">
<use xlink:href="#path49_fill" transform="matrix(0.816627 -0.577165 0.577165 0.816627 17222.5 650.227)" fill="#CE593F"/>
</g>
<g id="Vector">
<use xlink:href="#path50_fill" transform="matrix(0.816627 -0.577165 0.577165 0.816627 17222.9 649.979)" fill="#CE593F"/>
</g>
<g id="Vector">
<use xlink:href="#path51_fill" transform="matrix(0.816627 -0.577165 0.577165 0.816627 17226.6 655.135)" fill="#CE593F"/>
</g>
<g id="Vector">
<use xlink:href="#path52_fill" transform="matrix(0.816627 -0.577165 0.577165 0.816627 17221.4 651.147)" fill="#CE593F"/>
</g>
</g>
<g id="Group">
<g id="Vector">
<use xlink:href="#path53_fill" transform="matrix(0.816627 -0.577165 0.577165 0.816627 17218.6 631.555)" fill="#EF8829"/>
</g>
<g id="Vector">
<use xlink:href="#path54_fill" transform="matrix(0.816627 -0.577165 0.577165 0.816627 17216.5 626.348)" fill="#EF8829"/>
</g>
<g id="Vector">
<use xlink:href="#path55_fill" transform="matrix(0.816627 -0.577165 0.577165 0.816627 17218.8 631.547)" fill="#EF8829"/>
</g>
<g id="Vector">
<use xlink:href="#path56_fill" transform="matrix(0.816627 -0.577165 0.577165 0.816627 17219.7 631.281)" fill="#EF8829"/>
</g>
<g id="Vector">
<use xlink:href="#path57_fill" transform="matrix(0.816627 -0.577165 0.577165 0.816627 17219.4 631.377)" fill="#EF8829"/>
</g>
<g id="Vector">
<use xlink:href="#path58_fill" transform="matrix(0.816627 -0.577165 0.577165 0.816627 17219 631.512)" fill="#EF8829"/>
</g>
<g id="Vector">
<use xlink:href="#path59_fill" transform="matrix(0.816627 -0.577165 0.577165 0.816627 17219.2 631.454)" fill="#EF8829"/>
</g>
</g>
<g id="Vector">
<use xlink:href="#path60_fill" transform="matrix(0.816627 -0.577165 0.577165 0.816627 17240.6 626.746)" fill="#84BD93"/>
</g>
<g id="Vector">
<use xlink:href="#path61_fill" transform="matrix(0.816627 -0.577165 0.577165 0.816627 17177.3 621.415)" fill="#3F2D20"/>
</g>
<g id="Vector">
<use xlink:href="#path62_fill" transform="matrix(0.816627 -0.577165 0.577165 0.816627 17215.1 651.262)" fill="#3F2D20"/>
</g>
<g id="Vector">
<use xlink:href="#path63_fill" transform="matrix(0.816627 -0.577165 0.577165 0.816627 17209.5 625.084)" fill="#3F2D20"/>
</g>
<g id="Vector">
<use xlink:href="#path64_fill" transform="matrix(0.816627 -0.577165 0.577165 0.816627 17234.8 626.111)" fill="#3F2D20"/>
</g>
</g>
</g>
<g id="sandwich">
<g id="Group">
<g id="Group">
<g id="Vector">
<use xlink:href="#path65_fill" transform="matrix(0.995675 -0.0929066 0.0929066 0.995675 17168.6 566.77)" fill="#FDD44B"/>
</g>
<g id="Vector">
<use xlink:href="#path66_fill" transform="matrix(0.995675 -0.0929066 0.0929066 0.995675 17243.3 566.01)" fill="#FDD44B"/>
</g>
<g id="Vector">
<use xlink:href="#path67_fill" transform="matrix(0.995675 -0.0929066 0.0929066 0.995675 17243.2 566.983)" fill="#FDD44B"/>
</g>
<g id="Vector">
<use xlink:href="#path68_fill" transform="matrix(0.995675 -0.0929066 0.0929066 0.995675 17243.3 566.553)" fill="#FDD44B"/>
</g>
</g>
<g id="Vector">
<use xlink:href="#path69_fill" transform="matrix(0.995675 -0.0929066 0.0929066 0.995675 17219.5 560.167)" fill="#FDD44B"/>
</g>
<g id="Vector">
<use xlink:href="#path70_fill" transform="matrix(0.995675 -0.0929066 0.0929066 0.995675 17183.4 563.105)" fill="#FDD44B"/>
</g>
<g id="Vector">
<use xlink:href="#path71_fill" transform="matrix(0.995675 -0.0929066 0.0929066 0.995675 17201.3 560.6)" fill="#FDD44B"/>
</g>
<g id="Vector">
<use xlink:href="#path72_fill" transform="matrix(0.995675 -0.0929066 0.0929066 0.995675 17164.4 561.055)" fill="#3F2D20"/>
</g>
<g id="Vector">
<use xlink:href="#path73_fill" transform="matrix(0.995675 -0.0929066 0.0929066 0.995675 17173.8 589.73)" fill="#FDD44B"/>
</g>
<g id="Vector">
<use xlink:href="#path74_fill" transform="matrix(0.995675 -0.0929066 0.0929066 0.995675 17176 584.765)" fill="#84BD93"/>
</g>
<g id="Vector">
<use xlink:href="#path75_fill" transform="matrix(0.995675 -0.0929066 0.0929066 0.995675 17178.8 578.741)" fill="#CE593F"/>
</g>
<g id="Group">
<g id="Vector">
<use xlink:href="#path76_fill" transform="matrix(0.995675 -0.0929066 0.0929066 0.995675 17197.6 578.865)" fill="#EF8829"/>
</g>
<g id="Vector">
<use xlink:href="#path77_fill" transform="matrix(0.995675 -0.0929066 0.0929066 0.995675 17197.5 577.091)" fill="#EF8829"/>
</g>
<g id="Vector">
<use xlink:href="#path78_fill" transform="matrix(0.995675 -0.0929066 0.0929066 0.995675 17200.6 576.707)" fill="#EF8829"/>
</g>
</g>
<g id="Vector">
<use xlink:href="#path79_fill" transform="matrix(0.995675 -0.0929066 0.0929066 0.995675 17222.4 574.673)" fill="#CE593F"/>
</g>
</g>
</g>
<g id="hamburger">
<g id="Group">
<g id="Vector">
<use xlink:href="#path80_fill" transform="translate(17304.7 561.658)" fill="#EF8829"/>
</g>
<g id="Vector">
<use xlink:href="#path81_fill" transform="translate(17322.1 561.658)" fill="#EF8829"/>
</g>
<g id="Vector">
<use xlink:href="#path82_fill" transform="translate(17339.6 561.658)" fill="#EF8829"/>
</g>
<g id="Vector">
<use xlink:href="#path83_fill" transform="translate(17304.8 557.738)" fill="#84BD93"/>
</g>
<g id="Group">
<g id="Vector">
<use xlink:href="#path84_fill" transform="translate(17352.2 567.285)" fill="#CE593F"/>
</g>
<g id="Vector">
<use xlink:href="#path85_fill" transform="translate(17352.6 567.5)" fill="#CE593F"/>
</g>
<g id="Vector">
<use xlink:href="#path86_fill" transform="translate(17353.3 568.132)" fill="#CE593F"/>
</g>
<g id="Vector">
<use xlink:href="#path87_fill" transform="translate(17353.6 568.619)" fill="#CE593F"/>
</g>
<g id="Vector">
<use xlink:href="#path88_fill" transform="translate(17351.7 567.147)" fill="#CE593F"/>
</g>
<g id="Vector">
<use xlink:href="#path89_fill" transform="translate(17353 567.784)" fill="#CE593F"/>
</g>
<g id="Vector">
<use xlink:href="#path90_fill" transform="translate(17301.2 570.256)" fill="#CE593F"/>
</g>
<g id="Vector">
<use xlink:href="#path91_fill" transform="translate(17302.7 572.148)" fill="#CE593F"/>
</g>
<g id="Vector">
<use xlink:href="#path92_fill" transform="translate(17302.2 571.847)" fill="#CE593F"/>
</g>
<g id="Vector">
<use xlink:href="#path93_fill" transform="translate(17303.1 568.759)" fill="#CE593F"/>
</g>
<g id="Vector">
<use xlink:href="#path94_fill" transform="translate(17301.8 571.525)" fill="#CE593F"/>
</g>
<g id="Vector">
<use xlink:href="#path95_fill" transform="translate(17301.3 570.722)" fill="#CE593F"/>
</g>
<g id="Vector">
<use xlink:href="#path96_fill" transform="translate(17301.5 571.148)" fill="#CE593F"/>
</g>
</g>
<g id="Vector">
<use xlink:href="#path97_fill" transform="translate(17301.3 575.333)" fill="#FDD44B"/>
</g>
<g id="Group">
<g id="Vector">
<use xlink:href="#path98_fill" transform="translate(17299.7 553.471)" fill="#FDD44B"/>
</g>
<g id="Vector">
<use xlink:href="#path99_fill" transform="translate(17349.2 539.116)" fill="#FDD44B"/>
</g>
<g id="Vector">
<use xlink:href="#path100_fill" transform="translate(17298.5 551.122)" fill="#FDD44B"/>
</g>
<g id="Vector">
<use xlink:href="#path101_fill" transform="translate(17298.5 550.693)" fill="#FDD44B"/>
</g>
<g id="Vector">
<use xlink:href="#path102_fill" transform="translate(17352.6 541.776)" fill="#FDD44B"/>
</g>
<g id="Vector">
<use xlink:href="#path103_fill" transform="translate(17353.2 542.421)" fill="#FDD44B"/>
</g>
<g id="Vector">
<use xlink:href="#path104_fill" transform="translate(17350.9 540.298)" fill="#FDD44B"/>
</g>
<g id="Vector">
<use xlink:href="#path105_fill" transform="translate(17298.6 551.548)" fill="#FDD44B"/>
</g>
<g id="Vector">
<use xlink:href="#path106_fill" transform="translate(17351.7 540.934)" fill="#FDD44B"/>
</g>
<g id="Vector">
<use xlink:href="#path107_fill" transform="translate(17350.1 539.696)" fill="#FDD44B"/>
</g>
<g id="Vector">
<use xlink:href="#path108_fill" transform="translate(17300.4 554.067)" fill="#FDD44B"/>
</g>
<g id="Vector">
<use xlink:href="#path109_fill" transform="translate(17298.8 552.021)" fill="#FDD44B"/>
</g>
<g id="Vector">
<use xlink:href="#path110_fill" transform="translate(17301.2 554.487)" fill="#FDD44B"/>
</g>
<g id="Vector">
<use xlink:href="#path111_fill" transform="translate(17301.3 536.151)" fill="#FDD44B"/>
</g>
<g id="Vector">
<use xlink:href="#path112_fill" transform="translate(17300.8 554.288)" fill="#FDD44B"/>
</g>
<g id="Vector">
<use xlink:href="#path113_fill" transform="translate(17299 552.44)" fill="#FDD44B"/>
</g>
<g id="Vector">
<use xlink:href="#path114_fill" transform="translate(17299.2 552.794)" fill="#FDD44B"/>
</g>
<g id="Vector">
<use xlink:href="#path115_fill" transform="translate(17300.1 553.82)" fill="#FDD44B"/>
</g>
<g id="Vector">
<use xlink:href="#path116_fill" transform="translate(17299.4 553.132)" fill="#FDD44B"/>
</g>
</g>
<g id="Vector">
<use xlink:href="#path117_fill" transform="translate(17309.6 546.362)" fill="#3F2D20"/>
</g>
<g id="Vector">
<use xlink:href="#path118_fill" transform="translate(17326.1 546.362)" fill="#3F2D20"/>
</g>
<g id="Vector">
<use xlink:href="#path119_fill" transform="translate(17342.5 546.362)" fill="#3F2D20"/>
</g>
<g id="Vector">
<use xlink:href="#path120_fill" transform="translate(17318.2 539.037)" fill="#3F2D20"/>
</g>
<g id="Vector">
<use xlink:href="#path121_fill" transform="translate(17333.9 539.037)" fill="#3F2D20"/>
</g>
<g id="Vector">
<use xlink:href="#path122_fill" transform="translate(17295.5 530.492)" fill="#3F2D20"/>
</g>
</g>
</g>
<g id="spaghetti">
<g id="Group">
<g id="Vector">
<use xlink:href="#path123_fill" transform="translate(17188 493.293)" fill="#3F2D20"/>
</g>
<g id="Vector">
<use xlink:href="#path124_fill" transform="translate(17269.9 524.125)" fill="#FDD44B"/>
</g>
<g id="Vector">
<use xlink:href="#path125_fill" transform="translate(17242.2 510.227)" fill="#FDD44B"/>
</g>
<g id="Vector">
<use xlink:href="#path126_fill" transform="translate(17209.6 515.761)" fill="#FDD44B"/>
</g>
<g id="Vector">
<use xlink:href="#path127_fill" transform="translate(17218 524.125)" fill="#FDD44B"/>
</g>
<g id="Group">
<g id="Vector">
<use xlink:href="#path128_fill" transform="translate(17280.4 518.202)" fill="#FDD44B"/>
</g>
<g id="Vector">
<use xlink:href="#path129_fill" transform="translate(17282 519.667)" fill="#FDD44B"/>
</g>
<g id="Vector">
<use xlink:href="#path130_fill" transform="translate(17281.3 518.951)" fill="#FDD44B"/>
</g>
<g id="Vector">
<use xlink:href="#path131_fill" transform="translate(17278.7 517.063)" fill="#FDD44B"/>
</g>
<g id="Vector">
<use xlink:href="#path132_fill" transform="translate(17279.6 517.586)" fill="#FDD44B"/>
</g>
<g id="Vector">
<use xlink:href="#path133_fill" transform="translate(17277.6 516.587)" fill="#FDD44B"/>
</g>
<g id="Vector">
<use xlink:href="#path134_fill" transform="translate(17265 517.888)" fill="#FDD44B"/>
</g>
<g id="Vector">
<use xlink:href="#path135_fill" transform="translate(17274.3 515.812)" fill="#FDD44B"/>
</g>
<g id="Vector">
<use xlink:href="#path136_fill" transform="translate(17276.6 516.244)" fill="#FDD44B"/>
</g>
<g id="Vector">
<use xlink:href="#path137_fill" transform="translate(17275.5 515.975)" fill="#FDD44B"/>
</g>
</g>
<g id="Group">
<g id="Vector">
<use xlink:href="#path138_fill" transform="translate(17231.6 510.143)" fill="#FDD44B"/>
</g>
<g id="Vector">
<use xlink:href="#path139_fill" transform="translate(17230.2 509.398)" fill="#FDD44B"/>
</g>
<g id="Vector">
<use xlink:href="#path140_fill" transform="translate(17228.9 508.815)" fill="#FDD44B"/>
</g>
<g id="Vector">
<use xlink:href="#path141_fill" transform="translate(17235.1 512.765)" fill="#FDD44B"/>
</g>
<g id="Vector">
<use xlink:href="#path142_fill" transform="translate(17234.1 511.866)" fill="#FDD44B"/>
</g>
<g id="Vector">
<use xlink:href="#path143_fill" transform="translate(17232.8 510.889)" fill="#FDD44B"/>
</g>
<g id="Vector">
<use xlink:href="#path144_fill" transform="translate(17222.8 507.452)" fill="#FDD44B"/>
</g>
<g id="Vector">
<use xlink:href="#path145_fill" transform="translate(17203.5 509.4)" fill="#FDD44B"/>
</g>
<g id="Vector">
<use xlink:href="#path146_fill" transform="translate(17227.4 508.305)" fill="#FDD44B"/>
</g>
<g id="Vector">
<use xlink:href="#path147_fill" transform="translate(17224.5 507.631)" fill="#FDD44B"/>
</g>
<g id="Vector">
<use xlink:href="#path148_fill" transform="translate(17225.9 507.908)" fill="#FDD44B"/>
</g>
</g>
<g id="Group">
<g id="Vector">
<use xlink:href="#path149_fill" transform="translate(17261.6 504.486)" fill="#FDD44B"/>
</g>
<g id="Vector">
<use xlink:href="#path150_fill" transform="translate(17260.4 503.851)" fill="#FDD44B"/>
</g>
<g id="Vector">
<use xlink:href="#path151_fill" transform="translate(17262.8 505.231)" fill="#FDD44B"/>
</g>
<g id="Vector">
<use xlink:href="#path152_fill" transform="translate(17263.8 505.922)" fill="#FDD44B"/>
</g>
<g id="Vector">
<use xlink:href="#path153_fill" transform="translate(17264.7 506.679)" fill="#FDD44B"/>
</g>
<g id="Vector">
<use xlink:href="#path154_fill" transform="translate(17265.7 507.559)" fill="#FDD44B"/>
</g>
<g id="Vector">
<use xlink:href="#path155_fill" transform="translate(17259.2 503.353)" fill="#FDD44B"/>
</g>
<g id="Vector">
<use xlink:href="#path156_fill" transform="translate(17252.9 501.905)" fill="#FDD44B"/>
</g>
<g id="Vector">
<use xlink:href="#path157_fill" transform="translate(17258.1 502.929)" fill="#FDD44B"/>
</g>
<g id="Vector">
<use xlink:href="#path158_fill" transform="translate(17238.5 504.03)" fill="#FDD44B"/>
</g>
<g id="Vector">
<use xlink:href="#path159_fill" transform="translate(17236.6 508.509)" fill="#FDD44B"/>
</g>
<g id="Vector">
<use xlink:href="#path160_fill" transform="translate(17256.9 502.555)" fill="#FDD44B"/>
</g>
<g id="Vector">
<use xlink:href="#path161_fill" transform="translate(17255.4 502.221)" fill="#FDD44B"/>
</g>
<g id="Vector">
<use xlink:href="#path162_fill" transform="translate(17254.1 502.023)" fill="#FDD44B"/>
</g>
</g>
<g id="Group">
<g id="Vector">
<use xlink:href="#path163_fill" transform="translate(17226.6 503.723)" fill="#CE593F"/>
</g>
<g id="Vector">
<use xlink:href="#path164_fill" transform="translate(17228.1 499.667)" fill="#CE593F"/>
</g>
</g>
<g id="Group">
<g id="Vector">
<use xlink:href="#path165_fill" transform="translate(17251.3 518.549)" fill="#CE593F"/>
</g>
<g id="Vector">
<use xlink:href="#path166_fill" transform="translate(17256.1 520.099)" fill="#CE593F"/>
</g>
<g id="Vector">
<use xlink:href="#path167_fill" transform="translate(17257.6 521.406)" fill="#CE593F"/>
</g>
<g id="Vector">
<use xlink:href="#path168_fill" transform="translate(17256.9 520.74)" fill="#CE593F"/>
</g>
<g id="Vector">
<use xlink:href="#path169_fill" transform="translate(17255.2 519.53)" fill="#CE593F"/>
</g>
<g id="Vector">
<use xlink:href="#path170_fill" transform="translate(17252.6 518.653)" fill="#CE593F"/>
</g>
<g id="Vector">
<use xlink:href="#path171_fill" transform="translate(17254.4 519.148)" fill="#CE593F"/>
</g>
<g id="Vector">
<use xlink:href="#path172_fill" transform="translate(17245.5 520.705)" fill="#CE593F"/>
</g>
<g id="Vector">
<use xlink:href="#path173_fill" transform="translate(17253.5 518.854)" fill="#CE593F"/>
</g>
</g>
<g id="Group">
<g id="Vector">
<use xlink:href="#path174_fill" transform="translate(17204.2 543.602)" fill="#84BD93"/>
</g>
<g id="Vector">
<use xlink:href="#path175_fill" transform="translate(17203.4 542.932)" fill="#84BD93"/>
</g>
<g id="Vector">
<use xlink:href="#path176_fill" transform="translate(17204.9 544.224)" fill="#84BD93"/>
</g>
<g id="Vector">
<use xlink:href="#path177_fill" transform="translate(17201.6 541.14)" fill="#84BD93"/>
</g>
<g id="Vector">
<use xlink:href="#path178_fill" transform="translate(17200.7 540.288)" fill="#84BD93"/>
</g>
<g id="Vector">
<use xlink:href="#path179_fill" transform="translate(17202.4 541.971)" fill="#84BD93"/>
</g>
<g id="Vector">
<use xlink:href="#path180_fill" transform="translate(17205.6 544.78)" fill="#84BD93"/>
</g>
<g id="Vector">
<use xlink:href="#path181_fill" transform="translate(17291.3 532.802)" fill="#84BD93"/>
</g>
<g id="Vector">
<use xlink:href="#path182_fill" transform="translate(17290.6 533.719)" fill="#84BD93"/>
</g>
<g id="Vector">
<use xlink:href="#path183_fill" transform="translate(17207.3 545.986)" fill="#84BD93"/>
</g>
<g id="Vector">
<use xlink:href="#path184_fill" transform="translate(17292 531.951)" fill="#84BD93"/>
</g>
<g id="Vector">
<use xlink:href="#path185_fill" transform="translate(17207.9 546.372)" fill="#84BD93"/>
</g>
<g id="Vector">
<use xlink:href="#path186_fill" transform="translate(17199.1 534.292)" fill="#84BD93"/>
</g>
</g>
</g>
</g>
</g>
</g>
<defs>
<path id="path0_fill" d="M 158.442 79.221C 158.442 122.974 122.974 158.442 79.221 158.442C 35.4685 158.442 0 122.974 0 79.221C 0 35.4685 35.4685 0 79.221 0C 122.974 0 158.442 35.4685 158.442 79.221Z"/>
<path id="path1_fill" d="M -5.05598e-08 1.83775L 0.0542585 2.99105L 57.085 -1.97183e-06L -5.05598e-08 1.83775Z"/>
<path id="path2_fill" d="M 0.0542584 -2.02239e-07L 1.86439e-07 1.15309L 57.1574 2.99498L 0.0542584 -2.02239e-07Z"/>
<path id="path3_fill" d="M 1.31455e-06 -2.08559e-07C 0.133369 0.0544652 0.265702 0.106446 0.398242 0.154906C 0.26591 0.106653 0.132955 0.054051 1.31455e-06 -2.08559e-07Z"/>
<path id="path4_fill" d="M 43.7583 13.7313C 43.2642 13.0848 42.7038 12.2736 42.3905 11.4239C 42.0722 10.562 42.037 9.62652 42.0024 8.76005C 41.9813 8.23009 41.9585 7.67115 41.8636 7.25137C 41.9111 7.46261 41.9407 7.69352 41.9608 7.94907C 41.1028 7.66639 40.1346 7.33939 39.3292 6.7061C 38.7581 6.25712 38.3288 5.67022 37.9603 5.08953C 38.1384 5.18728 38.3201 5.2726 38.5027 5.35337C 38.0691 5.16201 37.6418 4.93152 37.2535 4.62606C 36.4728 4.01223 35.9559 3.14534 35.4999 2.38075C 35.5674 2.49403 35.6372 2.6098 35.7078 2.72619C 35.3311 2.70879 34.8689 2.7471 34.4151 2.78542C 33.4679 2.86515 32.3945 2.95585 31.3551 2.63776C 30.3623 2.33354 29.5524 1.66898 28.8377 1.0829C 28.2353 0.588987 27.6125 0.0780892 27.1315 0.00850593C 26.7117 -0.0544503 25.9999 0.243349 25.3113 0.529345C 24.4223 0.898591 23.4152 1.31692 22.313 1.31692C 21.2111 1.31692 20.2038 0.898591 19.3151 0.529345C 18.6266 0.243142 17.9152 -0.053622 17.4944 0.00850593C 17.0135 0.0782963 16.3908 0.588987 15.7884 1.08311C 15.0737 1.66939 14.2633 2.33375 13.2711 2.63776C 12.2311 2.95606 11.1573 2.86556 10.2105 2.78542C 9.46415 2.72246 8.69273 2.65743 8.32182 2.84444C 7.87823 3.06851 7.45742 3.77408 7.05048 4.45645C 6.59446 5.22083 6.07756 6.0873 5.29744 6.70092C 4.48336 7.34063 3.50401 7.66287 2.63961 7.94741C 1.94729 8.17542 1.162 8.43367 0.913073 8.75425C 0.613824 9.14006 0.580689 9.9821 0.548175 10.7964C 0.513798 11.6629 0.478177 12.7157 0.160497 13.5772C 0.112866 13.7065 0.0579856 13.4919 -4.29758e-07 14.1132L 43.9296 14.1132C 43.8726 13.4921 43.8155 13.8061 43.7583 13.7313Z"/>
<path id="path5_fill" d="M -1.51679e-06 2.27519e-07C 0.18514 0.0646132 0.368627 0.126119 0.546727 0.184934C 0.369041 0.126326 0.184725 0.0639919 -1.51679e-06 2.27519e-07Z"/>
<path id="path6_fill" d="M 0.118252 0.211441C 0.0838749 0.132332 0.0459739 0.0592289 -7.07837e-07 3.03359e-07C 0.0459739 0.0592289 0.084082 0.132125 0.118252 0.211441Z"/>
<path id="path7_fill" d="M 0.0675122 0.218275C 0.0480455 0.140409 0.0254747 0.0677187 2.27519e-06 -6.82557e-07C 0.0254747 0.0679258 0.0482526 0.140201 0.0675122 0.218275Z"/>
<path id="path8_fill" d="M -6.06718e-07 -5.05598e-07C 0.0851146 -5.05598e-07 -0.0913274 -5.05598e-07 0.529951 -5.05598e-07L 0.529951 1.03546L 21.8605 1.03546L 21.8605 0.061714C 21.8605 0.0724829 5.7634 -5.05598e-07 -6.06718e-07 -5.05598e-07Z"/>
<path id="path9_fill" d="M 0.00323236 -2.44141e-06C 0.00230908 -2.44141e-06 0.000922408 -2.44141e-06 -8.73466e-07 -2.44141e-06C 0.000922408 -2.44141e-06 0.00184744 -2.44141e-06 0.00323236 -2.44141e-06Z"/>
<path id="path10_fill" d="M 0.166709 -2.44141e-06C 0.109966 -2.44141e-06 0.054672 -2.44141e-06 -5.68798e-07 -2.44141e-06C 0.0544649 -2.44141e-06 0.109759 -2.44141e-06 0.166709 -2.44141e-06Z"/>
<path id="path11_fill" d="M -2.62911e-06 1.02573C 0.0343748 0.686306 0.0631605 0.344603 0.0838698 6.06718e-07C 0.0629534 0.344603 0.0345819 0.686306 -2.62911e-06 1.02573Z"/>
<path id="path12_fill" d="M -3.15999e-07 -5.05598e-07C 0.315816 5.38442 2.20388 9.89241 5.06881 13.2757C 7.66451 15.47 10.7883 16.7745 14.1492 16.7745L 35.5415 16.7745C 43.5235 16.7745 50.1794 9.73337 51.5521 -5.05598e-07L -3.15999e-07 -5.05598e-07Z"/>
<path id="path13_fill" d="M -5.05598e-07 0.82858C 0.0391401 0.554389 0.0722739 0.277711 0.102509 -7.20477e-07C 0.0720668 0.277711 0.0391401 0.554596 -5.05598e-07 0.82858Z"/>
<path id="path14_fill" d="M 15.469 43.5472L 15.469 46.3515C 15.469 47.2113 16.1659 47.9082 17.0257 47.9082L 43.1377 47.9082C 43.9975 47.9082 44.6944 47.2113 44.6944 46.3515L 44.6944 43.5472C 53.5124 41.3469 60.1632 31.8691 60.1632 20.5446C 60.1632 19.6847 59.4663 18.9879 58.6065 18.9879L 57.402 18.9879C 57.0709 18.175 56.5384 17.4765 56.076 16.8718C 55.6802 16.3543 55.3067 15.8653 55.1557 15.4561C 55.008 15.0564 54.9838 14.4391 54.9579 13.7859C 54.9109 12.604 54.8525 11.1331 53.9419 9.95946C 53.11 8.88713 51.8447 8.47087 50.7287 8.10328C 50.078 7.88894 49.4051 7.66777 49.0224 7.36665C 48.6954 7.10965 48.351 6.53228 48.018 5.97416C 47.4127 4.95961 46.7266 3.80962 45.4764 3.17841C 44.3181 2.59378 43.0453 2.70147 41.9218 2.79611C 41.2229 2.85513 40.5001 2.91581 40.0352 2.77395C 39.6303 2.6499 39.0967 2.21211 38.5804 1.78881C 37.6919 1.06005 36.6849 0.234165 35.3458 0.0403262C 34.0778 -0.141708 32.9131 0.340611 31.8857 0.767222C 31.2352 1.03748 30.563 1.31664 30.0817 1.31664C 29.6008 1.31664 28.9284 1.03727 28.2781 0.767222C 27.2505 0.340197 26.0858 -0.143779 24.8172 0.040119C 23.4781 0.234165 22.4712 1.05984 21.5828 1.7886C 21.0667 2.2119 20.5329 2.6497 20.1282 2.77375C 19.6631 2.91602 18.9399 2.85555 18.241 2.7959C 17.1179 2.70106 15.8447 2.59337 14.6872 3.1782C 13.4364 3.80962 12.7503 4.95982 12.145 5.97437C 11.8122 6.53248 11.468 7.10965 11.1414 7.36624C 10.7585 7.66735 10.0856 7.88853 9.43515 8.10287C 8.31892 8.47025 7.05359 8.88651 6.2219 9.95884C 5.31111 11.1324 5.2527 12.6036 5.2059 13.7859C 5.17981 14.4393 5.15537 15.0562 5.00792 15.4559C 4.85695 15.8653 4.48315 16.3543 4.08719 16.872C 3.62475 17.4767 3.09314 18.1755 2.762 18.9879L 1.55672 18.9879C 0.697075 18.9879 1.106e-07 19.6847 1.106e-07 20.5446C 1.106e-07 31.8691 6.65079 41.3469 15.469 43.5472ZM 6.5607 18.7628C 7.05524 18.116 7.61584 17.3829 7.92917 16.533C 8.24685 15.6715 8.28247 14.7756 8.31685 13.9091C 8.34937 13.0946 8.3825 12.2526 8.68175 11.867C 8.93068 11.5464 9.71597 11.2882 10.4083 11.0602C 11.2727 10.7758 12.252 10.4534 13.0661 9.81366C 13.8462 9.19984 14.3629 8.33357 14.8192 7.56919C 15.2261 6.88661 15.6469 6.18105 16.0905 5.95718C 16.4614 5.76997 17.233 5.83541 17.9792 5.89816C 18.926 5.9781 19.9996 6.0688 21.0398 5.75029C 22.032 5.44649 22.8424 4.78193 23.5572 4.19585C 24.1597 3.70194 24.7824 3.19104 25.2633 3.12125C 25.6841 3.05933 26.3952 3.35588 27.0838 3.64229C 27.9725 4.01133 28.98 4.42987 30.0817 4.42987C 31.1838 4.42987 32.1909 4.01154 33.08 3.64209C 33.7684 3.3563 34.4801 3.05829 34.9001 3.12125C 35.3812 3.19083 36.0039 3.70152 36.6062 4.19565C 37.3208 4.78193 38.1308 5.44628 39.1238 5.7505C 40.1632 6.06859 41.2365 5.97768 42.1838 5.89816C 42.9302 5.83479 43.702 5.76976 44.0729 5.95739C 44.5165 6.18125 44.9373 6.88661 45.3442 7.56878C 45.8003 8.33336 46.3172 9.19984 47.0979 9.81366C 47.9112 10.4532 48.8909 10.7756 49.7549 11.0604C 50.4478 11.2884 51.2329 11.5468 51.4821 11.8676C 51.7813 12.253 51.8144 13.0948 51.847 13.9091C 51.8815 14.7756 51.9167 15.6717 52.2348 16.5336C 52.5482 17.3831 53.1086 18.1158 53.6027 18.7626C 53.6598 18.8373 53.717 18.9127 53.774 18.9877L 6.38944 18.9877C 6.44618 18.9127 6.50355 18.8375 6.5607 18.7628ZM 57.0027 22.1013C 56.3655 32.6094 49.3318 40.9155 40.7778 40.9155L 19.3856 40.9155C 10.8316 40.9155 3.79808 32.6092 3.16065 22.1013L 57.0027 22.1013ZM 41.5809 44.7946L 18.5824 44.7946L 18.5824 44.0072C 18.8488 44.0204 41.3146 44.0204 41.5809 44.0072L 41.5809 44.7946Z"/>
<path id="path15_fill" d="M 69.7945 3.5612L 1.93885 0.00251848C 1.52674 -0.0212972 1.1198 0.124703 0.812679 0.402829C 0.50556 0.680955 0.321869 1.06988 0.302609 1.48385L 0.0654875 6.51787C 0.0460208 6.93412 0.193885 7.34106 0.476981 7.64735C 0.75987 7.95364 1.15355 8.13361 1.57043 8.14707L 21.1821 8.77912L 1.50644 9.41262C 1.08998 9.42608 0.696086 9.60604 0.413197 9.91233C 0.130308 10.2184 -0.0177638 10.6256 0.00170289 11.0418L 0.238824 16.0758C 0.258291 16.4898 0.441982 16.8787 0.749101 17.1569C 1.03593 17.4165 1.40849 17.5594 1.79368 17.5594C 1.82081 17.5594 1.84814 17.5586 1.87527 17.5572L 69.7307 13.9985C 70.5761 13.9544 71.2309 13.2426 71.2052 12.3966L 71.268 5.19082C 71.3088 4.33428 70.6502 3.60614 69.7945 3.5612ZM 68.0284 10.3857L 68.0462 10.9687L 3.27501 14.3659L 3.18576 12.4735L 68.0284 10.3857ZM 68.0558 7.17435L 3.24975 5.08603L 3.33901 3.19362L 68.0835 6.58931L 68.0558 7.17435Z"/>
<path id="path16_fill" d="M 6.15128e-07 0.486963C 0.0723808 0.323878 0.139034 0.158734 0.221263 1.4819e-06C 0.138805 0.158734 0.0723808 0.324107 6.15128e-07 0.486963Z"/>
<path id="path17_fill" d="M -5.73188e-07 0.408628C 0.0819998 0.271884 0.158274 0.132851 0.248062 9.78613e-07C 0.158274 0.132851 0.0819998 0.272113 -5.73188e-07 0.408628Z"/>
<path id="path18_fill" d="M -5.59207e-08 0.608818C 0.0604695 0.404504 0.116815 0.199047 0.192173 1.39802e-06C 0.116586 0.199047 0.0604695 0.404733 -5.59207e-08 0.608818Z"/>
<path id="path19_fill" d="M -6.01148e-07 1.02111C 0.042832 0.674786 0.106967 0.334414 0.189655 -1.00657e-06C 0.106967 0.334414 0.042832 0.674786 -6.01148e-07 1.02111Z"/>
<path id="path20_fill" d="M 3.41797e-06 -1.63768e-06C 3.41797e-06 0.00954865 3.41797e-06 0.018417 3.41797e-06 0.0279673C 3.41797e-06 0.0181896 3.41797e-06 0.00932126 3.41797e-06 -1.63768e-06Z"/>
<path id="path21_fill" d="M 20.0308 11.8436C 19.9417 11.9008 19.8631 11.9656 19.7765 12.0247C 19.9614 11.8988 20.1398 11.768 20.3354 11.6502C 22.9319 10.0895 26.1819 9.45524 29.4872 9.86295C 32.7919 10.2709 35.7902 11.6768 37.9291 13.8221C 40.1795 16.0792 41.2267 18.8786 40.8777 21.7047C 40.6816 23.2938 40.068 24.4698 39.0535 25.1995C 38.1994 25.8141 37.1899 26.0349 36.058 26.0351C 34.8424 26.0351 33.483 25.78 32.0218 25.4845C 32.0108 26.2704 32.1842 27.4202 32.8295 29.0471C 33.2798 29.8763 35.2572 33.8609 33.3726 36.6778C 32.3556 38.1978 30.5213 38.824 27.9175 38.9632C 27.209 39.001 25.8491 38.8221 25.8384 38.8205C 22.1926 38.3558 19.9566 37.0477 19.1975 34.9278C 18.0543 31.7371 20.9415 28.3531 21.5796 27.6584C 22.601 26.2374 23.049 25.164 23.2297 24.3995C 20.3533 24.2659 17.869 24.0795 16.4612 22.4129C 16.0615 21.9401 15.8423 21.3847 15.6133 20.7518L 15.6133 20.7521L 8.58943 35.0609C 9.51525 34.5902 10.5425 34.3405 11.6037 34.3405C 13.6748 34.3405 15.597 35.2764 16.8696 36.9075C 17.9654 38.312 18.451 40.0595 18.2325 41.8275C 18.0142 43.5958 17.1216 45.1728 15.7168 46.2688C 14.5335 47.1921 13.1169 47.6802 11.6182 47.6802C 9.54709 47.6802 7.62947 46.7446 6.35663 45.1133C 5.67337 44.2376 5.24802 43.2426 5.06135 42.2187C 5.06364 42.2313 5.06341 42.2439 5.0657 42.2565L 3.21544e-07 52.5508L 55.2351 40.6832C 55.3961 33.9308 51.2825 24.2368 44.4756 15.5123C 38.742 8.16385 31.8372 2.48566 25.8585 -6.01148e-07L 20.0308 11.8436ZM 48.0653 25.7087C 48.8828 25.777 49.5388 26.4121 49.6331 27.2266C 50.3446 33.3792 47.6404 39.0223 42.3992 42.3223C 42.1164 42.5002 41.7984 42.5871 41.4826 42.5871C 41.0231 42.5871 40.5684 42.4036 40.2336 42.0513L 36.0701 37.6696C 35.7144 37.2953 35.5456 36.7818 35.6097 36.2696C 35.6738 35.7577 35.9643 35.3014 36.4008 35.0265C 39.1863 33.2731 40.5666 30.3921 40.1882 27.1224C 40.1289 26.6098 40.3027 26.0977 40.6617 25.7268C 41.0206 25.356 41.5256 25.1677 42.041 25.2085L 48.0653 25.7087Z"/>
<path id="path22_fill" d="M 2.93584e-07 1.64966e-06C 0.0013746 0.0336722 0.000229086 0.0671108 0.0020615 0.100781C 0.000229086 0.0673398 0.0013746 0.0336722 2.93584e-07 1.64966e-06Z"/>
<path id="path23_fill" d="M 0.298912 -1.11841e-07C 0.194464 0.0994082 0.0991789 0.204315 -3.35524e-07 0.30693C 0.0991789 0.204315 0.194235 0.0994082 0.298912 -1.11841e-07Z"/>
<path id="path24_fill" d="M 3.91445e-07 0.351136C 0.0904757 0.233862 0.17637 0.114067 0.27303 -5.03287e-07C 0.175912 0.114067 0.0904757 0.233862 3.91445e-07 0.351136Z"/>
<path id="path25_fill" d="M 0.330291 2.65623e-07C 0.215766 0.0884141 0.109487 0.181867 6.43089e-07 0.273717C 0.109487 0.182096 0.215766 0.0884141 0.330291 2.65623e-07Z"/>
<path id="path26_fill" d="M 0.0307109 2.46281e-07C 0.0206232 0.00627702 0.0100869 0.0118815 -7.52526e-07 0.0183824C 0.0100869 0.0118815 0.0206232 0.00650119 0.0307109 2.46281e-07Z"/>
<path id="path27_fill" d="M -1.03453e-06 5.59207e-07C 0.117731 0.0453527 0.235694 0.0925372 0.354114 0.14018C 0.235694 0.0925372 0.117731 0.0451237 -1.03453e-06 5.59207e-07Z"/>
<path id="path28_fill" d="M 7.5493e-07 2.44653e-07C 0.0797106 0.0249668 0.158503 0.0481012 0.23867 0.0744421C 0.158503 0.0483303 0.0797106 0.0247378 7.5493e-07 2.44653e-07Z"/>
<path id="path29_fill" d="M 1.18832e-07 0.175681C 0.00412304 0.117044 0.00778756 0.0584076 0.0132848 -5.31247e-07C 0.00778756 0.0586366 0.00412304 0.117044 1.18832e-07 0.175681Z"/>
<path id="path30_fill" d="M 0.160107 -1.67762e-06C 0.105134 0.0556578 0.0529112 0.112694 3.63485e-07 0.169728C 0.0526822 0.112694 0.105134 0.0554287 0.160107 -1.67762e-06Z"/>
<path id="path31_fill" d="M -9.08712e-08 0.149571C 0.0249665 0.0998668 0.0471842 0.0490174 0.0737541 4.47366e-07C 0.0474132 0.0492465 0.0251956 0.0998668 -9.08712e-08 0.149571Z"/>
<path id="path32_fill" d="M -2.93584e-07 0.137889C 0.0334412 0.0909339 0.0714649 0.0462677 0.106052 -6.71049e-07C 0.0712358 0.0464967 0.0336703 0.0907048 -2.93584e-07 0.137889Z"/>
<path id="path33_fill" d="M -3.42515e-07 0.184845C 0.0217595 0.122772 0.0462681 0.0613843 0.0698604 -1.50986e-06C 0.0462681 0.0616133 0.0219886 0.122543 -3.42515e-07 0.184845Z"/>
<path id="path34_fill" d="M 1.45394e-06 -1.11841e-07C 0.375188 0.233861 0.756326 0.480779 1.14388 0.742356C 0.756326 0.481008 0.375188 0.233861 1.45394e-06 -1.11841e-07Z"/>
<path id="path35_fill" d="M -1.67762e-06 -1.39802e-08C 0.678907 0.347929 1.38668 0.74854 2.12033 1.20321C 1.38691 0.748769 0.678907 0.3477 -1.67762e-06 -1.39802e-08Z"/>
<path id="path36_fill" d="M -1.95723e-07 2.02713e-07C 0.316778 0.141554 0.642717 0.298454 0.974384 0.465891C 0.642717 0.298683 0.316778 0.141325 -1.95723e-07 2.02713e-07Z"/>
<path id="path37_fill" d="M 4.05215 3.87074C 2.67876 2.45177 1.323 1.16129 1.45394e-06 -5.59207e-08C 1.32277 1.16106 2.67921 2.452 4.05215 3.87074Z"/>
<path id="path38_fill" d="M -9.78613e-07 3.42515e-07C 0.28952 0.111548 0.584997 0.232029 0.889635 0.367628C 0.585226 0.232029 0.28952 0.111319 -9.78613e-07 3.42515e-07Z"/>
<path id="path39_fill" d="M 7.5493e-07 -1.95723e-07C 0.8381 0.652109 1.69589 1.36079 2.56858 2.12651C 1.69589 1.36102 0.838329 0.652109 7.5493e-07 -1.95723e-07Z"/>
<path id="path40_fill" d="M 2.23683e-07 -1.67762e-07C 0.21004 -1.67762e-07 0.433136 0.0167208 0.661959 0.0410002C 0.433136 0.0167208 0.21004 -1.67762e-07 2.23683e-07 -1.67762e-07Z"/>
<path id="path41_fill" d="M -6.43089e-07 -3.00574e-07C 0.792517 0.535522 1.60954 1.12831 2.44627 1.77813C 1.60954 1.12854 0.792288 0.535064 -6.43089e-07 -3.00574e-07Z"/>
<path id="path42_fill" d="M 1.56578e-06 -1.53782e-07C 0.406339 0.114526 0.817715 0.247604 1.23161 0.390074C 0.817486 0.247604 0.40611 0.114526 1.56578e-06 -1.53782e-07Z"/>
<path id="path43_fill" d="M 0.865356 0.332353C 0.575148 0.21485 0.287001 0.104447 -4.47366e-07 -1.18832e-07C 0.286772 0.104447 0.575377 0.215308 0.865356 0.332353Z"/>
<path id="path44_fill" d="M 34.0799 34.0455C 32.1416 28.2244 28.2826 21.4404 23.2137 14.9435C 21.2603 12.44 19.2921 10.1891 17.3561 8.18882C 11.3614 2.78687 5.99542 2.93584e-07 2.82833 2.93584e-07C 2.14049 2.93584e-07 1.56236 0.130788 1.10517 0.389387L 0.0265688 2.58141C 0.0176358 2.57706 0.00893242 2.57339 -5.87168e-07 2.56927C 6.16011 5.53663 12.8127 11.185 18.4943 18.4666C 25.6045 27.5794 29.8468 37.4882 29.9778 45.0166L 34.3481 44.0777C 35.7794 42.5784 35.6899 38.8812 34.0799 34.0455Z"/>
<path id="path45_fill" d="M 9.22692e-07 8.38811e-08C 0.270052 0.0829167 0.548348 0.178202 0.833975 0.28494C 0.548348 0.178202 0.270052 0.0829167 9.22692e-07 8.38811e-08Z"/>
<path id="path46_fill" d="M 2.79604e-08 -2.65624e-07C 0.311052 0.132391 0.624165 0.273717 0.938423 0.42031C 0.624165 0.273717 0.311281 0.132391 2.79604e-08 -2.65624e-07Z"/>
<path id="path47_fill" d="M 6.15128e-07 1.29317e-07C 0.231113 0.0519948 0.469555 0.114755 0.71464 0.187135C 0.469555 0.114984 0.230884 0.0519948 6.15128e-07 1.29317e-07Z"/>
<path id="path48_fill" d="M 1.67762e-06 -1.08346e-07C 0.228824 0.0293185 0.464975 0.0682572 0.711205 0.120939C 0.464975 0.0682572 0.228824 0.0293185 1.67762e-06 -1.08346e-07Z"/>
<path id="path49_fill" d="M 1.25822e-07 1.06249e-06C 0.151174 1.06249e-06 0.300286 0.0123687 0.44665 0.0338995C 0.299828 0.013743 0.151174 1.06249e-06 1.25822e-07 1.06249e-06Z"/>
<path id="path50_fill" d="M -1.25822e-07 -3.63485e-07C 0.141325 0.0224467 0.280588 0.0524545 0.416873 0.0916223C 0.280588 0.0522254 0.141783 0.0213014 -1.25822e-07 -3.63485e-07Z"/>
<path id="path51_fill" d="M 0.229967 1.78946e-06C 0.153464 0.0178678 0.0778776 0.0384773 8.38811e-08 0.0506171C 0.0781066 0.0389354 0.153464 0.0176387 0.229967 1.78946e-06Z"/>
<path id="path52_fill" d="M 3.95494 1.10907C 3.53074 0.565299 2.95605 0.18622 2.31287 1.73354e-06C 1.92807 0.113153 1.56525 0.296621 1.23977 0.550639C -0.162255 1.64482 -0.412838 3.67559 0.68134 5.0783C 1.10348 5.61909 1.67428 5.99633 2.31356 6.1837C 2.70112 6.07077 3.06829 5.8928 3.39583 5.63718C 4.07542 5.10716 4.50764 4.34419 4.61324 3.48914C 4.71883 2.63386 4.48474 1.78866 3.95494 1.10907Z"/>
<path id="path53_fill" d="M 0.0590957 0.0382507C 0.0396263 0.0254238 0.0174076 0.0132859 -3.35524e-07 9.22692e-07C 0.0176366 0.0132859 0.0398553 0.0254238 0.0590957 0.0382507Z"/>
<path id="path54_fill" d="M 15.493 1.9756C 14.0569 0.985635 12.2943 0.331237 10.3831 0.0950854C 7.83745 -0.218715 5.36782 0.249924 3.42775 1.41602C 1.62306 2.50058 0.510097 4.06317 0.294101 5.81564C 0.289062 5.85595 0.284251 5.90039 0.27967 5.94735C 0.183698 5.93383 0.0907045 5.91917 1.67762e-07 5.90383C 0.934759 6.06302 2.1792 6.11982 3.33568 6.17204C 3.7443 6.1906 4.60256 6.23366 4.60599 6.23389C 5.36117 6.27855 6.02382 6.81889 6.18851 7.59422C 6.63699 9.71089 5.84218 12.189 3.82607 14.9605C 3.78095 15.0221 3.73216 15.081 3.67925 15.1362C 2.77702 16.0916 1.60451 17.9719 1.96183 18.962C 2.2376 19.7255 3.69345 20.3393 5.85799 20.6069C 8.01932 20.8728 9.57801 20.6311 10.0308 19.9582C 10.6181 19.0846 9.93808 16.9757 9.29284 15.8254C 9.25688 15.7615 9.22321 15.6912 9.19549 15.6232C 7.91395 12.4451 7.74583 9.84763 8.69548 7.9039C 9.04203 7.19499 9.81119 6.83148 10.5513 6.96685C 10.5581 6.968 11.4079 7.13635 11.8092 7.21766C 13.7396 7.61049 15.9271 8.05485 16.5638 7.59698C 16.8309 7.40503 16.9402 6.81202 16.9816 6.47554C 17.1734 4.92601 16.6454 3.35059 15.493 1.9756Z"/>
<path id="path55_fill" d="M 0.0955147 0.0455817C 0.0629894 0.0304643 0.0293189 0.0160329 2.79604e-07 -7.2697e-07C 0.0290898 0.0160329 0.0629894 0.0304643 0.0955147 0.0455817Z"/>
<path id="path56_fill" d="M 0.243253 0.0458095C 0.15942 0.0313793 0.0785643 0.0160335 -3.07564e-07 -5.59207e-08C 0.0783353 0.0162626 0.15942 0.0313793 0.243253 0.0458095Z"/>
<path id="path57_fill" d="M 0.204314 0.0474132C 0.133766 0.0322958 0.06528 0.0167202 3.91445e-07 -5.59207e-07C 0.06528 0.0167202 0.133995 0.0322958 0.204314 0.0474132Z"/>
<path id="path58_fill" d="M 0.130101 0.0476423C 0.0854365 0.0320668 0.0407713 0.016722 1.39802e-07 1.28618e-06C 0.0410003 0.016493 0.0856655 0.0320668 0.130101 0.0476423Z"/>
<path id="path59_fill" d="M 0.166062 0.0478714C 0.1088 0.0325249 0.0529114 0.0167205 5.03287e-07 -2.79604e-07C 0.0526823 0.0167205 0.109029 0.0325249 0.166062 0.0478714Z"/>
<path id="path60_fill" d="M 6.35595 1.30147L 4.77801 1.17045C 4.61974 4.15682 3.34713 6.87314 1.16656 8.90368L -1.3421e-06 7.67597L 1.81546 9.58671C 4.83642 7.22336 6.45993 3.83523 6.40954 -1.53782e-06C 6.4155 0.440464 6.39443 0.873602 6.35595 1.30147Z"/>
<path id="path61_fill" d="M 63.3126 19.5988C 54.1664 7.87616 43.4992 -4.0193e-08 36.7686 -4.0193e-08C 35.1428 -4.0193e-08 33.7543 0.440008 32.6415 1.30811C 32.4365 1.46799 32.2707 1.6723 32.1559 1.90525L 0.176926 66.8942C -0.114427 67.4865 -0.0418179 68.1932 0.36429 68.7136C 0.694582 69.1369 1.19781 69.3764 1.72165 69.3764C 1.8419 69.3764 1.96307 69.3639 2.08355 69.338L 72.8982 54.123C 73.1522 54.0683 73.3907 53.9569 73.5957 53.7971C 80.2166 48.631 73.2395 32.3214 63.3126 19.5988ZM 31.5906 10.8538C 38.1438 12.4379 46.4565 18.7632 53.1629 27.3584C 59.9699 36.0829 64.0834 45.7768 63.9224 52.5293L 4.83652 65.2242L 31.5906 10.8538ZM 71.7317 50.8512L 67.3616 51.7901C 67.2303 44.2617 62.9883 34.3529 55.8781 25.2401C 48.8609 16.2468 40.3617 9.74156 33.1395 7.70643L 35.0456 3.83295C 35.5031 3.57412 36.081 3.44356 36.7688 3.44356C 41.5253 3.44356 51.2377 9.72025 60.5979 21.7168C 65.6668 28.2136 69.5257 34.9977 71.4641 40.8188C 73.0739 45.6547 73.1635 49.3519 71.7317 50.8512Z"/>
<path id="path62_fill" d="M 6.66421 -1.64966e-06C 5.16553 -1.64966e-06 3.74793 0.488107 2.56396 1.41141C -0.335371 3.67375 -0.853714 7.87319 1.40863 10.7725C 2.68124 12.4041 4.59908 13.3395 6.67039 13.3395C 8.16885 13.3395 9.58622 12.8514 10.7695 11.9283C 12.1743 10.8325 13.068 9.25528 13.2863 7.487C 13.5046 5.71896 13.0213 3.97175 11.9255 2.56698C 10.6531 0.935673 8.73552 -1.64966e-06 6.66421 -1.64966e-06ZM 9.86887 7.06486C 9.7635 7.91991 9.33106 8.68288 8.65146 9.2129C 8.07883 9.65978 7.39374 9.89571 6.67039 9.89571C 5.66761 9.89571 4.73926 9.4431 4.1238 8.65402C 3.02939 7.25154 3.28021 5.22054 4.68223 4.12636C 5.25509 3.67948 5.94018 3.44333 6.66421 3.44333C 7.66677 3.44333 8.59488 3.89594 9.21057 4.68502C 9.7406 5.36461 9.97469 6.20981 9.86887 7.06486Z"/>
<path id="path63_fill" d="M 16.5204 15.7418C 17.9815 16.0373 19.341 16.2925 20.5565 16.2925C 21.6887 16.2922 22.6979 16.0714 23.5521 15.4569C 24.5663 14.7271 25.1802 13.5512 25.3762 11.9623C 25.7253 9.13622 24.6781 6.33675 22.4276 4.07968C 20.2888 1.93462 17.2907 0.5287 13.986 0.120531C 10.681 -0.287181 7.43097 0.347063 4.83444 1.90782C 2.10278 3.54989 0.406191 6.01059 0.0571169 8.83662C -0.138951 10.4258 0.17027 11.7156 0.976989 12.6703C 2.38497 14.3368 4.85185 14.5233 7.72828 14.6568C 7.54755 15.4216 7.09976 16.4947 6.07819 17.916C 5.44005 18.6107 2.55286 21.9947 3.69583 25.1854C 4.45513 27.3053 6.69113 28.6134 10.3369 29.0781C 10.3477 29.0797 11.7076 29.2586 12.416 29.2206C 15.0199 29.0813 16.8541 28.4551 17.8711 26.9351C 19.7558 24.118 17.7784 20.1334 17.328 19.3045C 16.6828 17.6773 16.5094 16.5277 16.5204 15.7418ZM 15.0078 25.0225C 14.5549 25.6953 12.9962 25.9369 10.8349 25.6712C 8.67036 25.4037 7.21452 24.7898 6.93874 24.0266C 6.58142 23.0364 7.75393 21.1561 8.65639 20.2008C 8.70907 20.1453 8.75786 20.0867 8.80298 20.0251C 10.8191 17.2536 11.6139 14.7755 11.1654 12.6588C 11.001 11.8832 10.3381 11.3429 9.58313 11.2982C 9.5797 11.298 8.72144 11.2549 8.31281 11.2364C 6.34481 11.1477 4.11407 11.0474 3.60741 10.448C 3.39531 10.197 3.43356 9.59524 3.47525 9.25876C 3.69148 7.50652 4.80421 5.9437 6.6089 4.85914C 8.54897 3.69304 11.0188 3.22441 13.5643 3.53821C 16.1093 3.85246 18.3911 4.90816 19.9892 6.51106C 21.4759 8.00196 22.1755 9.7881 21.9588 11.5403C 21.9173 11.8768 21.8078 12.4698 21.541 12.6618C 20.9042 13.1197 18.7166 12.6753 16.7863 12.2825C 16.385 12.2012 15.5353 12.0328 15.5284 12.0317C 14.7883 11.8963 14.0194 12.2596 13.6728 12.9685C 12.7232 14.9122 12.8913 17.5094 14.1729 20.6877C 14.2004 20.7558 14.2343 20.8261 14.2702 20.89C 14.9148 22.0401 15.595 24.1487 15.0078 25.0225Z"/>
<path id="path64_fill" d="M 12.4687 0.505723L 6.4449 0.00547727C 5.92953 -0.0352939 5.42448 0.152986 5.06532 0.523821C 4.7064 0.894655 4.53255 1.40658 4.5921 1.91943C 4.97027 5.18937 3.59 8.07015 0.804509 9.82353C 0.367708 10.0984 0.0775011 10.5547 0.0133667 11.0668C -0.0507677 11.579 0.118042 12.0925 0.473759 12.4668L 4.63723 16.8485C 4.9721 17.201 5.42654 17.3843 5.88624 17.3843C 6.20188 17.3843 6.52003 17.2975 6.80268 17.1195C 12.0438 13.8196 14.748 8.17643 14.0366 2.02388C 13.942 1.20914 13.286 0.573981 12.4687 0.505723ZM 6.11209 13.4018L 4.29663 11.491C 6.58348 9.44445 7.91655 6.66194 8.07918 3.597L 10.7062 3.81506C 10.7566 7.65029 9.13282 11.0382 6.11209 13.4018Z"/>
<path id="path65_fill" d="M 73.9821 7.90671C 72.9342 6.40288 69.9915 4.5625 64.1571 2.95327C 63.1948 2.68771 62.1887 2.43855 61.1449 2.20541L 55.0919 7.7675C 54.2793 8.50666 53.214 8.87564 52.1498 8.87564C 51.0875 8.87564 50.0263 8.50784 49.218 7.77283C 47.9848 6.65105 47.6946 4.99377 48.3413 3.61709C 47.8481 2.56649 47.8494 1.35394 48.5015 0.339128L 48.5015 0.339325C 47.4147 0.249946 46.4059 0.172035 45.3362 0.107374L 36.9643 7.76947C 36.1531 8.50705 35.0887 8.87584 34.0253 8.87584C 32.9631 8.87584 31.9012 8.50804 31.0928 7.77283C 29.8595 6.65105 29.5693 4.99377 30.216 3.6169C 29.6663 2.44626 29.7956 1.07453 30.6046 -1.20692e-07C 30.6031 0.0019773 30.6012 0.00395437 30.5996 0.00612953C 29.4272 0.0599153 28.2679 0.127544 27.1263 0.2102L 18.8368 7.77145C 18.0272 8.50804 16.9638 8.87643 15.9009 8.87643C 14.8384 8.87643 13.7763 8.50863 12.9673 7.77303C 11.7342 6.65124 11.6053 4.95877 12.2517 3.58209C 12.0763 3.20836 11.8552 2.77886 11.8552 2.38002C 11.8552 2.38239 11.7055 2.45576 11.7055 2.45813C 11.1416 2.61672 10.4358 2.78144 9.81221 2.95347C 3.97788 4.56289 1.05147 6.40328 0.00354427 7.90691C -0.0651436 7.7849 0.852796 10.1774 3.7892 10.1774L 70.2604 9.85684C 72.0438 9.85684 73.5656 8.89799 74.1658 7.46515C 74.1114 7.59408 74.051 7.7847 73.9821 7.90671Z"/>
<path id="path66_fill" d="M -2.79278e-06 0.432264C 0.0173679 0.290087 0.028384 0.146328 0.028384 -7.72429e-07C 0.0281722 0.146328 0.0175797 0.290285 -2.79278e-06 0.432264Z"/>
<path id="path67_fill" d="M -1.05755e-07 0.337941C 0.0439671 0.227404 0.0820877 0.114889 0.115009 7.72429e-07C 0.0820877 0.114493 0.0441837 0.227602 -1.05755e-07 0.337941Z"/>
<path id="path68_fill" d="M 1.62686e-06 0.32568C 0.027086 0.218701 0.0481471 0.110143 0.0651285 1.30347e-06C 0.0479321 0.109946 0.027301 0.218899 1.62686e-06 0.32568Z"/>
<path id="path69_fill" d="M 0.257877 4.54569C 0.601317 4.85832 1.16082 4.85812 1.50426 4.54549L 6.087 0.334184C 5.40578 0.216725 4.71215 0.105198 4.00745 -3.62076e-07L 0.257443 3.41105C -0.0859965 3.72387 -0.0857793 4.23286 0.257877 4.54569Z"/>
<path id="path70_fill" d="M 0.257851 4.97716C 0.60129 5.28979 1.16036 5.2892 1.50445 4.97696L 6.96035 -2.05176e-07C 5.9772 0.11469 5.01166 0.240652 4.06633 0.378083L 0.257634 3.84272C -0.0860228 4.15535 -0.0858055 4.66433 0.257851 4.97716Z"/>
<path id="path71_fill" d="M 0.257743 5.80194C 0.601617 6.11457 1.16068 6.11398 1.50456 5.80174L 7.79384 0.0456777C 6.99654 0.0235306 6.19359 0.00870091 5.38672 2.65522e-07L 0.257743 4.6675C -0.0859138 4.98013 -0.0859138 5.48912 0.257743 5.80194Z"/>
<path id="path72_fill" d="M 78.164 27.0993C 78.395 26.6184 78.5248 26.0883 78.5248 25.5306C 78.5248 23.5983 76.9856 21.9899 74.965 21.6583C 75.1021 21.2369 75.178 20.7868 75.178 20.318C 75.178 19.8503 75.101 19.4018 74.9648 18.981C 78.603 18.5365 81.4184 15.696 81.4184 12.2665C 81.4184 8.62391 77.0597 5.49623 68.8139 3.22141C 61.2841 1.14413 51.3029 -2.05176e-07 40.7091 -2.05176e-07C 30.1155 -2.05176e-07 20.1347 1.14394 12.6047 3.22141C 4.35864 5.49623 0 8.62391 0 12.2665C 0 15.696 2.81555 18.5365 6.45362 18.981C 6.31754 19.4018 6.24038 19.8505 6.24038 20.318C 6.24038 20.7868 6.31602 21.2369 6.45318 21.6583C 4.43254 21.9901 2.8938 23.5981 2.8938 25.5306C 2.8938 26.0885 3.02574 26.6172 3.25746 27.0979C 1.50461 27.955 0.309747 29.6389 0.309747 31.5726C 0.309747 34.3719 2.81316 36.6495 5.8902 36.6495L 75.5284 36.6495C 78.6054 36.6495 81.1091 34.3719 81.1091 31.5726C 81.1088 29.6403 79.9153 27.9569 78.164 27.0993ZM 75.5284 33.6766L 5.8902 33.6766C 4.61513 33.6766 3.57785 32.7328 3.57785 31.5726C 3.57785 30.4125 4.61535 29.4689 5.8902 29.4689L 75.5284 29.4689C 76.8037 29.4689 77.841 30.4127 77.841 31.5726C 77.841 32.733 76.8037 33.6766 75.5284 33.6766ZM 25.689 3.80673L 20.2331 8.78369C 19.889 9.09593 19.33 9.09652 18.9865 8.78389C 18.6427 8.47106 18.6425 7.96207 18.9861 7.64944L 22.7948 4.18481C 23.7403 4.04738 24.7059 3.92142 25.689 3.80673ZM 17.0428 5.21307L 16.6755 5.54725C 15.0579 7.01904 15.0579 9.41389 16.6757 10.8859C 17.4845 11.6213 18.5466 11.9893 19.6091 11.9893C 20.672 11.9893 21.7354 11.6209 22.545 10.8843L 30.8345 3.32285C 33.0308 3.16367 35.2899 3.05768 37.5914 3.00745L 34.8006 5.54725C 33.183 7.01904 33.183 9.41389 34.801 10.8859C 35.6097 11.6211 36.6713 11.9889 37.7335 11.9889C 38.7971 11.9889 39.8613 11.6203 40.6726 10.8825L 49.0442 3.22042C 51.062 3.34243 53.0314 3.50873 54.9377 3.71735L 52.9259 5.54745C 51.3083 7.01924 51.3083 9.41409 52.9262 10.8861C 53.7346 11.6213 54.7957 11.9889 55.858 11.9889C 56.9222 11.9889 57.9875 11.6197 58.8001 10.8805L 64.8531 5.31846C 65.8969 5.5518 66.9031 5.80076 67.8653 6.06632C 75.4486 8.15823 78.1503 10.6409 78.1503 12.2665C 78.1503 14.364 76.2744 16.0705 73.9686 16.0705L 7.44981 16.0705C 5.14398 16.0705 3.26789 14.364 3.26789 12.2665C 3.26789 10.6409 5.96997 8.15823 13.5532 6.06632C 14.6616 5.76061 15.8271 5.47606 17.0428 5.21307ZM 44.6478 3.02743L 38.3585 8.78349C 38.0146 9.09573 37.4555 9.09632 37.1117 8.78369C 36.7678 8.47086 36.7678 7.96188 37.1117 7.64905L 42.2406 2.98155C 43.0477 2.99045 43.8505 3.00528 44.6478 3.02743ZM 61.0663 4.57238L 56.4836 8.78369C 56.1402 9.09632 55.5806 9.09652 55.2372 8.78389C 54.8933 8.47106 54.8931 7.96207 55.2368 7.64944L 58.9868 4.2384C 59.6915 4.3434 60.3851 4.45492 61.0663 4.57238ZM 10.3614 19.0433L 27.2776 19.0433C 27.6803 19.0433 28.1305 19.5885 28.1305 20.318C 28.1305 21.0472 27.6803 21.5924 27.2776 21.5924L 10.3614 21.5924C 9.95865 21.5924 9.50849 21.0474 9.50849 20.318C 9.50849 19.5885 9.95865 19.0433 10.3614 19.0433ZM 50.02 20.318C 50.02 21.0472 49.5698 21.5924 49.1672 21.5924L 32.2509 21.5924C 31.8483 21.5924 31.3982 21.0474 31.3982 20.318C 31.3982 19.5885 31.8483 19.0433 32.2509 19.0433L 49.1672 19.0433C 49.5698 19.0433 50.02 19.5885 50.02 20.318ZM 71.0569 21.5924L 54.1408 21.5924C 53.738 21.5924 53.2879 21.0474 53.2879 20.318C 53.2879 19.5885 53.738 19.0433 54.1408 19.0433L 71.0569 19.0433C 71.4595 19.0433 71.9099 19.5885 71.9099 20.318C 71.9099 21.0472 71.4595 21.5924 71.0569 21.5924ZM 7.22309 24.5653L 74.1955 24.5653C 74.7809 24.5653 75.2569 24.9985 75.2569 25.5306C 75.2569 26.0628 74.7806 26.496 74.1955 26.496L 7.22309 26.496C 6.63794 26.496 6.16191 26.063 6.16191 25.5306C 6.16191 24.9983 6.63794 24.5653 7.22309 24.5653Z"/>
<path id="path73_fill" d="M 68.7781 -1.35175e-06L 2.31256 -1.35175e-06C 1.03749 -1.35175e-06 6.6335e-08 1.11388 6.6335e-08 2.27403C 6.6335e-08 3.43418 1.03749 4.54806 2.31256 4.54806L 68.7781 4.54806C 70.0534 4.54806 71.0906 3.43418 71.0906 2.27403C 71.0906 1.11388 70.0534 -1.35175e-06 68.7781 -1.35175e-06Z"/>
<path id="path74_fill" d="M 64.8583 -1.35175e-06L 1.06118 -1.35175e-06C 0.476251 -1.35175e-06 3.9801e-07 0.456387 3.9801e-07 0.988708C 3.9801e-07 1.52103 0.476251 1.97742 1.06118 1.97742L 64.8583 1.97742C 65.4437 1.97742 65.9199 1.52103 65.9199 0.988708C 65.9199 0.456387 65.4437 -1.35175e-06 64.8583 -1.35175e-06Z"/>
<path id="path75_fill" d="M 14.5583 -1.35175e-06L 0.852947 -1.35175e-06C 0.450166 -1.35175e-06 -1.3267e-07 0.55605 -1.3267e-07 1.28552C -1.3267e-07 2.01479 0.450166 2.57064 0.852947 2.57064L 14.5583 2.57064C 14.9611 2.57064 15.4113 2.01479 15.4113 1.28552C 15.4113 0.55605 14.9609 -1.35175e-06 14.5583 -1.35175e-06Z"/>
<path id="path76_fill" d="M 4.24544e-07 -1.01381e-06C 0.145419 0.460935 0.474075 0.767437 0.775998 0.767437L 0.776217 0.767437C 0.474077 0.767437 0.145419 0.460935 4.24544e-07 -1.01381e-06Z"/>
<path id="path77_fill" d="M 0.776217 1.47244e-06C 0.474077 1.47244e-06 0.145419 0.306698 4.24544e-07 0.767832C 0.145419 0.306698 0.474077 1.47244e-06 0.776217 1.47244e-06Z"/>
<path id="path78_fill" d="M 14.5583 -1.35175e-06L 0.852946 -1.35175e-06C 0.450166 -1.35175e-06 2.6534e-07 0.55605 2.6534e-07 1.28552C 2.6534e-07 2.01479 0.450166 2.57064 0.852946 2.57064L 14.5583 2.57064C 14.9607 2.57064 15.4111 2.01479 15.4111 1.28552C 15.4109 0.55605 14.9607 -1.35175e-06 14.5583 -1.35175e-06Z"/>
<path id="path79_fill" d="M 14.5583 -1.35175e-06L 0.852943 -1.35175e-06C 0.450163 -1.35175e-06 9.02157e-07 0.55605 9.02157e-07 1.28552C 9.02157e-07 2.01479 0.450163 2.57064 0.852943 2.57064L 14.5583 2.57064C 14.9609 2.57064 15.4113 2.01479 15.4113 1.28552C 15.4113 0.55605 14.9609 -1.35175e-06 14.5583 -1.35175e-06Z"/>
<path id="path80_fill" d="M 8.80599 1.3397C 7.80175 0.591256 7.00844 5.90048e-07 5.30641 5.90048e-07C 3.60437 5.90048e-07 2.81107 0.591256 1.80683 1.3397C 1.29136 1.72388 0.716931 2.14866 2.53721e-07 2.50114C 0.137083 2.51931 0.275906 2.53169 0.418016 2.53169L 10.6731 2.53169C 9.92798 2.17341 9.33595 1.73471 8.80599 1.3397Z"/>
<path id="path81_fill" d="M 8.86496 1.3397C 7.86072 0.591256 7.06741 5.90048e-07 5.36577 5.90048e-07C 3.66412 5.90048e-07 2.87101 0.591256 1.86676 1.3397C 1.3368 1.73471 0.744965 2.17341 -6.37252e-07 2.53169L 10.7317 2.53169C 9.98676 2.17341 9.39473 1.73471 8.86496 1.3397Z"/>
<path id="path82_fill" d="M 5.36577 5.90048e-07C 3.66412 5.90048e-07 2.87082 0.591256 1.86677 1.3397C 1.3368 1.73471 0.744967 2.17341 1.06209e-06 2.53169L 10.2528 2.53169C 10.3941 2.53169 10.5328 2.51912 10.6693 2.50114C 9.95312 2.14886 9.37985 1.72349 8.86458 1.33951C 7.86053 0.591255 7.06741 5.90048e-07 5.36577 5.90048e-07Z"/>
<path id="path83_fill" d="M 45.0661 -1.39251e-06L 3.25519 -1.39251e-06C 1.6363 -1.39251e-06 0.298528 1.25289 0.0972536 2.81765C 0.0647713 2.84162 0.0319019 2.88551 -3.6583e-07 2.90929C 1.14519 2.05586 2.57055 1.00328 5.23661 1.00328C 7.90267 1.00328 9.32803 2.07036 10.4734 2.92399C 11.4777 3.67243 12.271 4.2662 13.973 4.2662C 15.6746 4.2662 16.4678 3.67611 17.472 2.92766C 18.6172 2.07403 20.0424 1.01237 22.7082 1.01237C 25.3745 1.01237 26.7994 2.075 27.9448 2.92863C 28.9489 3.67707 29.742 4.26852 31.4438 4.26852C 33.1455 4.26852 33.9386 3.67746 34.9426 2.92901C 36.088 2.07539 37.513 1.01314 40.1791 1.01314C 42.8449 1.01314 44.2701 2.07558 45.4153 2.92901C 46.2457 3.54792 46.9331 4.05797 48.1074 4.2167C 48.2018 3.91605 48.253 3.55739 48.253 3.2258C 48.253 1.46847 46.8232 -1.39251e-06 45.0661 -1.39251e-06Z"/>
<path id="path84_fill" d="M -2.07697e-06 1.88815e-07C 0.0601288 0.0235885 0.11794 0.0518177 0.175944 0.0796597C 0.117554 0.0518177 0.0603222 0.0237819 -2.07697e-06 1.88815e-07Z"/>
<path id="path85_fill" d="M -2.87944e-06 1.2509e-06C 0.0583879 0.0363505 0.115814 0.0740507 0.171111 0.114654C 0.115621 0.0738573 0.0587746 0.0363505 -2.87944e-06 1.2509e-06Z"/>
<path id="path86_fill" d="M 2.5018e-06 9.20475e-07C 0.0444723 0.0572316 0.0929974 0.111369 0.132634 0.17208C 0.0928041 0.111175 0.0446657 0.0572316 2.5018e-06 9.20475e-07Z"/>
<path id="path87_fill" d="M 2.12417e-06 -1.41612e-06C 0.0460187 0.0966721 0.0829456 0.197406 0.117168 0.300074C 0.0827522 0.197213 0.0462121 0.0966721 2.12417e-06 -1.41612e-06Z"/>
<path id="path88_fill" d="M 2.17138e-06 4.72039e-07C 0.0541393 0.0104412 0.105182 0.0280351 0.158159 0.0415694C 0.105182 0.0278417 0.0541393 0.0102479 2.17138e-06 4.72039e-07Z"/>
<path id="path89_fill" d="M 0.156609 0.146558C 0.107112 0.0945473 0.0535552 0.0479486 -1.88815e-06 -1.46332e-06C 0.0531685 0.0479486 0.107305 0.0947407 0.156609 0.146558Z"/>
<path id="path90_fill" d="M 0.0419562 0.158545C 0.0282286 0.105568 0.0106342 0.0541366 1.2686e-07 -5.42844e-07C 0.0106342 0.05433 0.0282286 0.105375 0.0419562 0.158545Z"/>
<path id="path91_fill" d="M 0.307035 0.120843C 0.202047 0.0856541 0.0988006 0.0475647 3.18626e-07 1.32171e-06C 0.0991873 0.0475647 0.201854 0.0856541 0.307035 0.120843Z"/>
<path id="path92_fill" d="M 0.173432 0.133603C 0.112141 0.0935807 0.0578107 0.0448554 -1.06209e-07 -1.15649e-06C 0.0578107 0.0450487 0.112141 0.0933873 0.173432 0.133603Z"/>
<path id="path93_fill" d="M 50.7006 0.217903C 50.4966 0.167633 50.2845 -1.39251e-06 50.0653 -1.39251e-06L 2.66045 -1.39251e-06C 1.19353 -1.39251e-06 -4.13034e-08 1.331 -4.13034e-08 2.79773C -4.13034e-08 3.01699 0.0299688 3.30565 0.0804324 3.50964C 0.28712 3.56145 0.500189 3.67359 0.722731 3.67359L 48.1278 3.67359C 49.5947 3.67359 50.7882 2.4035 50.7882 0.936574C 50.788 0.714031 50.7522 0.424591 50.7006 0.217903Z"/>
<path id="path94_fill" d="M 3.54029e-08 1.41612e-07C 0.0481434 0.0537506 0.0947398 0.107502 0.146943 0.157192C 0.0949331 0.107888 0.0479501 0.0533639 3.54029e-08 1.41612e-07Z"/>
<path id="path95_fill" d="M 0.0800457 0.176718C 0.0520104 0.11852 0.0237818 0.0605189 1.06209e-07 1.32171e-06C 0.0237818 0.0607123 0.0520104 0.118134 0.0800457 0.176718Z"/>
<path id="path96_fill" d="M 0.115235 0.171886C 0.0744386 0.116202 0.0365425 0.0585833 -9.44077e-08 -8.4967e-07C 0.0367358 0.05897 0.0742453 0.116202 0.115235 0.171886Z"/>
<path id="path97_fill" d="M 51.9367 1.55773e-06L 3.29328 1.55773e-06C 0.22931 1.55773e-06 1.53413e-07 0.742646 1.53413e-07 2.04252C 1.53413e-07 4.28167 1.47717 5.99376 3.29328 5.99376L 51.9365 5.99376C 53.7522 5.99376 55.2298 4.28167 55.2298 2.04252C 55.2298 0.742646 55.0005 1.55773e-06 51.9367 1.55773e-06Z"/>
<path id="path98_fill" d="M -9.44077e-08 -1.01488e-06C 0.0274552 0.0286143 0.0531704 0.0589708 0.0812057 0.0868128C 0.052977 0.0589708 0.0274552 0.0286143 -9.44077e-08 -1.01488e-06Z"/>
<path id="path99_fill" d="M -9.44077e-07 -2.83223e-07C 0.0964792 0.0632242 0.189094 0.127608 0.283641 0.191413C 0.189094 0.127608 0.0964792 0.0630308 -9.44077e-07 -2.83223e-07Z"/>
<path id="path100_fill" d="M 0.0305488 0.147912C 0.0195281 0.0988017 0.00928066 0.0494954 1.47512e-09 -1.41612e-06C 0.00928066 0.0494954 0.0195281 0.0988017 0.0305488 0.147912Z"/>
<path id="path101_fill" d="M 0.0164345 0.134763C 0.0108275 0.0899069 0.00406032 0.0452425 3.24527e-08 -7.08058e-07C 0.00406032 0.0454358 0.0110208 0.0899069 0.0164345 0.134763Z"/>
<path id="path102_fill" d="M 0.214423 0.220609C 0.142304 0.14733 0.0740513 0.072892 -6.60854e-07 1.29811e-07C 0.0740513 0.0726986 0.142304 0.147137 0.214423 0.220609Z"/>
<path id="path103_fill" d="M 1.79375e-06 -1.53413e-07C 0.0902949 0.0982201 0.175753 0.197795 0.262373 0.296788C 0.17556 0.197601 0.0901015 0.0982201 1.79375e-06 -1.53413e-07Z"/>
<path id="path104_fill" d="M 1.03849e-06 -4.8384e-07C 0.104602 0.0819787 0.209203 0.163958 0.310903 0.246711C 0.209203 0.163958 0.104602 0.0819787 1.03849e-06 -4.8384e-07Z"/>
<path id="path105_fill" d="M 0.0390562 0.133604C 0.0247485 0.0897138 0.0129542 0.0446621 -2.21268e-08 -1.06209e-06C 0.0129542 0.0446621 0.0249419 0.0895205 0.0390562 0.133604Z"/>
<path id="path106_fill" d="M 2.83223e-06 -2.00616e-07C 0.0904892 0.0783054 0.183679 0.155645 0.272039 0.234724C 0.183679 0.155645 0.0904892 0.0783054 2.83223e-06 -2.00616e-07Z"/>
<path id="path107_fill" d="M 2.21858e-06 -2.83223e-07C 0.107503 0.0769518 0.213069 0.154678 0.318056 0.232597C 0.212875 0.154678 0.107503 0.0769518 2.21858e-06 -2.83223e-07Z"/>
<path id="path108_fill" d="M 0.149264 0.0995725C 0.0988003 0.0670902 0.0489168 0.0344147 4.13034e-08 -1.08569e-06C 0.0489168 0.0344147 0.0989936 0.0670902 0.149264 0.0995725Z"/>
<path id="path109_fill" d="M 0.0197216 0.0518182C 0.0125677 0.0348036 0.00696042 0.0170147 -7.67063e-08 1.41612e-07C 0.00696042 0.0170147 0.0125677 0.0348036 0.0197216 0.0518182Z"/>
<path id="path110_fill" d="M 0.14211 0.0655452C 0.0937734 0.0454371 0.0475634 0.0216546 -5.90048e-09 -2.83223e-07C 0.0475634 0.0216546 0.0939668 0.0454371 0.14211 0.0655452Z"/>
<path id="path111_fill" d="M 52.3008 6.78629C 51.5653 6.21978 50.7665 5.67493 49.9025 5.15657C 44.3602 1.83119 36.9612 -1.06209e-07 29.0684 -1.06209e-07C 21.1752 -1.06209e-07 13.776 1.83138 8.23388 5.15657C 2.92418 8.34234 1.53413e-07 12.4985 1.53413e-07 16.8595C 1.53413e-07 17.4482 0.110981 17.879 0.311482 18.3977C 0.763334 18.5445 1.244 18.4936 1.74399 18.4936L 50.5788 18.4936C 53.1432 18.4936 55.2296 16.5393 55.2296 13.9745C 55.2298 11.4113 54.2122 9.0527 52.3008 6.78629ZM 10.7064 12.6936C 10.4371 12.963 10.061 13.1178 9.67934 13.1178C 9.29767 13.1178 8.92354 12.963 8.65228 12.6936C 8.38101 12.4222 8.22595 12.0482 8.22595 11.6644C 8.22595 11.2828 8.38101 10.9088 8.65228 10.6374C 8.92354 10.3659 9.29767 10.211 9.67934 10.211C 10.0612 10.211 10.4371 10.3659 10.7064 10.6374C 10.9777 10.9086 11.1327 11.2828 11.1327 11.6644C 11.1327 12.0482 10.9777 12.4222 10.7064 12.6936ZM 19.3784 5.36828C 19.1091 5.63781 18.7349 5.79287 18.3513 5.79287C 17.9695 5.79287 17.5955 5.638 17.3243 5.36828C 17.053 5.09721 16.8981 4.72308 16.8981 4.33948C 16.8981 3.95781 17.053 3.58175 17.3243 3.31242C 17.5938 3.04096 17.9697 2.88609 18.3513 2.88609C 18.7349 2.88609 19.1091 3.04116 19.3784 3.31242C 19.6497 3.58175 19.8047 3.95781 19.8047 4.33948C 19.8047 4.72308 19.6497 5.09701 19.3784 5.36828ZM 27.19 12.6936C 26.9185 12.963 26.5427 13.1178 26.1608 13.1178C 25.7792 13.1178 25.4052 12.963 25.1338 12.6936C 24.8625 12.4222 24.7074 12.0482 24.7074 11.6644C 24.7074 11.2828 24.8625 10.9088 25.1338 10.6374C 25.405 10.3659 25.7792 10.211 26.1608 10.211C 26.5427 10.211 26.9185 10.3659 27.19 10.6374C 27.4595 10.9086 27.6142 11.2828 27.6142 11.6644C 27.6142 12.0482 27.4595 12.4222 27.19 12.6936ZM 34.9977 5.36828C 34.7284 5.63781 34.3545 5.79287 33.9707 5.79287C 33.5888 5.79287 33.2149 5.638 32.9434 5.36828C 32.6722 5.09721 32.5173 4.72308 32.5173 4.33948C 32.5173 3.95781 32.6722 3.58175 32.9434 3.31242C 33.2147 3.04096 33.5888 2.88609 33.9707 2.88609C 34.3545 2.88609 34.7284 3.04116 34.9977 3.31242C 35.269 3.58175 35.4241 3.95781 35.4241 4.33948C 35.4241 4.72308 35.269 5.09701 34.9977 5.36828ZM 43.6697 12.6936C 43.4004 12.963 43.0265 13.1178 42.6427 13.1178C 42.2608 13.1178 41.8869 12.963 41.6154 12.6936C 41.3444 12.4222 41.1893 12.0482 41.1893 11.6644C 41.1893 11.2828 41.3444 10.9088 41.6154 10.6374C 41.8869 10.3659 42.2608 10.211 42.6427 10.211C 43.0265 10.211 43.4004 10.3659 43.6697 10.6374C 43.9408 10.9086 44.0961 11.2828 44.0961 11.6644C 44.0961 12.0482 43.9408 12.4222 43.6697 12.6936Z"/>
<path id="path112_fill" d="M 0.157578 0.088165C 0.104214 0.0601296 0.0522036 0.0299687 -5.60546e-08 -4.72039e-08C 0.0522036 0.0299687 0.104214 0.0601296 0.157578 0.088165Z"/>
<path id="path113_fill" d="M 0.0694116 0.120841C 0.0462099 0.080431 0.0218483 0.0409882 1.1801e-07 -1.36891e-06C 0.0218483 0.0411815 0.0462099 0.0806243 0.0694116 0.120841Z"/>
<path id="path114_fill" d="M 0.0904863 0.132829C 0.0595507 0.0891329 0.0291955 0.0448571 1.47512e-07 5.66446e-07C 0.0293889 0.0448571 0.0597441 0.0889395 0.0904863 0.132829Z"/>
<path id="path115_fill" d="M 0.125869 0.0987996C 0.0839127 0.0659306 0.0407962 0.0342214 -7.3756e-08 -1.06209e-06C 0.0409895 0.0344147 0.0837194 0.0659306 0.125869 0.0987996Z"/>
<path id="path116_fill" d="M 0.0995736 0.124323C 0.0653512 0.0837197 0.032869 0.0417624 -2.06517e-08 -5.90048e-07C 0.032869 0.0417624 0.0653512 0.0837197 0.0995736 0.124323Z"/>
<path id="path117_fill" d="M 1.45339 6.84456e-07C 1.07153 6.84456e-07 0.697596 0.155064 0.42633 0.42633C 0.155064 0.697789 -2.00616e-07 1.07172 -2.00616e-07 1.45339C -2.00616e-07 1.83718 0.154871 2.21112 0.42633 2.48258C 0.697596 2.75191 1.07172 2.90678 1.45339 2.90678C 1.83506 2.90678 2.21112 2.75191 2.48045 2.48258C 2.75172 2.21112 2.90678 1.83718 2.90678 1.45339C 2.90678 1.07172 2.75172 0.697789 2.48045 0.42633C 2.21092 0.155064 1.83506 6.84456e-07 1.45339 6.84456e-07Z"/>
<path id="path118_fill" d="M 1.4532 6.84456e-07C 1.07153 6.84456e-07 0.697595 0.155064 0.426329 0.42633C 0.15487 0.697789 -1.03849e-06 1.07172 -1.03849e-06 1.45339C -1.03849e-06 1.83718 0.155064 2.21112 0.426329 2.48258C 0.697595 2.75191 1.07172 2.90678 1.4532 2.90678C 1.83506 2.90678 2.21092 2.75191 2.48238 2.48258C 2.75191 2.21112 2.90678 1.83718 2.90678 1.45339C 2.90678 1.07172 2.75191 0.697789 2.48238 0.42633C 2.21092 0.155064 1.83506 6.84456e-07 1.4532 6.84456e-07Z"/>
<path id="path119_fill" d="M 1.45339 6.84456e-07C 1.07153 6.84456e-07 0.697595 0.155064 0.426135 0.42633C 0.155063 0.697789 -4.01233e-07 1.07172 -4.01233e-07 1.45339C -4.01233e-07 1.83718 0.155063 2.21112 0.426135 2.48258C 0.697595 2.75191 1.07153 2.90678 1.45339 2.90678C 1.83718 2.90678 2.21112 2.75191 2.48045 2.48258C 2.75171 2.21112 2.90678 1.83718 2.90678 1.45339C 2.90678 1.07172 2.75171 0.697789 2.48045 0.42633C 2.21112 0.155064 1.83718 6.84456e-07 1.45339 6.84456e-07Z"/>
<path id="path120_fill" d="M 1.45339 3.77631e-07C 1.07153 3.77631e-07 0.695662 0.154872 0.42633 0.426331C 0.155064 0.695663 -7.08058e-07 1.07172 -7.08058e-07 1.45339C -7.08058e-07 1.83718 0.155064 2.21112 0.42633 2.48238C 0.697596 2.75191 1.07172 2.90678 1.45339 2.90678C 1.83699 2.90678 2.21112 2.75191 2.48045 2.48238C 2.75172 2.21112 2.90678 1.83718 2.90678 1.45339C 2.90678 1.07172 2.75172 0.695663 2.48045 0.426331C 2.21092 0.155065 1.83699 3.77631e-07 1.45339 3.77631e-07Z"/>
<path id="path121_fill" d="M 1.45339 3.77631e-07C 1.07153 3.77631e-07 0.697597 0.154872 0.426137 0.426331C 0.155065 0.695663 -1.36891e-06 1.07172 -1.36891e-06 1.45339C -1.36891e-06 1.83718 0.155065 2.21112 0.426137 2.48238C 0.697597 2.75191 1.07153 2.90678 1.45339 2.90678C 1.83718 2.90678 2.21112 2.75191 2.48045 2.48238C 2.75172 2.21112 2.90678 1.83718 2.90678 1.45339C 2.90678 1.07172 2.75152 0.695663 2.48045 0.426331C 2.21112 0.155065 1.83718 3.77631e-07 1.45339 3.77631e-07Z"/>
<path id="path122_fill" d="M 60.4049 42.1976C 60.9358 41.3451 61.2448 40.3411 61.2448 39.2651C 61.2448 37.3498 60.2721 35.6572 58.7953 34.6553C 59.8071 33.5672 60.4279 32.1109 60.4279 30.5113C 60.4279 29.114 59.9542 27.8261 59.1601 26.7973C 61.9621 25.6902 63.9503 22.9571 63.9503 19.7664C 63.9503 14.3442 60.5248 9.30289 54.305 5.57091C 48.3176 1.97852 40.3873 1.74064e-07 31.9753 1.74064e-07C 23.563 1.74064e-07 15.6327 1.97833 9.64531 5.57091C 3.42534 9.3025 0 14.3438 0 19.7663C 0 22.9569 1.98819 25.6902 4.78998 26.7971C 3.99571 27.8259 3.5224 29.1138 3.5224 30.5111C 3.5224 32.1109 4.14401 33.5666 5.15579 34.6546C 3.67823 35.6567 2.70531 37.3492 2.70531 39.2649C 2.70531 40.3411 3.01428 41.3451 3.54521 42.1974C 1.80953 42.646 0 43.8343 0 46.9843C 0 50.8265 2.7813 53.9519 6.20006 53.9519L 57.75 53.9519C 61.1688 53.9519 63.9501 50.8263 63.9501 46.9843C 63.9503 43.8339 62.1406 42.646 60.4049 42.1976ZM 57.75 51.0452L 6.20006 51.0452C 4.38414 51.0452 2.90678 49.2234 2.90678 46.9843C 2.90678 45.6844 3.13609 44.8321 6.20006 44.8321L 57.75 44.8321C 60.814 44.8321 61.0433 45.6842 61.0433 46.9843C 61.0433 49.2234 59.566 51.0452 57.75 51.0452ZM 54.334 33.6981L 44.0812 33.6981C 44.826 33.3396 45.418 32.9009 45.948 32.5061C 46.952 31.7576 47.7453 31.1664 49.447 31.1664C 51.1486 31.1664 51.9417 31.7576 52.9459 32.5061C 53.461 32.8901 54.0345 33.3152 54.7507 33.6677C 54.614 33.6857 54.4753 33.6981 54.334 33.6981ZM 26.6105 33.6981C 27.3555 33.3396 27.9473 32.9009 28.4773 32.5061C 29.4814 31.7576 30.2747 31.1664 31.9763 31.1664C 33.678 31.1664 34.4713 31.7576 35.4755 32.5061C 36.0053 32.9011 36.5973 33.3398 37.3423 33.6981L 26.6105 33.6981ZM 9.61631 33.6981C 9.4742 33.6981 9.33537 33.6855 9.19829 33.6675C 9.91522 33.315 10.4897 32.8903 11.0051 32.5061C 12.0094 31.7576 12.8027 31.1664 14.5047 31.1664C 16.2067 31.1664 17 31.7576 18.0043 32.5061C 18.5342 32.9011 19.1263 33.3398 19.8712 33.6981L 9.61631 33.6981ZM 57.3753 31.4632C 56.2009 31.3046 55.5136 30.7944 54.6832 30.1755C 53.538 29.322 52.1128 28.2596 49.447 28.2596C 46.7811 28.2596 45.3559 29.3218 44.2107 30.1755C 43.2065 30.9239 42.4134 31.5152 40.7117 31.5152C 39.0101 31.5152 38.217 30.9239 37.2127 30.1755C 36.0673 29.3218 34.6424 28.2596 31.9763 28.2596C 29.3104 28.2596 27.8853 29.3218 26.7401 30.1755C 25.7358 30.9239 24.9427 31.5152 23.2411 31.5152C 21.5391 31.5152 20.7457 30.9239 19.7415 30.1755C 18.5961 29.3218 17.171 28.2596 14.5047 28.2596C 11.8386 28.2596 10.4133 29.3218 9.2679 30.1753C 8.43747 30.7944 7.74974 31.3048 6.57457 31.4632C 6.48022 31.1625 6.42898 30.8427 6.42898 30.5111C 6.42898 28.754 7.85878 27.3244 9.61611 27.3244L 54.3338 27.3244C 56.0909 27.3244 57.5207 28.754 57.5207 30.5111C 57.5209 30.8425 57.4697 31.1625 57.3753 31.4632ZM 56.3926 24.4174L 7.55774 24.4174C 4.99319 24.4174 2.90678 22.3308 2.90678 19.7661C 2.90678 15.4051 5.83096 11.2489 11.1407 8.06315C 16.6828 4.73797 24.082 2.90659 31.9751 2.90659C 39.868 2.90659 47.267 4.73797 52.8093 8.06315C 58.1191 11.2489 61.0433 15.4051 61.0433 19.7661C 61.0433 22.3308 58.9569 24.4174 56.3926 24.4174ZM 8.27254 36.605L 55.6774 36.605C 57.1445 36.605 58.3378 37.7982 58.3378 39.2651C 58.3378 40.7322 57.1445 41.9256 55.6774 41.9256L 8.27254 41.9256C 6.80562 41.9256 5.61209 40.7322 5.61209 39.2651C 5.61228 37.7982 6.80562 36.605 8.27254 36.605Z"/>
<path id="path123_fill" d="M 108.122 33.6328L 101.283 33.6328C 100.943 25.2068 94.0817 18.4362 85.6207 18.238C 81.5777 9.74513 73.0778 4.33145 63.5763 4.33145C 61.1005 4.33145 58.6648 4.71127 56.3416 5.43116C 54.092 2.31587 50.6039 0.335263 46.7014 0.0380591C 45.8244 -0.0282056 44.9432 -0.00790423 44.0846 0.0986832C 38.6306 0.770635 34.2935 4.67997 32.9795 9.87399C 31.5504 9.89627 30.1236 10.0367 28.7326 10.3043C 17.4798 12.4654 9.2607 22.2187 8.95645 33.6326L 2.11962 33.6326C 0.948854 33.6326 0 34.5814 0 35.7522C 0 38.3165 5.56341 45.3998 8.25771 48.4285C 12.4586 53.1507 18.6238 58.7799 24.1381 58.7799L 86.1038 58.7799C 91.6178 58.7799 97.783 53.1507 101.984 48.4285C 104.678 45.4 110.242 38.3165 110.242 35.7522C 110.242 34.5817 109.292 33.6328 108.122 33.6328ZM 98.3706 46.107C 93.4997 51.4665 89.0287 54.5406 86.1038 54.5406L 24.1378 54.5406C 21.2129 54.5406 16.7418 51.4665 11.871 46.107C 9.03061 42.9812 6.81934 39.9297 5.51407 37.8721L 104.727 37.8721C 103.422 39.9297 101.211 42.9812 98.3706 46.107ZM 46.3802 4.26546C 48.6701 4.43972 50.7514 5.47007 52.258 7.11569C 50.5188 8.02591 48.8808 9.14423 47.388 10.4661C 46.559 11.201 45.7756 12.0001 45.0526 12.841C 42.6358 11.5174 40.0278 10.6224 37.3084 10.1816C 38.4008 7.03984 41.1769 4.72847 44.6049 4.30579C 45.1866 4.2336 45.7841 4.21978 46.3802 4.26546ZM 97.0408 33.6328L 92.9059 33.6328C 92.5726 29.695 89.263 26.5921 85.2406 26.5921C 81.2179 26.5921 77.9084 29.6947 77.5751 33.6328L 75.8378 33.6328C 75.8378 33.612 75.8395 33.5914 75.8395 33.5705C 75.8395 31.8287 75.4822 30.1693 74.8382 28.6599C 76.4037 25.7764 81.0425 22.4679 85.2406 22.4679C 91.538 22.4679 96.6999 27.4189 97.0408 33.6328ZM 61.6352 25.4194C 62.1718 25.3108 62.727 25.2559 63.2856 25.2559C 67.8703 25.2559 71.6003 28.9856 71.6003 33.5705C 71.6003 33.5914 71.5988 33.612 71.5986 33.6328L 54.9726 33.6328C 54.9723 33.612 54.9709 33.5914 54.9709 33.5705C 54.9709 29.6248 57.7726 26.1971 61.6352 25.4194ZM 63.2856 21.0163C 62.4453 21.0163 61.6067 21.0998 60.796 21.2639C 58.7725 21.6714 56.9419 22.5613 55.4133 23.7978C 55.0476 23.0333 54.6399 22.2889 54.1969 21.5656C 56.4265 18.646 59.8446 16.9336 63.576 16.9336C 67.877 16.9336 71.7762 19.2331 73.8738 22.96C 73.2978 23.5361 72.7592 24.1528 72.2725 24.8171C 69.9907 22.475 66.8058 21.0163 63.2856 21.0163ZM 81.8484 33.6328C 82.1555 32.0394 83.5589 30.8314 85.2403 30.8314C 86.9221 30.8314 88.3252 32.0394 88.6322 33.6328L 81.8484 33.6328ZM 77.2694 20.3613C 74.358 15.6026 69.2192 12.6943 63.576 12.6943C 58.9155 12.6943 54.6125 14.6569 51.5959 18.0533C 50.6837 17.0252 49.6816 16.0772 48.6078 15.2155C 49.1089 14.6617 49.6418 14.133 50.1993 13.6395C 53.8893 10.3706 58.64 8.57041 63.5763 8.57041C 70.9359 8.57041 77.5672 12.5009 81.1223 18.7724C 79.7711 19.1344 78.476 19.6702 77.2694 20.3613ZM 52.3488 27.4226C 51.3162 29.2543 50.7314 31.3584 50.7314 33.5705C 50.7314 33.5914 50.7328 33.612 50.7328 33.6328L 49.4061 33.6328C 49.0612 25.0805 41.9994 18.2287 33.3641 18.2287C 24.7288 18.2287 17.667 25.0807 17.3221 33.6328L 13.1957 33.6328C 13.4985 24.2486 20.2728 16.2456 29.5329 14.4677C 30.7854 14.2269 32.0749 14.1045 33.3644 14.1045C 41.9534 14.1045 49.4678 19.4186 52.3488 27.4226ZM 33.3641 26.5921C 29.3414 26.5921 26.0319 29.6947 25.6986 33.6328L 21.5639 33.6328C 21.9048 27.4192 27.0667 22.4679 33.3641 22.4679C 39.6615 22.4679 44.8234 27.4192 45.1643 33.6328L 41.0294 33.6328C 40.6961 29.6947 37.3865 26.5921 33.3641 26.5921ZM 36.756 33.6328L 29.9722 33.6328C 30.2793 32.0394 31.6827 30.8314 33.3644 30.8314C 35.0458 30.8314 36.449 32.0394 36.756 33.6328Z"/>
<path id="path124_fill" d="M 3.3919 9.6379e-07C 1.71019 9.6379e-07 0.306791 1.20799 -4.81895e-07 2.80145L 6.78381 2.80145C 6.47674 1.20799 5.07362 9.6379e-07 3.3919 9.6379e-07Z"/>
<path id="path125_fill" d="M 9.37913 2.40947e-07C 5.64773 2.40947e-07 2.22931 1.71245 -1.48011e-06 4.63204C 0.442985 5.35531 0.851009 6.09973 1.21645 6.86418C 2.74505 5.6277 4.57536 4.7375 6.59911 4.33033C 7.4098 4.16621 8.24812 4.08275 9.08869 4.08275C 12.6089 4.08275 15.7938 5.54142 18.0759 7.88352C 18.5626 7.21918 19.1011 6.60222 19.6772 6.02642C 17.579 2.29952 13.6801 2.40947e-07 9.37913 2.40947e-07Z"/>
<path id="path126_fill" d="M 19.4655 11.1649L 23.6004 11.1649C 23.2595 4.95124 18.0976 -6.88421e-08 11.8002 -6.88421e-08C 5.50279 -6.88421e-08 0.34091 4.95124 -2.75368e-07 11.1649L 4.13463 11.1649C 4.46793 7.22708 7.7775 4.1242 11.8002 4.1242C 15.8226 4.1242 19.1322 7.2268 19.4655 11.1649Z"/>
<path id="path127_fill" d="M -2.06526e-07 2.80145L 6.78381 2.80145C 6.47702 1.20799 5.07362 9.6379e-07 3.39219 9.6379e-07C 1.71019 9.6379e-07 0.306791 1.20799 -2.06526e-07 2.80145Z"/>
<path id="path128_fill" d="M 1.85874e-06 -4.13053e-07C 0.0781096 0.0600608 0.156214 0.120121 0.232912 0.182156C 0.156214 0.120121 0.0783916 0.0600608 1.85874e-06 -4.13053e-07Z"/>
<path id="path129_fill" d="M 3.23558e-06 -9.6379e-07C 0.0578086 0.0640079 0.118432 0.126043 0.174828 0.191462C 0.11815 0.125761 0.0580906 0.0640079 3.23558e-06 -9.6379e-07Z"/>
<path id="path130_fill" d="M 0.205277 0.200766C 0.137039 0.133656 0.0702111 0.065138 -1.23916e-06 1.23916e-06C 0.0702111 0.065138 0.137039 0.133656 0.205277 0.200766Z"/>
<path id="path131_fill" d="M 3.37326e-06 1.17032e-06C 0.0710617 0.0366582 0.140424 0.0758507 0.210918 0.113918C 0.140424 0.0761327 0.0710617 0.0366582 3.37326e-06 1.17032e-06Z"/>
<path id="path132_fill" d="M 1.85874e-06 -3.44211e-08C 0.0513217 0.0324274 0.104612 0.0623182 0.155086 0.0955916C 0.10433 0.0623182 0.0513217 0.0324274 1.85874e-06 -3.44211e-08Z"/>
<path id="path133_fill" d="M 4.13053e-06 -2.13411e-06C 0.0730363 0.0290415 0.146626 0.0575226 0.219094 0.0876941C 0.146626 0.0572406 0.0733182 0.0287596 4.13053e-06 -2.13411e-06Z"/>
<path id="path134_fill" d="M 17.6354 2.48958C 15.6348 0.936163 13.1258 3.44211e-08 10.4021 3.44211e-08C 6.20435 3.44211e-08 1.56526 3.30393 1.85874e-06 6.18771C 0.305383 6.90309 0.543932 7.65117 0.712836 8.42718C 0.678999 8.62935 0.651366 8.83266 0.633883 9.03963C 0.96718 5.10182 4.27675 2.01557 8.29944 2.01557C 12.3218 2.01557 15.6314 5.4072 15.9647 9.0729L 20.0996 9.0729C 19.9643 6.81708 19.06 4.32779 17.6354 2.48958Z"/>
<path id="path135_fill" d="M 2.13411e-06 1.85874e-06C 0.0665488 0.00592338 0.133096 0.0107137 0.19936 0.0177631C 0.133096 0.0107137 0.0665488 0.00592338 2.13411e-06 1.85874e-06Z"/>
<path id="path136_fill" d="M -2.47832e-06 1.20474e-06C 0.0245296 0.00733262 0.0501936 0.0129696 0.0747257 0.020301C 0.0499116 0.0126876 0.0245296 0.00733262 -2.47832e-06 1.20474e-06Z"/>
<path id="path137_fill" d="M -3.924e-06 -1.308e-06C 0.0651328 0.0124057 0.129706 0.0273517 0.194561 0.0408866C 0.129424 0.0273517 0.0651328 0.0124057 -3.924e-06 -1.308e-06Z"/>
<path id="path138_fill" d="M 9.29369e-07 1.06705e-06C 0.132248 0.0772629 0.262237 0.157907 0.392793 0.237988C 0.262237 0.157907 0.13253 0.0772629 9.29369e-07 1.06705e-06Z"/>
<path id="path139_fill" d="M 1.68663e-06 -4.47474e-07C 0.101232 0.0487816 0.204717 0.0939004 0.305101 0.144374C 0.204435 0.0941824 0.101514 0.0487816 1.68663e-06 -4.47474e-07Z"/>
<path id="path140_fill" d="M -1.89316e-06 1.48011e-06C 0.129144 0.0510394 0.257165 0.104894 0.385183 0.158751C 0.257165 0.104894 0.129708 0.0510394 -1.89316e-06 1.48011e-06Z"/>
<path id="path141_fill" d="M 0.349935 0.326247C 0.235452 0.214866 0.117023 0.108561 2.13411e-06 -6.88421e-08C 0.116741 0.108561 0.235452 0.214866 0.349935 0.326247Z"/>
<path id="path142_fill" d="M -8.94948e-07 1.23916e-06C 0.127453 0.102923 0.251241 0.210075 0.376157 0.316098C 0.251241 0.210075 0.127735 0.102923 -8.94948e-07 1.23916e-06Z"/>
<path id="path143_fill" d="M 2.09968e-06 -3.44211e-08C 0.117587 0.0797996 0.236863 0.156779 0.352474 0.239398C 0.236863 0.156779 0.117587 0.0797996 2.09968e-06 -3.44211e-08Z"/>
<path id="path144_fill" d="M 6.3679e-07 -1.03263e-06C 0.122097 0.00845829 0.24391 0.0183289 0.365443 0.0287621C 0.24391 0.0180469 0.122379 0.00845829 6.3679e-07 -1.03263e-06Z"/>
<path id="path145_fill" d="M 36.855 11.3155C 35.9194 8.7162 34.4887 6.40681 32.6975 4.46483C 29.201 1.6397 24.7672 3.0979e-07 20.0001 3.0979e-07C 18.7106 3.0979e-07 17.4214 0.139297 16.1686 0.380387C 7.57532 2.03024 1.1265 8.81884 -3.95842e-07 17.5601L 1.82806 17.5601C 2.1732 8.81884 9.23476 2.156 17.87 2.156C 26.5056 2.156 33.5672 8.81884 33.9123 17.5601L 35.239 17.5601C 35.239 17.5601 35.2376 17.5015 35.2376 17.4806C 35.2376 15.2685 35.8227 13.1472 36.855 11.3155Z"/>
<path id="path146_fill" d="M 1.51453e-06 -4.47474e-07C 0.0735976 0.0225577 0.148602 0.0420127 0.221634 0.0654168C 0.148602 0.0420127 0.0735976 0.0228397 1.51453e-06 -4.47474e-07Z"/>
<path id="path147_fill" d="M 6.54e-07 2.03084e-06C 0.0375036 0.00564158 0.0755689 0.00902355 0.11279 0.0149451C 0.0755689 0.00902355 0.0375036 0.00564158 6.54e-07 2.03084e-06Z"/>
<path id="path148_fill" d="M 3.0979e-07 5.16316e-07C 0.123788 0.0281983 0.246732 0.0580865 0.369674 0.0885401C 0.246732 0.0580865 0.123788 0.0281983 3.0979e-07 5.16316e-07Z"/>
<path id="path149_fill" d="M 3.924e-06 -2.40947e-07C 0.148888 0.084593 0.296919 0.170316 0.443829 0.258575C 0.296919 0.170316 0.14917 0.084593 3.924e-06 -2.40947e-07Z"/>
<path id="path150_fill" d="M -2.13411e-06 -1.92758e-06C 0.142678 0.0685186 0.286209 0.135066 0.427198 0.206688C 0.285927 0.135066 0.142396 0.0682366 -2.13411e-06 -1.92758e-06Z"/>
<path id="path151_fill" d="M -3.99284e-06 1.27358e-06C 0.14465 0.0961555 0.285645 0.197949 0.42748 0.297769C 0.285363 0.197667 0.14465 0.0961555 -3.99284e-06 1.27358e-06Z"/>
<path id="path152_fill" d="M 3.30442e-06 7.22842e-07C 0.147759 0.111664 0.294099 0.225298 0.439035 0.341191C 0.294099 0.22558 0.147759 0.111946 3.30442e-06 7.22842e-07Z"/>
<path id="path153_fill" d="M 2.89137e-06 -2.75368e-07C 0.138736 0.11843 0.278595 0.235734 0.414226 0.358112C 0.278595 0.235734 0.139018 0.11843 2.89137e-06 -2.75368e-07Z"/>
<path id="path154_fill" d="M 0.52391 0.528426C 0.352468 0.348807 0.17765 0.17285 4.06169e-06 -1.65221e-06C 0.17765 0.17285 0.352186 0.348807 0.52391 0.528426Z"/>
<path id="path155_fill" d="M 1.06705e-06 7.05632e-07C 0.150295 0.0611898 0.300026 0.12407 0.448628 0.188643C 0.299744 0.124352 0.150295 0.0611898 1.06705e-06 7.05632e-07Z"/>
<path id="path156_fill" d="M 1.03263e-06 -3.61421e-07C 0.131684 0.007895 0.261955 0.0208658 0.392793 0.031581C 0.261955 0.0208658 0.131684 0.007895 1.03263e-06 -3.61421e-07Z"/>
<path id="path157_fill" d="M 1.23916e-06 1.01542e-06C 0.137606 0.0465273 0.273238 0.0981277 0.409715 0.147474C 0.273238 0.0981277 0.137888 0.0465273 1.23916e-06 1.01542e-06Z"/>
<path id="path158_fill" d="M 28.2101 4.56521C 24.6832 1.6693 20.1997 -1.48011e-06 15.4061 -1.48011e-06C 10.4698 -1.48011e-06 5.71907 1.80014 2.02911 5.06882C 1.49335 5.54339 0.981846 6.05152 0.49769 6.5822C 0.336963 6.41583 0.165239 6.26046 5.50737e-07 6.09861C 0.403792 6.49366 0.803352 6.89378 1.1781 7.31618C 1.10845 7.23751 1.03458 7.16251 0.963799 7.08496C 1.04388 7.15292 1.12622 7.21834 1.20545 7.28714C 4.22064 3.90905 8.51149 1.95721 13.1585 1.95721C 18.8014 1.95721 23.9402 4.86524 26.8516 9.62417C 28.0582 8.93305 29.3533 8.39729 30.7042 8.03551C 29.9917 6.77874 29.1508 5.62094 28.2101 4.56521Z"/>
<path id="path159_fill" d="M 1.06705e-06 -4.13053e-07C 0.4819 0.386591 0.944061 0.796586 1.39522 1.2173C 0.944061 0.796304 0.4819 0.386591 1.06705e-06 -4.13053e-07Z"/>
<path id="path160_fill" d="M -2.13411e-06 1.89316e-07C 0.0501898 0.0135351 0.100665 0.0262234 0.150857 0.0403223C 0.100665 0.0265054 0.0504718 0.0135351 -2.13411e-06 1.89316e-07Z"/>
<path id="path161_fill" d="M -7.22842e-07 4.13053e-07C 0.132247 0.0248144 0.265339 0.0476543 0.396741 0.0750061C 0.265339 0.0473723 0.132247 0.0248144 -7.22842e-07 4.13053e-07Z"/>
<path id="path162_fill" d="M 3.44211e-07 -4.13053e-07C 0.145783 0.0180461 0.291002 0.0375028 0.435939 0.0583691C 0.291002 0.0375028 0.145783 0.0177642 3.44211e-07 -4.13053e-07Z"/>
<path id="path163_fill" d="M 3.0979e-07 -7.57263e-07C 0.0637272 0.0138161 0.127171 0.0290449 0.190616 0.0434257C 0.127171 0.0290449 0.0637272 0.0140981 3.0979e-07 -7.57263e-07Z"/>
<path id="path164_fill" d="M 11.7754 0.990997C 10.7335 0.453548 9.5799 0.118558 8.36599 0.0263511C 7.76989 -0.0193292 7.17238 -0.00551097 6.59094 0.0669572C 3.74833 0.417455 1.35772 2.06872 1.92758e-06 4.41279C 1.74516 4.90597 3.43054 5.59005 5.03104 6.46671C 5.75431 5.62586 6.53737 4.82645 7.36666 4.0919C 8.85917 2.76999 10.4972 1.65167 12.2367 0.741447C 12.0816 0.822092 11.9288 0.906686 11.7754 0.990997Z"/>
<path id="path165_fill" d="M -6.88421e-07 -1.92758e-06C 0.323709 -1.92758e-06 0.64178 0.0231221 0.955902 0.0592152C 0.641498 0.0231221 0.323709 -1.92758e-06 -6.88421e-07 -1.92758e-06Z"/>
<path id="path166_fill" d="M 1.20474e-06 -1.61779e-06C 0.209228 0.149728 0.411971 0.307921 0.605971 0.475697C 0.411689 0.307921 0.209228 0.149728 1.20474e-06 -1.61779e-06Z"/>
<path id="path167_fill" d="M -3.0979e-07 -8.60527e-07C 0.163265 0.18695 0.317223 0.381517 0.46357 0.582567C 0.316941 0.381517 0.163265 0.18695 -3.0979e-07 -8.60527e-07Z"/>
<path id="path168_fill" d="M 0.486975 0.483871C 0.331324 0.315813 0.168903 0.154807 -9.98211e-07 1.58337e-06C 0.168621 0.154807 0.331324 0.315813 0.486975 0.483871Z"/>
<path id="path169_fill" d="M 5.50737e-07 1.48011e-06C 0.273801 0.14663 0.538297 0.308481 0.79264 0.483871C 0.538015 0.308481 0.273801 0.14663 5.50737e-07 1.48011e-06Z"/>
<path id="path170_fill" d="M 7.91684e-07 1.308e-06C 0.216559 0.0327107 0.431144 0.0713398 0.641782 0.120686C 0.431144 0.0713398 0.216841 0.0327107 7.91684e-07 1.308e-06Z"/>
<path id="path171_fill" d="M -1.68663e-06 6.88421e-08C 0.236295 0.0950264 0.466956 0.20105 0.691974 0.316661C 0.466956 0.201332 0.236577 0.0950264 -1.68663e-06 6.88421e-08Z"/>
<path id="path172_fill" d="M 12.6202 1.37718C 11.3067 0.507843 9.73442 1.27358e-06 8.04481 1.27358e-06C 7.48622 1.27358e-06 6.931 0.072469 6.3944 0.18103C 3.23625 0.816889 0.788409 3.43589 1.37684e-07 6.25567L 14.142 6.25567C 14.1423 6.25567 14.1437 6.19702 14.1437 6.17615C 14.1437 4.39575 13.5764 2.73123 12.6202 1.37718Z"/>
<path id="path173_fill" d="M 3.0979e-07 2.75369e-07C 0.204998 0.0566777 0.406329 0.12125 0.604559 0.19259C 0.406047 0.12125 0.204998 0.0566777 3.0979e-07 2.75369e-07Z"/>
<path id="path174_fill" d="M 0.375594 0.318632C 0.25096 0.214018 0.126044 0.108557 3.27e-07 -4.19937e-06C 0.126044 0.108839 0.250678 0.213736 0.375594 0.318632Z"/>
<path id="path175_fill" d="M 0.294384 0.26196C 0.196256 0.174547 0.0986925 0.0899492 4.04447e-07 -1.58337e-06C 0.0986925 0.0902312 0.195974 0.174547 0.294384 0.26196Z"/>
<path id="path176_fill" d="M 0.398998 0.32202C 0.267032 0.217689 0.133657 0.109128 -4.47474e-07 2.616e-06C 0.133657 0.109128 0.267032 0.217407 0.398998 0.32202Z"/>
<path id="path177_fill" d="M -2.40947e-07 -2.68484e-06C 0.0981279 0.0995353 0.196256 0.198231 0.294102 0.295795C 0.196256 0.198513 0.0984099 0.0995353 -2.40947e-07 -2.68484e-06Z"/>
<path id="path178_fill" d="M 0.261393 0.272957C 0.174262 0.182161 0.0874125 0.092487 -4.905e-07 -1.58337e-06C 0.0874125 0.092487 0.174262 0.182161 0.261393 0.272957Z"/>
<path id="path179_fill" d="M 0.27098 0.262238C 0.181029 0.176799 0.0902328 0.0874143 9.46579e-08 1.37684e-06C 0.0902328 0.0874143 0.181029 0.176517 0.27098 0.262238Z"/>
<path id="path180_fill" d="M 1.52465 1.09126C 1.03035 0.766418 0.521377 0.40125 4.905e-07 -3.64863e-06C 0.521659 0.401814 1.03006 0.765854 1.52465 1.09126Z"/>
<path id="path181_fill" d="M 1.44568e-06 0.580592C 0.13958 0.384618 0.281128 0.187514 0.411402 -7.57263e-07C 0.280846 0.187796 0.13958 0.3849 1.44568e-06 0.580592Z"/>
<path id="path182_fill" d="M 2.82253e-06 0.630501C 0.15791 0.417608 0.3161 0.205281 0.46442 1.54895e-06C 0.3161 0.204999 0.157628 0.41789 2.82253e-06 0.630501Z"/>
<path id="path183_fill" d="M 0.483592 0.30143C 0.323993 0.205276 0.162983 0.104892 -1.54895e-07 -3.37326e-06C 0.162983 0.105174 0.323993 0.205276 0.483592 0.30143Z"/>
<path id="path184_fill" d="M 4.19937e-06 0.416762C 0.0944666 0.277747 0.194568 0.133375 0.283109 3.44211e-08C 0.194568 0.133375 0.0947486 0.277465 4.19937e-06 0.416762Z"/>
<path id="path185_fill" d="M 2.09848 1.02048C 1.4409 0.778258 0.739063 0.435941 -1.20474e-07 3.85516e-06C 0.739344 0.436787 1.4409 0.778258 2.09848 1.02048Z"/>
<path id="path186_fill" d="M -9.46579e-08 -1.41126e-06C 1.30527 2.25582 3.51654 5.27749 6.3569 8.40292C 7.97206 10.1802 9.54183 11.6412 11.027 12.8869C 11.7869 13.163 12.4907 13.2529 13.1193 13.2529L 75.0852 13.2529C 78.0102 13.2529 82.4812 10.1554 87.3521 4.79559C 88.8598 3.13643 90.1831 1.40989 91.295 -1.41126e-06L -9.46579e-08 -1.41126e-06Z"/>
</defs>
</svg>
