<svg width="288" height="150" viewBox="0 0 288 150" version="1.1" xmlns="http://www.w3.org/2000/svg" xmlns:xlink="http://www.w3.org/1999/xlink">
<title>Video_Games</title>
<desc>Created using Figma</desc>
<g id="Canvas" transform="translate(-18415 -1851)">
<g id="Video_Games">
<g id="Rectangle">
<use xlink:href="#path0_fill" transform="translate(18415.8 1851.94)" fill="#D53C3F"/>
</g>
<g id="Ilustra">
<g id="gamepad">
<g id="Vector">
<use xlink:href="#path1_fill" transform="translate(18582.3 1904.04)" fill="#363C44"/>
</g>
<g id="Vector">
<use xlink:href="#path2_fill" transform="translate(18582.3 1904.75)" fill="#2E343A"/>
</g>
<g id="Vector">
<use xlink:href="#path3_fill" transform="translate(18567.3 1909.39)" fill="#555E6B"/>
</g>
<g id="Group">
<g id="Vector">
<use xlink:href="#path4_fill" transform="translate(18627.3 1909.39)" fill="#414954"/>
</g>
<g id="Vector">
<use xlink:href="#path5_fill" transform="translate(18572.1 1950.21)" fill="#414954"/>
</g>
<g id="Vector">
<use xlink:href="#path6_fill" transform="translate(18584.4 1918.78)" fill="#414954"/>
</g>
<g id="Vector">
<use xlink:href="#path7_fill" transform="translate(18617.5 1930.9)" fill="#414954"/>
</g>
<g id="Vector">
<use xlink:href="#path8_fill" transform="translate(18593.8 1930.9)" fill="#414954"/>
</g>
<g id="Vector">
<use xlink:href="#path9_fill" transform="translate(18627.1 1923.44)" fill="#414954"/>
</g>
<g id="Vector">
<use xlink:href="#path10_fill" transform="translate(18633.3 1917.12)" fill="#414954"/>
</g>
<g id="Vector">
<use xlink:href="#path11_fill" transform="translate(18633 1929.55)" fill="#414954"/>
</g>
<g id="Vector">
<use xlink:href="#path12_fill" transform="translate(18639.2 1923.44)" fill="#414954"/>
</g>
</g>
<g id="Vector">
<use xlink:href="#path13_fill" transform="translate(18584.4 1917.51)" fill="#FFD82F"/>
</g>
<g id="Vector">
<use xlink:href="#path14_fill" transform="translate(18617.5 1929.62)" fill="#2E343A"/>
</g>
<g id="Vector">
<use xlink:href="#path15_fill" transform="translate(18593.8 1929.63)" fill="#49BC6E"/>
</g>
<g id="Vector">
<use xlink:href="#path16_fill" transform="translate(18619.4 1930.72)" fill="#6E7A89"/>
</g>
<g id="Vector">
<use xlink:href="#path17_fill" transform="translate(18587.4 1948.84)"/>
</g>
<g id="Vector">
<use xlink:href="#path18_fill" transform="translate(18566 1902.67)"/>
</g>
<g id="Vector">
<use xlink:href="#path19_fill" transform="translate(18583.1 1916.13)"/>
</g>
<g id="Vector">
<use xlink:href="#path20_fill" transform="translate(18618.1 1930.15)"/>
</g>
<g id="Vector">
<use xlink:href="#path21_fill" transform="translate(18592.4 1928.26)"/>
</g>
<g id="Vector">
<use xlink:href="#path22_fill" transform="translate(18627.1 1922.17)"/>
</g>
<g id="Vector">
<use xlink:href="#path23_fill" transform="translate(18610 1897.82)"/>
</g>
<g id="Vector">
<use xlink:href="#path24_fill" transform="translate(18633.3 1915.84)"/>
</g>
<g id="Vector">
<use xlink:href="#path25_fill" transform="translate(18633 1928.27)"/>
</g>
<g id="Vector">
<use xlink:href="#path26_fill" transform="translate(18639.2 1922.17)"/>
</g>
<g id="Vector">
<use xlink:href="#path27_fill" transform="translate(18602.9 1887.08)"/>
</g>
<g id="Vector">
<use xlink:href="#path28_fill" transform="translate(18599.1 1881.77)"/>
</g>
<g id="Vector">
<use xlink:href="#path29_fill" transform="translate(18606.7 1892.4)"/>
</g>
</g>
<g id="gamepad">
<g id="Vector">
<use xlink:href="#path1_fill" transform="translate(18477.7 1904.04)" fill="#363C44"/>
</g>
<g id="Vector">
<use xlink:href="#path2_fill" transform="translate(18477.7 1904.75)" fill="#2E343A"/>
</g>
<g id="Vector">
<use xlink:href="#path3_fill" transform="translate(18462.7 1909.39)" fill="#FFFFFF"/>
</g>
<g id="Group">
<g id="Vector">
<use xlink:href="#path4_fill" transform="translate(18522.7 1909.39)" fill="#414954" fill-opacity="0.1"/>
</g>
<g id="Vector">
<use xlink:href="#path5_fill" transform="translate(18467.5 1950.21)" fill="#414954" fill-opacity="0.1"/>
</g>
<g id="Vector">
<use xlink:href="#path6_fill" transform="translate(18479.8 1918.78)" fill="#414954"/>
</g>
<g id="Vector">
<use xlink:href="#path7_fill" transform="translate(18512.9 1930.9)" fill="#414954"/>
</g>
<g id="Vector">
<use xlink:href="#path8_fill" transform="translate(18489.1 1930.9)" fill="#414954"/>
</g>
<g id="Vector">
<use xlink:href="#path9_fill" transform="translate(18522.5 1923.44)" fill="#414954"/>
</g>
<g id="Vector">
<use xlink:href="#path10_fill" transform="translate(18528.7 1917.12)" fill="#414954"/>
</g>
<g id="Vector">
<use xlink:href="#path11_fill" transform="translate(18528.4 1929.55)" fill="#414954"/>
</g>
<g id="Vector">
<use xlink:href="#path12_fill" transform="translate(18534.6 1923.44)" fill="#414954"/>
</g>
</g>
<g id="Vector">
<use xlink:href="#path13_fill" transform="translate(18479.8 1917.51)" fill="#FFD82F"/>
</g>
<g id="Vector">
<use xlink:href="#path14_fill" transform="translate(18512.9 1929.62)" fill="#2E343A"/>
</g>
<g id="Vector">
<use xlink:href="#path15_fill" transform="translate(18489.1 1929.63)" fill="#49BC6E"/>
</g>
<g id="Vector">
<use xlink:href="#path16_fill" transform="translate(18514.8 1930.72)" fill="#6E7A89"/>
</g>
<g id="Vector">
<use xlink:href="#path17_fill" transform="translate(18482.8 1948.84)"/>
</g>
<g id="Vector">
<use xlink:href="#path18_fill" transform="translate(18461.4 1902.67)"/>
</g>
<g id="Vector">
<use xlink:href="#path19_fill" transform="translate(18478.4 1916.13)"/>
</g>
<g id="Vector">
<use xlink:href="#path20_fill" transform="translate(18513.5 1930.15)"/>
</g>
<g id="Vector">
<use xlink:href="#path21_fill" transform="translate(18487.8 1928.26)"/>
</g>
<g id="Vector">
<use xlink:href="#path22_fill" transform="translate(18522.5 1922.17)"/>
</g>
<g id="Vector">
<use xlink:href="#path23_fill" transform="translate(18505.4 1897.82)"/>
</g>
<g id="Vector">
<use xlink:href="#path24_fill" transform="translate(18528.7 1915.84)"/>
</g>
<g id="Vector">
<use xlink:href="#path25_fill" transform="translate(18528.4 1928.27)"/>
</g>
<g id="Vector">
<use xlink:href="#path26_fill" transform="translate(18534.6 1922.17)"/>
</g>
<g id="Vector">
<use xlink:href="#path27_fill" transform="translate(18498.3 1887.08)"/>
</g>
<g id="Vector">
<use xlink:href="#path28_fill" transform="translate(18494.5 1881.77)"/>
</g>
<g id="Vector">
<use xlink:href="#path29_fill" transform="translate(18502.1 1892.4)"/>
</g>
</g>
</g>
</g>
</g>
<defs>
<path id="path0_fill" d="M 0 6C 0 2.68629 2.68629 0 6 0L 281 0C 284.314 0 287 2.68629 287 6L 287 148.384L 0 148.384L 0 6Z"/>
<path id="path1_fill" d="M 58.6773 9.02759C 58.6773 9.02759 58.3474 6.56696 57.0052 4.7771C 55.6629 2.98742 46.192 0.153584 45.148 0.00444429C 44.104 -0.144696 41.2702 3.50941 39.4059 3.50941C 37.5417 3.50941 29.3386 3.50941 29.3386 3.50941C 29.3386 3.50941 21.1356 3.50941 19.2713 3.50941C 17.4071 3.50941 14.5733 -0.144696 13.5293 0.00444429C 12.4853 0.153584 3.01455 2.98742 1.67212 4.7771C 0.329857 6.56678 3.5932e-07 9.02759 3.5932e-07 9.02759L 20.9351 18.1221L 44.7821 18.1221L 58.6773 9.02759Z"/>
<path id="path2_fill" d="M 44.7821 17.4124L 58.6775 8.31794C 58.6775 8.31794 58.3476 5.85731 57.0054 4.06745C 56.0488 2.79191 50.9643 0.986357 47.7432 -6.09755e-07C 46.4607 0.147712 45.2358 0.716443 44.2862 1.66605L 38.457 7.49517C 37.3936 8.5586 35.9511 9.15623 34.447 9.15623L 29.3386 9.15623L 24.2304 9.15623C 22.7264 9.15623 21.284 8.55878 20.2204 7.49517L 14.3913 1.66605C 13.4417 0.716443 12.2168 0.147712 10.9343 -6.09755e-07C 7.71317 0.986357 2.62868 2.79191 1.67212 4.06745C 0.329857 5.85713 4.57317e-07 8.31794 4.57317e-07 8.31794L 20.9351 17.4124L 44.7821 17.4124Z"/>
<path id="path3_fill" d="M 44.3019 9.19799L 49.4103 9.19799C 50.9143 9.19799 52.3567 8.60054 53.4203 7.53693L 59.2494 1.70781C 60.8646 0.0926032 63.2744 -0.430635 65.4141 0.369476L 71.2605 2.55555C 76.1431 4.38127 79.8243 8.47887 81.1182 13.5284L 88.0728 40.6685C 89.968 48.0639 86.6762 55.8124 80.0375 59.5825C 79.5563 59.8558 78.948 59.7386 78.6028 59.3061L 66.7059 44.4063C 64.8948 42.1379 62.1498 40.8171 59.2471 40.8171L 44.3019 40.8171L 29.3567 40.8171C 26.454 40.8171 23.709 42.1379 21.8979 44.4063L 10.0011 59.3061C 9.65592 59.7386 9.04759 59.8556 8.56645 59.5825C 1.92794 55.8124 -1.36402 48.0639 0.531092 40.6685L 7.48572 13.5284C 8.77964 8.47887 12.461 4.38109 17.3434 2.55555L 23.1898 0.369476C 25.3295 -0.430635 27.7391 0.0926032 29.3545 1.70781L 35.1836 7.53693C 36.2471 8.60036 37.6896 9.19799 39.1937 9.19799L 44.3019 9.19799Z"/>
<path id="path4_fill" d="M 28.0847 40.6676L 21.1301 13.5275C 19.8361 8.478 16.1549 4.38022 11.2724 2.55468L 5.42595 0.368604C 3.59167 -0.317155 1.56062 -0.0279721 -5.22648e-07 1.0854L 3.92955 2.55468C 8.8121 4.3804 12.4933 8.478 13.7872 13.5275L 20.7419 40.6676C 22.2306 46.4778 20.5167 52.5048 16.4949 56.6504L 18.6148 59.3055C 18.96 59.7379 19.5684 59.8549 20.0495 59.5818C 26.688 55.8115 29.9798 48.0631 28.0847 40.6676Z"/>
<path id="path5_fill" d="M 9.77705 3.58917L 4.3554e-08 15.8342C 1.09732 16.9652 2.36519 17.9573 3.78826 18.7654C 4.2694 19.0387 4.87773 18.9215 5.22293 18.4891L 17.1199 3.58917C 18.931 1.32085 21.676 -1.52439e-06 24.5787 -1.52439e-06L 17.2358 -1.52439e-06C 14.3331 -1.52439e-06 11.5881 1.32085 9.77705 3.58917Z"/>
<path id="path6_fill" d="M 5.07094 10.1419C 7.87154 10.1419 10.1419 7.87154 10.1419 5.07094C 10.1419 2.27034 7.87154 0 5.07094 0C 2.27034 0 0 2.27034 0 5.07094C 0 7.87154 2.27034 10.1419 5.07094 10.1419Z"/>
<path id="path7_fill" d="M 6.96462 13.9292C 10.8111 13.9292 13.9292 10.8111 13.9292 6.96462C 13.9292 3.11817 10.8111 0 6.96462 0C 3.11817 0 0 3.11817 0 6.96462C 0 10.8111 3.11817 13.9292 6.96462 13.9292Z"/>
<path id="path8_fill" d="M 12.6605 4.76534L 9.96205 4.76534C 9.52069 4.76534 9.16301 4.40766 9.16301 3.9663L 9.16301 1.26787C 9.16301 0.567658 8.59535 -3.91986e-07 7.89514 -3.91986e-07L 6.03303 -3.91986e-07C 5.33282 -3.91986e-07 4.76516 0.567658 4.76516 1.26787L 4.76516 3.9663C 4.76516 4.40766 4.40748 4.76534 3.96612 4.76534L 1.26787 4.76534C 0.567659 4.76534 3.04878e-07 5.333 3.04878e-07 6.03321L 3.04878e-07 7.89532C 3.04878e-07 8.59552 0.567659 9.16319 1.26787 9.16319L 3.96612 9.16319C 4.40748 9.16319 4.76516 9.52087 4.76516 9.96222L 4.76516 12.6607C 4.76516 13.3609 5.33282 13.9285 6.03303 13.9285L 7.89514 13.9285C 8.59535 13.9285 9.16301 13.3609 9.16301 12.6607L 9.16301 9.96222C 9.16301 9.52087 9.52069 9.16319 9.96205 9.16319L 12.6603 9.16319C 13.3605 9.16319 13.9282 8.59552 13.9282 7.89532L 13.9282 6.03321C 13.9282 5.333 13.3607 4.76534 12.6605 4.76534Z"/>
<path id="path9_fill" d="M 1.67782 3.35565C 2.60446 3.35565 3.35565 2.60446 3.35565 1.67782C 3.35565 0.751187 2.60446 0 1.67782 0C 0.751188 0 0 0.751187 0 1.67782C 0 2.60446 0.751188 3.35565 1.67782 3.35565Z"/>
<path id="path10_fill" d="M 1.67782 3.35565C 2.60446 3.35565 3.35565 2.60446 3.35565 1.67782C 3.35565 0.751188 2.60446 0 1.67782 0C 0.751186 0 0 0.751188 0 1.67782C 0 2.60446 0.751186 3.35565 1.67782 3.35565Z"/>
<path id="path11_fill" d="M 1.67783 3.35565C 2.60446 3.35565 3.35565 2.60446 3.35565 1.67782C 3.35565 0.751187 2.60446 0 1.67783 0C 0.751189 0 0 0.751187 0 1.67782C 0 2.60446 0.751189 3.35565 1.67783 3.35565Z"/>
<path id="path12_fill" d="M 1.67782 3.35565C 2.60446 3.35565 3.35565 2.60446 3.35565 1.67782C 3.35565 0.751187 2.60446 0 1.67782 0C 0.751188 0 0 0.751187 0 1.67782C 0 2.60446 0.751188 3.35565 1.67782 3.35565Z"/>
<path id="path13_fill" d="M 5.07094 10.1419C 7.87154 10.1419 10.1419 7.87154 10.1419 5.07094C 10.1419 2.27034 7.87154 0 5.07094 0C 2.27034 0 0 2.27034 0 5.07094C 0 7.87154 2.27034 10.1419 5.07094 10.1419Z"/>
<path id="path14_fill" d="M 6.96462 13.9292C 10.8111 13.9292 13.9292 10.8111 13.9292 6.96462C 13.9292 3.11817 10.8111 -2.39547e-06 6.96462 -2.39547e-06C 3.11817 -2.39547e-06 0 3.11817 0 6.96462C 0 10.8111 3.11817 13.9292 6.96462 13.9292Z"/>
<path id="path15_fill" d="M 12.6605 4.76534L 9.96205 4.76534C 9.52069 4.76534 9.16301 4.40766 9.16301 3.9663L 9.16301 1.26787C 9.16301 0.567658 8.59535 -2.61324e-07 7.89514 -2.61324e-07L 6.03303 -2.61324e-07C 5.33282 -2.61324e-07 4.76516 0.567658 4.76516 1.26787L 4.76516 3.9663C 4.76516 4.40766 4.40748 4.76534 3.96612 4.76534L 1.26787 4.76534C 0.567659 4.76534 3.04878e-07 5.333 3.04878e-07 6.03321L 3.04878e-07 7.89532C 3.04878e-07 8.59552 0.567659 9.16319 1.26787 9.16319L 3.96612 9.16319C 4.40748 9.16319 4.76516 9.52087 4.76516 9.96222L 4.76516 12.6607C 4.76516 13.3609 5.33282 13.9285 6.03303 13.9285L 7.89514 13.9285C 8.59535 13.9285 9.16301 13.3609 9.16301 12.6607L 9.16301 9.96222C 9.16301 9.52087 9.52069 9.16319 9.96205 9.16319L 12.6603 9.16319C 13.3605 9.16319 13.9282 8.59552 13.9282 7.89532L 13.9282 6.03321C 13.9282 5.333 13.3607 4.76534 12.6605 4.76534Z"/>
<path id="path16_fill" d="M 3.85266 7.70532C 5.98043 7.70532 7.70532 5.98043 7.70532 3.85266C 7.70532 1.72489 5.98043 0 3.85266 0C 1.72489 0 2.00348e-06 1.72489 2.00348e-06 3.85266C 2.00348e-06 5.98043 1.72489 7.70532 3.85266 7.70532Z"/>
<path id="path17_fill" d="M 65.4716 15.249C 64.8918 14.7627 64.0277 14.8387 63.5414 15.4185C 62.3948 16.7856 61.032 17.9359 59.4884 18.8398L 47.7229 4.10456C 45.6399 1.49604 42.531 -2.1777e-07 39.1932 -2.1777e-07L 24.2482 -2.1777e-07L 9.30313 -2.1777e-07C 5.96532 -2.1777e-07 2.85639 1.49604 0.773428 4.10456L 0.299427 4.72235C -0.172611 5.31374 -0.0760986 6.17575 0.515288 6.64797C 0.767719 6.84956 1.06957 6.94749 1.36927 6.94749C 1.77156 6.94749 2.17028 6.77106 2.4409 6.4321L 2.91491 5.81432C 4.47481 3.86069 6.80307 2.74036 9.30295 2.74036L 24.2482 2.74036L 39.1932 2.74036C 41.6931 2.74036 44.0213 3.86087 45.5812 5.81432L 57.4784 20.7144C 57.9684 21.3283 58.6886 21.6558 59.4241 21.6558C 59.8444 21.6558 60.2699 21.5488 60.6604 21.327C 62.5636 20.2461 64.2394 18.8507 65.6411 17.1793C 66.1274 16.5995 66.0514 15.7352 65.4716 15.249Z"/>
<path id="path18_fill" d="M 90.7667 47.0479L 83.8121 19.908C 82.7009 15.5711 79.9618 11.8781 76.2415 9.54328C 76.0338 8.58476 75.5261 6.78616 74.4313 5.32633C 74.1264 4.91977 73.3163 3.83975 67.755 1.85633C 65.2051 0.946865 62.3911 0.121956 61.6718 0.0191995C 60.5996 -0.13333 59.6623 0.653046 58.3673 1.7427C 57.6855 2.3166 56.2664 3.51061 55.7358 3.51061L 45.6685 3.51061L 35.6012 3.51061C 35.0707 3.51061 33.6515 2.3166 32.9697 1.7427C 31.6745 0.653225 30.7381 -0.134579 29.6652 0.0191995C 28.9459 0.121956 26.1319 0.946865 23.5821 1.85633C 18.0207 3.83975 17.2106 4.91977 16.9057 5.32633C 15.8109 6.78598 15.303 8.58458 15.0955 9.54311C 11.3752 11.878 8.63632 15.5711 7.52508 19.9078L 0.570451 47.0479C -1.47273 55.0212 2.09931 63.4286 9.2566 67.4934C 9.64694 67.7152 10.0722 67.822 10.4925 67.822C 11.2281 67.822 11.9484 67.4943 12.4387 66.8806L 19.3405 58.2366C 19.8125 57.6452 19.716 56.7832 19.1246 56.311C 18.5334 55.8387 17.6712 55.9354 17.1988 56.5268L 10.4287 65.0062C 4.46432 61.5125 1.50525 54.4396 3.22518 47.7283L 10.1798 20.5882C 11.3615 15.9757 14.7298 12.2264 19.1901 10.5585L 25.0367 8.37246C 26.6689 7.76217 28.5203 8.16392 29.7525 9.39628L 35.5818 15.2254C 36.9115 16.5552 38.6798 17.2877 40.5605 17.2877L 45.6689 17.2877L 50.7771 17.2877C 52.6579 17.2877 54.426 16.5554 55.7561 15.2254L 57.2613 13.7203C 57.7963 13.1851 57.7963 12.3177 57.2611 11.7825C 56.7263 11.2473 55.8585 11.2475 55.3234 11.7825L 53.8186 13.2875C 53.0062 14.0999 51.926 14.5471 50.7773 14.5471L 45.669 14.5471L 40.5606 14.5471C 39.4119 14.5471 38.3318 14.0997 37.5195 13.2875L 31.6904 7.45836C 29.7007 5.46887 26.712 4.82004 24.0771 5.80533L 18.5472 7.87295C 18.7038 7.56076 18.8859 7.25356 19.0979 6.97098C 19.1246 6.93655 19.8107 6.11021 24.5053 4.43613C 26.8344 3.60552 29.0906 2.95205 29.8459 2.77472C 30.1685 2.96614 30.7816 3.48224 31.2057 3.83904C 32.5492 4.96936 34.0715 6.25043 35.6016 6.25043L 45.6689 6.25043L 55.7362 6.25043C 57.2663 6.25043 58.7887 4.96936 60.132 3.83904C 60.5559 3.48224 61.1691 2.96632 61.4918 2.7749C 62.2482 2.95258 64.504 3.60587 66.8325 4.43613C 71.5268 6.11021 72.2131 6.93654 72.2393 6.97008C 72.4518 7.25338 72.6343 7.56111 72.7911 7.87313L 67.2606 5.80515C 64.6248 4.81969 61.6368 5.46852 59.6473 7.45818C 59.1123 7.99337 59.1123 8.86074 59.6475 9.39593C 60.1824 9.93112 61.0501 9.93094 61.5853 9.39593C 62.8173 8.16356 64.6685 7.76163 66.3008 8.37211L 72.1474 10.5582C 76.6075 12.226 79.9759 15.9754 81.1577 20.5878L 88.1124 47.7279C 88.8058 50.4337 88.7578 53.2789 87.9736 55.9556C 87.7607 56.6819 88.177 57.4429 88.9032 57.6557C 89.0318 57.6935 89.1613 57.7114 89.2889 57.7114C 89.8817 57.7114 90.4283 57.3237 90.6033 56.7261C 91.5256 53.5772 91.5822 50.2305 90.7667 47.0479Z"/>
<path id="path19_fill" d="M 6.4412 -2.61324e-07C 2.8895 -2.61324e-07 1.19773e-07 2.8895 1.19773e-07 6.44102C 1.19773e-07 9.99255 2.8895 12.882 6.4412 12.882C 9.99291 12.882 12.8824 9.99255 12.8824 6.44102C 12.8824 2.8895 9.99291 -2.61324e-07 6.4412 -2.61324e-07ZM 6.4412 10.1419C 4.40052 10.1419 2.74036 8.48171 2.74036 6.44102C 2.74036 4.40034 4.40052 2.74018 6.4412 2.74018C 8.48189 2.74018 10.1421 4.40034 10.1421 6.44102C 10.1421 8.48171 8.48189 10.1419 6.4412 10.1419Z"/>
<path id="path20_fill" d="M -2.52613e-06 6.4412C -2.52613e-06 9.99291 2.8895 12.8822 6.4412 12.8822C 9.99291 12.8822 12.8824 9.99273 12.8824 6.4412C 12.8824 2.88949 9.99291 -3.04878e-07 6.4412 -3.04878e-07C 2.8895 0.000178092 -2.52613e-06 2.88949 -2.52613e-06 6.4412ZM 10.142 6.4412C 10.142 8.48188 8.48171 10.1421 6.4412 10.1421C 4.40052 10.1421 2.74036 8.48188 2.74036 6.4412C 2.74036 4.40052 4.40052 2.74036 6.4412 2.74036C 8.48189 2.74036 10.142 4.40052 10.142 6.4412Z"/>
<path id="path21_fill" d="M 9.26541 1.0453e-06L 7.4033 1.0453e-06C 5.94847 1.0453e-06 4.76516 1.18331 4.76516 2.63796L 4.76516 4.76516L 2.63796 4.76516C 1.18331 4.76516 -1.11063e-06 5.94847 -1.11063e-06 7.40312L -1.11063e-06 9.26523C -1.11063e-06 10.7199 1.18331 11.9032 2.63796 11.9032L 4.76516 11.9032L 4.76516 14.0304C 4.76516 15.485 5.94847 16.6683 7.4033 16.6683L 9.26541 16.6683C 10.7201 16.6683 11.9034 15.485 11.9034 14.0304L 11.9034 11.9034L 14.0304 11.9034C 15.4852 11.9034 16.6685 10.7201 16.6685 9.2654L 16.6685 7.4033C 16.6685 5.94865 15.4852 4.76534 14.0304 4.76534L 11.9032 4.76534L 11.9032 2.63814C 11.9034 1.18349 10.7201 1.0453e-06 9.26541 1.0453e-06ZM 13.9282 7.50552L 13.9282 9.16301L 11.332 9.16301C 10.136 9.16301 9.16283 10.136 9.16283 11.3321L 9.16283 13.9282L 7.50534 13.9282L 7.50534 11.3321C 7.50534 10.1362 6.53236 9.16301 5.33621 9.16301L 2.74018 9.16301L 2.74018 7.50552L 5.33621 7.50552C 6.53236 7.50552 7.50534 6.53236 7.50534 5.33639L 7.50534 2.74036L 9.16283 2.74036L 9.16283 5.33639C 9.16283 6.53236 10.1358 7.50552 11.332 7.50552L 13.9282 7.50552Z"/>
<path id="path22_fill" d="M 1.67782 3.35565C 2.60446 3.35565 3.35565 2.60446 3.35565 1.67782C 3.35565 0.751187 2.60446 0 1.67782 0C 0.751188 0 0 0.751187 0 1.67782C 0 2.60446 0.751188 3.35565 1.67782 3.35565Z"/>
<path id="path23_fill" d="M 1.67783 3.35565C 2.60446 3.35565 3.35565 2.60446 3.35565 1.67782C 3.35565 0.751188 2.60446 0 1.67783 0C 0.751188 0 0 0.751188 0 1.67782C 0 2.60446 0.751188 3.35565 1.67783 3.35565Z"/>
<path id="path24_fill" d="M 1.67782 3.35565C 2.60446 3.35565 3.35565 2.60446 3.35565 1.67783C 3.35565 0.751188 2.60446 0 1.67782 0C 0.751186 0 0 0.751188 0 1.67783C 0 2.60446 0.751186 3.35565 1.67782 3.35565Z"/>
<path id="path25_fill" d="M 1.67783 3.35565C 2.60446 3.35565 3.35565 2.60446 3.35565 1.67783C 3.35565 0.75119 2.60446 -2.61324e-06 1.67783 -2.61324e-06C 0.751189 -2.61324e-06 0 0.75119 0 1.67783C 0 2.60446 0.751189 3.35565 1.67783 3.35565Z"/>
<path id="path26_fill" d="M 1.678 3.35601C 2.60474 3.35601 3.35601 2.60474 3.35601 1.678C 3.35601 0.751267 2.60474 0 1.678 0C 0.751268 0 0 0.751267 0 1.678C 0 2.60474 0.751268 3.35601 1.678 3.35601Z"/>
<path id="path27_fill" d="M 17.4055 4.95877C 17.8899 4.37737 17.811 3.5134 17.2296 3.02905C 12.381 -1.00968 5.34213 -1.00968 0.493301 3.02905C -0.0880951 3.5134 -0.166948 4.37719 0.3174 4.95877C 0.588385 5.28417 0.978182 5.45204 1.37083 5.45204C 1.68 5.45204 1.99094 5.34803 2.24694 5.13467C 6.07909 1.94243 11.6426 1.94225 15.4758 5.13467C 16.0568 5.61902 16.921 5.54034 17.4055 4.95877Z"/>
<path id="path28_fill" d="M 2.27635 6.64092C 8.17808 1.43797 17.0787 1.43797 22.9804 6.64092C 23.2409 6.87052 23.5641 6.98326 23.8859 6.98326C 24.2656 6.98326 24.6434 6.82627 24.9142 6.51925C 25.4146 5.95159 25.36 5.08583 24.7926 4.58525C 17.8579 -1.52842 7.39866 -1.52842 0.464013 4.58525C -0.103468 5.08565 -0.158056 5.95142 0.342348 6.51925C 0.842752 7.08673 1.70869 7.14132 2.27635 6.64092Z"/>
<path id="path29_fill" d="M 8.76457 3.91883C 9.19326 3.91883 9.61553 3.71813 9.88276 3.34207C 10.3209 2.72517 10.1762 1.86994 9.55933 1.43144C 6.87285 -0.477056 3.26316 -0.477234 0.576681 1.43144C -0.0402162 1.86976 -0.184897 2.72517 0.253246 3.34207C 0.691568 3.95896 1.54662 4.10364 2.1637 3.6655C 3.90075 2.43117 6.23508 2.43135 7.97213 3.6655C 8.21314 3.83676 8.4902 3.91883 8.76457 3.91883Z"/>
</defs>
</svg>
