<svg width="161" height="159" viewBox="0 0 161 159" version="1.1" xmlns="http://www.w3.org/2000/svg" xmlns:xlink="http://www.w3.org/1999/xlink">
<title>Outros</title>
<desc>Created using Figma</desc>
<g id="Canvas" transform="translate(-16473 -509)">
<g id="Outros">
<g id="Group">
<g id="Ellipse">
<use xlink:href="#path0_fill" transform="translate(16473.6 509.096)" fill="#040D61"/>
</g>
</g>
<g id="?">
<use xlink:href="#path1_fill" transform="translate(16525.4 526.573)" fill="#FFFFFF"/>
</g>
<g id="?">
<use xlink:href="#path2_fill" transform="matrix(0.964656 0.263513 -0.263513 0.964656 16598.9 572.562)" fill="#FFFFFF"/>
</g>
<g id="?">
<use xlink:href="#path2_fill" transform="matrix(0.965926 -0.258819 0.258819 0.965926 16475 581.851)" fill="#FFFFFF"/>
</g>
</g>
</g>
<defs>
<path id="path0_fill" d="M 158.442 79.221C 158.442 122.974 122.974 158.442 79.221 158.442C 35.4685 158.442 0 122.974 0 79.221C 0 35.4685 35.4685 0 79.221 0C 122.974 0 158.442 35.4685 158.442 79.221Z"/>
<path id="path1_fill" d="M 19.2773 72.8711C 19.3685 67.4479 19.9837 63.1641 21.123 60.0195C 22.2624 56.875 24.5866 53.3887 28.0957 49.5605L 37.0508 40.332C 40.8789 36.0026 42.793 31.3542 42.793 26.3867C 42.793 21.6016 41.5397 17.8646 39.0332 15.1758C 36.5267 12.4414 32.8809 11.0742 28.0957 11.0742C 23.4473 11.0742 19.7103 12.3047 16.8848 14.7656C 14.0592 17.2266 12.6465 20.5306 12.6465 24.6777L 0 24.6777C 0.0911458 17.2949 2.71159 11.3477 7.86133 6.83594C 13.0566 2.27865 19.8014 0 28.0957 0C 36.709 0 43.4082 2.32422 48.1934 6.97266C 53.0241 11.5755 55.4395 17.9102 55.4395 25.9766C 55.4395 33.9518 51.748 41.8132 44.3652 49.5605L 36.9141 56.9434C 33.5872 60.6348 31.9238 65.944 31.9238 72.8711L 19.2773 72.8711ZM 18.7305 94.541C 18.7305 92.4902 19.3457 90.7812 20.5762 89.4141C 21.8522 88.0013 23.7207 87.2949 26.1816 87.2949C 28.6426 87.2949 30.5111 88.0013 31.7871 89.4141C 33.0632 90.7812 33.7012 92.4902 33.7012 94.541C 33.7012 96.5918 33.0632 98.3008 31.7871 99.668C 30.5111 100.99 28.6426 101.65 26.1816 101.65C 23.7207 101.65 21.8522 100.99 20.5762 99.668C 19.3457 98.3008 18.7305 96.5918 18.7305 94.541Z"/>
<path id="path2_fill" d="M 13.7493 50.4769C 13.8121 46.7727 14.3143 43.7906 15.2561 41.5304C 16.1978 39.2702 18.2225 36.6177 21.3302 33.5728C 24.438 30.4964 26.4313 28.3305 27.3102 27.0748C 28.2206 25.7878 28.9112 24.3909 29.3821 22.8841C 29.8843 21.3459 30.1354 19.6037 30.1354 17.6575C 30.1354 13.7336 29.0838 10.6573 26.9806 8.42851C 24.9088 6.16835 22.0051 5.03827 18.2696 5.03827C 14.5027 5.03827 11.4577 6.12126 9.1348 8.28725C 6.84326 10.4218 5.66609 13.3255 5.60331 16.9983L 0 16.9983C 0.0627822 11.8501 1.80499 7.7379 5.22662 4.66158C 8.64824 1.55386 12.9959 0 18.2696 0C 23.6689 0 27.9224 1.58525 31.0301 4.75575C 34.1692 7.89486 35.7387 12.164 35.7387 17.5633C 35.7387 20.9535 34.9697 24.1397 33.4315 27.1219C 31.8933 30.0727 28.974 33.5257 24.6734 37.481C 21.1262 40.4631 19.3526 44.7951 19.3526 50.4769L 13.7493 50.4769ZM 12.9959 66.2038C 12.9959 65.1365 13.3255 64.2418 13.9847 63.5199C 14.6753 62.7665 15.6328 62.3898 16.857 62.3898C 18.0499 62.3898 18.9916 62.7665 19.6822 63.5199C 20.4042 64.2418 20.7652 65.1365 20.7652 66.2038C 20.7652 67.2397 20.4042 68.1186 19.6822 68.8406C 18.9916 69.5312 18.0499 69.8765 16.857 69.8765C 15.6328 69.8765 14.6753 69.5312 13.9847 68.8406C 13.3255 68.1186 12.9959 67.2397 12.9959 66.2038Z"/>
</defs>
</svg>
