<svg width="86" height="24" viewBox="0 0 86 24" version="1.1" xmlns="http://www.w3.org/2000/svg" xmlns:xlink="http://www.w3.org/1999/xlink">
<title>SimBora2</title>
<desc>Created using Figma</desc>
<g id="Canvas" transform="translate(-17565 2180)">
<g id="SimBora2">
<use xlink:href="#path0_fill" transform="translate(17544 -2190)" fill="#FFFFFF"/>
</g>
</g>
<defs>
<path id="path0_fill" d="M 27.9637 33.336C 25.7983 33.336 24.1837 32.7667 23.1197 31.628C 22.0743 30.4707 21.5143 28.6413 21.4397 26.14L 25.7237 25.496C 25.7423 26.9333 25.9103 27.9693 26.2277 28.604C 26.5637 29.22 27.0583 29.528 27.7117 29.528C 28.5517 29.528 28.9717 28.9773 28.9717 27.876C 28.9717 26.9987 28.7663 26.2427 28.3557 25.608C 27.9637 24.9733 27.3383 24.292 26.4797 23.564L 24.5197 21.856C 23.549 21.0347 22.793 20.1667 22.2517 19.252C 21.729 18.3187 21.4677 17.2173 21.4677 15.948C 21.4677 14.044 22.0277 12.5787 23.1477 11.552C 24.2863 10.5253 25.845 10.012 27.8237 10.012C 29.9703 10.012 31.4263 10.6373 32.1917 11.888C 32.9757 13.1387 33.3957 14.66 33.4517 16.452L 29.1397 16.984C 29.1023 15.808 28.9903 14.968 28.8037 14.464C 28.6357 13.9413 28.253 13.68 27.6557 13.68C 27.2263 13.68 26.8903 13.8667 26.6477 14.24C 26.4237 14.5947 26.3117 14.996 26.3117 15.444C 26.3117 16.2093 26.4797 16.8533 26.8157 17.376C 27.1703 17.8987 27.7303 18.496 28.4957 19.168L 30.3717 20.82C 31.4917 21.772 32.3597 22.78 32.9757 23.844C 33.5917 24.908 33.8997 26.168 33.8997 27.624C 33.8997 28.688 33.6477 29.6587 33.1437 30.536C 32.6583 31.3947 31.9677 32.076 31.0717 32.58C 30.1757 33.084 29.1397 33.336 27.9637 33.336ZM 36.0745 10.908L 40.6665 10.908L 40.6665 14.072L 36.0745 14.072L 36.0745 10.908ZM 36.1025 16.816L 40.6665 16.816L 40.6665 33L 36.1025 33L 36.1025 16.816ZM 43.4846 16.816L 47.9646 16.816L 47.9646 18.104C 49.0473 17.04 50.326 16.508 51.8006 16.508C 52.454 16.508 53.014 16.676 53.4806 17.012C 53.966 17.3293 54.33 17.8053 54.5726 18.44C 55.7113 17.152 57.0833 16.508 58.6886 16.508C 59.6406 16.508 60.3966 16.8627 60.9566 17.572C 61.5353 18.2627 61.8246 19.2147 61.8246 20.428L 61.8246 33L 57.3446 33L 57.3446 20.904C 57.3446 20.456 57.2606 20.1387 57.0926 19.952C 56.9433 19.7467 56.71 19.644 56.3926 19.644C 56.1873 19.644 55.9446 19.7 55.6646 19.812C 55.3846 19.9053 55.1233 20.0453 54.8806 20.232L 54.8806 20.428L 54.8806 33L 50.4566 33L 50.4566 20.904C 50.4566 20.064 50.13 19.644 49.4766 19.644C 49.0473 19.644 48.5433 19.84 47.9646 20.232L 47.9646 33L 43.4846 33L 43.4846 16.816ZM 65.1267 10.32L 69.9987 10.32C 71.9773 10.32 73.396 10.8147 74.2547 11.804C 75.1133 12.7747 75.5427 14.1653 75.5427 15.976C 75.5427 17.208 75.3187 18.2627 74.8707 19.14C 74.4227 20.0173 73.6853 20.5587 72.6587 20.764C 73.8907 21.1 74.768 21.7813 75.2907 22.808C 75.8133 23.8347 76.0747 25.048 76.0747 26.448C 76.0747 28.4827 75.6733 30.088 74.8707 31.264C 74.0867 32.4213 72.7053 33 70.7267 33L 65.1267 33L 65.1267 10.32ZM 70.3347 20.092C 71.548 20.092 72.3973 19.7467 72.8827 19.056C 73.368 18.3467 73.6107 17.32 73.6107 15.976C 73.6107 15.024 73.48 14.2587 73.2187 13.68C 72.976 13.1013 72.5373 12.672 71.9027 12.392C 71.2867 12.112 70.4093 11.972 69.2707 11.972L 67.2547 11.972L 67.2547 20.092L 70.3347 20.092ZM 70.3067 31.404C 71.2773 31.404 72.024 31.236 72.5467 30.9C 73.088 30.5453 73.4613 30.0133 73.6667 29.304C 73.8907 28.5947 74.0027 27.6427 74.0027 26.448C 74.0027 23.312 72.7893 21.744 70.3627 21.744L 67.2547 21.744L 67.2547 31.404L 70.3067 31.404ZM 82.7654 33.252C 81.16 33.252 80.04 32.7573 79.4054 31.768C 78.7707 30.76 78.4534 29.22 78.4534 27.148L 78.4534 22.668C 78.4534 20.596 78.7707 19.0653 79.4054 18.076C 80.04 17.068 81.16 16.564 82.7654 16.564C 84.3894 16.564 85.5187 17.068 86.1534 18.076C 86.788 19.0653 87.1054 20.596 87.1054 22.668L 87.1054 27.148C 87.1054 29.22 86.788 30.76 86.1534 31.768C 85.5187 32.7573 84.3894 33.252 82.7654 33.252ZM 82.7654 31.712C 83.4374 31.712 83.932 31.5347 84.2494 31.18C 84.5854 30.8253 84.8 30.3493 84.8934 29.752C 84.9867 29.136 85.0334 28.3053 85.0334 27.26L 85.0334 22.556C 85.0334 21.5107 84.9867 20.6893 84.8934 20.092C 84.8 19.476 84.5854 18.9907 84.2494 18.636C 83.932 18.2813 83.4374 18.104 82.7654 18.104C 82.0934 18.104 81.5987 18.2813 81.2814 18.636C 80.964 18.9907 80.7587 19.476 80.6654 20.092C 80.572 20.6893 80.5254 21.5107 80.5254 22.556L 80.5254 27.26C 80.5254 28.3053 80.572 29.136 80.6654 29.752C 80.7587 30.3493 80.964 30.8253 81.2814 31.18C 81.5987 31.5347 82.0934 31.712 82.7654 31.712ZM 90.085 16.816L 92.157 16.816L 92.157 19.028C 92.6423 18.2253 93.2116 17.628 93.865 17.236C 94.537 16.844 95.209 16.648 95.881 16.648C 96.0116 16.648 96.133 16.6573 96.245 16.676L 96.245 18.86C 95.909 18.748 95.573 18.692 95.237 18.692C 93.949 18.692 92.9223 19.3173 92.157 20.568L 92.157 33L 90.085 33L 90.085 16.816ZM 100.975 33.252C 100.005 33.252 99.2208 32.9067 98.6234 32.216C 98.0261 31.5253 97.7274 30.6667 97.7274 29.64C 97.7274 28.576 97.9328 27.6987 98.3434 27.008C 98.7728 26.3173 99.4261 25.7013 100.303 25.16C 101.181 24.6187 102.497 23.956 104.251 23.172L 104.251 22.024C 104.251 21.016 104.186 20.232 104.055 19.672C 103.943 19.112 103.738 18.7107 103.439 18.468C 103.159 18.2253 102.758 18.104 102.235 18.104C 100.723 18.104 99.9674 19.028 99.9674 20.876L 99.9674 21.436L 97.9514 21.408C 97.9701 19.7467 98.3248 18.524 99.0154 17.74C 99.7061 16.956 100.817 16.564 102.347 16.564C 103.766 16.564 104.774 16.9933 105.371 17.852C 105.987 18.7107 106.295 20.064 106.295 21.912L 106.295 29.78C 106.295 30.3027 106.305 30.9 106.323 31.572C 106.361 32.244 106.398 32.72 106.435 33L 104.615 33L 104.307 30.76C 104.065 31.4693 103.645 32.0667 103.047 32.552C 102.469 33.0187 101.778 33.252 100.975 33.252ZM 101.619 31.516C 102.179 31.516 102.683 31.3293 103.131 30.956C 103.598 30.564 103.971 30.1067 104.251 29.584L 104.251 24.544C 102.982 25.216 102.058 25.7387 101.479 26.112C 100.919 26.4853 100.49 26.9053 100.191 27.372C 99.9114 27.82 99.7714 28.408 99.7714 29.136C 99.7714 29.9387 99.9394 30.536 100.275 30.928C 100.63 31.32 101.078 31.516 101.619 31.516Z"/>
</defs>
</svg>
